STARTFONT 2.1
COMMENT Exported by Fony v1.4.7
FONT u8g2_font_ncenB08_symbols8_ahoy
SIZE 12 100 100
FONTBOUNDINGBOX 9 11 0 -2
STARTPROPERTIES 6
COPYRIGHT ""
RESOLUTION_X 100
RESOLUTION_Y 100
FONT_ASCENT 10
FONT_DESCENT 2
DEFAULT_CHAR 0
ENDPROPERTIES
CHARS 11
STARTCHAR 065
ENCODING 65
SWIDTH 576 0
DWIDTH 8 0
BBX 7 8 0 0
BITMAP
FE
92
D6
38
10
10
10
10
ENDCHAR
STARTCHAR 066
ENCODING 66
SWIDTH 648 0
DWIDTH 9 0
BBX 8 9 1 0
BITMAP
3C
42
99
24
42
18
24
00
18
ENDCHAR
STARTCHAR 067
ENCODING 67
SWIDTH 576 0
DWIDTH 8 0
BBX 8 8 0 0
BITMAP
18
24
24
42
42
42
42
81
ENDCHAR
STARTCHAR 068
ENCODING 68
SWIDTH 648 0
DWIDTH 9 0
BBX 8 8 0 0
BITMAP
FF
41
20
10
10
20
41
FF
ENDCHAR
STARTCHAR 069
ENCODING 69
SWIDTH 576 0
DWIDTH 8 0
BBX 7 8 0 0
BITMAP
FE
D6
FE
38
10
38
54
92
ENDCHAR
STARTCHAR 070
ENCODING 70
SWIDTH 648 0
DWIDTH 9 0
BBX 8 9 1 0
BITMAP
BD
42
BD
3C
5A
18
24
42
99
ENDCHAR
STARTCHAR 071
ENCODING 71
SWIDTH 648 0
DWIDTH 9 0
BBX 8 8 0 0
BITMAP
24
3C
E7
42
42
E7
3C
24
ENDCHAR
STARTCHAR 072
ENCODING 72
SWIDTH 576 0
DWIDTH 8 0
BBX 7 7 0 1
BITMAP
04
06
06
0E
1E
FC
78
ENDCHAR
STARTCHAR 073
ENCODING 73
SWIDTH 576 0
DWIDTH 8 0
BBX 7 9 0 0
BITMAP
44
FE
82
92
B2
92
92
82
FE
ENDCHAR
STARTCHAR 074
ENCODING 74
SWIDTH 504 0
DWIDTH 7 0
BBX 0 0 0 0
BITMAP
ENDCHAR
STARTCHAR 075
ENCODING 75
SWIDTH 648 0
DWIDTH 9 0
BBX 0 0 0 0
BITMAP
ENDCHAR
ENDFONT
