STARTFONT 2.1
COMMENT Exported by Fony v1.4.7
FONT u8g2_font_symbols10_ahoy
SIZE 16 100 100
FONTBOUNDINGBOX 12 15 0 -3
STARTPROPERTIES 6
COPYRIGHT ""
RESOLUTION_X 100
RESOLUTION_Y 100
FONT_ASCENT 13
FONT_DESCENT 3
DEFAULT_CHAR 0
ENDPROPERTIES
CHARS 11
STARTCHAR 065
ENCODING 65
SWIDTH 576 0
DWIDTH 8 0
BBX 7 11 0 0
BITMAP
FE
92
92
54
38
10
10
10
10
10
10
ENDCHAR
STARTCHAR 066
ENCODING 66
SWIDTH 648 0
DWIDTH 9 0
BBX 8 9 0 1
BITMAP
3C
42
99
24
42
18
24
00
18
ENDCHAR
STARTCHAR 067
ENCODING 67
SWIDTH 792 0
DWIDTH 11 0
BBX 10 11 0 0
BITMAP
0C00
1200
2100
2100
2100
2180
4080
4080
4080
4080
8040
ENDCHAR
STARTCHAR 068
ENCODING 68
SWIDTH 720 0
DWIDTH 10 0
BBX 9 11 0 0
BITMAP
FF80
6080
3000
1800
0C00
0C00
1800
3000
6000
C080
FF80
ENDCHAR
STARTCHAR 069
ENCODING 69
SWIDTH 576 0
DWIDTH 8 0
BBX 7 11 0 0
BITMAP
FE
D6
D6
7C
38
10
38
38
54
54
92
ENDCHAR
STARTCHAR 070
ENCODING 70
SWIDTH 648 0
DWIDTH 9 0
BBX 8 10 1 0
BITMAP
BD
42
BD
24
5A
18
24
24
5A
81
ENDCHAR
STARTCHAR 071
ENCODING 71
SWIDTH 864 0
DWIDTH 12 0
BBX 11 11 0 0
BITMAP
1100
1100
0E00
D160
2080
2080
2080
D160
0E00
1100
1100
ENDCHAR
STARTCHAR 072
ENCODING 72
SWIDTH 792 0
DWIDTH 11 0
BBX 10 11 0 0
BITMAP
0080
0080
00C0
00C0
01C0
01C0
03C0
0780
1F80
FF00
3C00
ENDCHAR
STARTCHAR 073
ENCODING 73
SWIDTH 720 0
DWIDTH 10 0
BBX 9 11 0 0
BITMAP
DD80
FF80
8080
8880
9880
8880
8880
8880
8880
8080
FF80
ENDCHAR
STARTCHAR 074
ENCODING 74
SWIDTH 648 0
DWIDTH 9 0
BBX 8 8 0 0
BITMAP
F9
04
F2
09
E5
15
D5
D5
ENDCHAR
STARTCHAR 075
ENCODING 75
SWIDTH 648 0
DWIDTH 9 0
BBX 0 0 0 0
BITMAP
ENDCHAR
ENDFONT
