M48
METRIC,LZ,000.000
;FILE_FORMAT=3:3
;TYPE=PLATED
;Layer: PTH_Through
;EasyEDA v6.5.22, 2022-11-23 20:28:05
;1b795e41dea74cadab935cb614b484a7,db865e68f4bc4fd99aa1dd1697a786d6,10
;Gerber Generator version 0.2
;Holesize 1 = 0.762 mm
T01C0.762
;Holesize 2 = 0.800 mm
T02C0.800
;Holesize 3 = 0.915 mm
T03C0.915
;Holesize 4 = 1.016 mm
T04C1.016
%
G05
G90
T01
X031623Y052578
X029083Y052578
T02
X029337Y084077
X029337Y081277
T03
X015875Y055118
X015875Y057658
X018415Y055118
X018415Y057658
X020955Y055118
X020955Y057658
X023495Y055118
X023495Y057658
T04
X008382Y060449G85X008382Y060455
X031242Y060449G85X031242Y060455
X008382Y062989G85X008382Y062995
X031242Y062989G85X031242Y062995
X008382Y065529G85X008382Y065535
X031242Y065529G85X031242Y065535
X008382Y068069G85X008382Y068075
X031242Y068069G85X031242Y068075
X008382Y070609G85X008382Y070615
X031242Y070609G85X031242Y070615
X008382Y073149G85X008382Y073155
X031242Y073149G85X031242Y073155
X008382Y075689G85X008382Y075695
X031242Y075689G85X031242Y075695
X008382Y078229G85X008382Y078235
X031242Y078229G85X031242Y078235
M30
