M48
METRIC,LZ,000.000
;FILE_FORMAT=3:3
;TYPE=PLATED
;Layer: PTH_Through
;EasyEDA v6.5.22, 2023-01-21 22:26:58
;134ed4c23c824edf92a7001f2c5d0f5b,db865e68f4bc4fd99aa1dd1697a786d6,10
;Gerber Generator version 0.2
;Holesize 1 = 0.800 mm
T01C0.800
;Holesize 2 = 1.016 mm
T02C1.016
;Holesize 3 = 1.200 mm
T03C1.200
%
G05
G90
T01
X030734Y055756
X030734Y052956
T02
X031112Y060071G85X031118Y060071
X031112Y062611G85X031118Y062611
X031112Y065151G85X031118Y065151
X031112Y067691G85X031118Y067691
X031112Y070231G85X031118Y070231
X031112Y072771G85X031118Y072771
X031112Y075311G85X031118Y075311
X031112Y077851G85X031118Y077851
X008258Y060071G85X008252Y060071
X008258Y062611G85X008252Y062611
X008258Y065151G85X008252Y065151
X008258Y067691G85X008252Y067691
X008258Y070231G85X008252Y070231
X008258Y072771G85X008252Y072771
X008258Y075311G85X008252Y075311
X008258Y077851G85X008252Y077851
X023886Y057247G85X023881Y057247
X023886Y054707G85X023881Y054707
X021346Y057247G85X021341Y057247
X021346Y054707G85X021341Y054707
X018806Y057247G85X018801Y057247
X018806Y054707G85X018801Y054707
X016266Y057247G85X016261Y057247
X016266Y054707G85X016261Y054707
T03
X015748Y063627
X018288Y063627
X020828Y063627
X023368Y063627
M30
