G04 Layer: TopLayer*
G04 EasyEDA v6.5.22, 2022-11-23 20:28:05*
G04 1b795e41dea74cadab935cb614b484a7,db865e68f4bc4fd99aa1dd1697a786d6,10*
G04 Gerber Generator version 0.2*
G04 Scale: 100 percent, Rotated: No, Reflected: No *
G04 Dimensions in millimeters *
G04 leading zeros omitted , absolute positions ,4 integer and 5 decimal *
%FSLAX45Y45*%
%MOMM*%

%ADD10C,0.2540*%
%ADD11R,1.6510X1.6510*%
%ADD12C,1.6510*%
%ADD13C,1.8001*%
%ADD14C,1.2000*%
%ADD15C,1.5240*%
%ADD16C,0.0156*%

%LPD*%
G36*
X658368Y5105908D02*
G01*
X654456Y5106670D01*
X651205Y5108905D01*
X648970Y5112156D01*
X648208Y5116068D01*
X648208Y8599932D01*
X648970Y8603843D01*
X651205Y8607094D01*
X654456Y8609330D01*
X658368Y8610092D01*
X3304032Y8610092D01*
X3307943Y8609330D01*
X3311194Y8607094D01*
X3313429Y8603843D01*
X3314192Y8599932D01*
X3314192Y5116068D01*
X3313429Y5112156D01*
X3311194Y5108905D01*
X3307943Y5106670D01*
X3304032Y5105908D01*
G37*

%LPC*%
G36*
X3080308Y5149342D02*
G01*
X3114700Y5149342D01*
X3114700Y5210149D01*
X3053842Y5210149D01*
X3053842Y5175808D01*
X3054553Y5169509D01*
X3056483Y5164023D01*
X3059531Y5159146D01*
X3063646Y5155031D01*
X3068523Y5151983D01*
X3074009Y5150053D01*
G37*
G36*
X3209950Y5149342D02*
G01*
X3244291Y5149342D01*
X3250590Y5150053D01*
X3256076Y5151983D01*
X3260953Y5155031D01*
X3265068Y5159146D01*
X3268116Y5164023D01*
X3270046Y5169509D01*
X3270758Y5175808D01*
X3270758Y5210149D01*
X3209950Y5210149D01*
G37*
G36*
X2908300Y5149342D02*
G01*
X2922473Y5150307D01*
X2936341Y5153050D01*
X2949803Y5157622D01*
X2962503Y5163870D01*
X2974289Y5171795D01*
X2984957Y5181142D01*
X2994304Y5191810D01*
X3002229Y5203596D01*
X3008477Y5216296D01*
X3013049Y5229758D01*
X3015792Y5243626D01*
X3016758Y5257800D01*
X3015792Y5271973D01*
X3013049Y5285841D01*
X3008477Y5299303D01*
X3002229Y5312003D01*
X2994304Y5323789D01*
X2984957Y5334457D01*
X2974289Y5343804D01*
X2962503Y5351729D01*
X2952597Y5356606D01*
X2949600Y5358841D01*
X2947619Y5362041D01*
X2946908Y5365699D01*
X2946908Y7587081D01*
X2947670Y7590993D01*
X2949905Y7594295D01*
X3069336Y7713776D01*
X3072790Y7716012D01*
X3076854Y7716723D01*
X3081528Y7715453D01*
X3095396Y7710931D01*
X3109671Y7708239D01*
X3124200Y7707325D01*
X3138728Y7708239D01*
X3153003Y7710931D01*
X3166872Y7715453D01*
X3180029Y7721650D01*
X3192322Y7729423D01*
X3203549Y7738719D01*
X3213506Y7749336D01*
X3222040Y7761122D01*
X3229051Y7773873D01*
X3234436Y7787386D01*
X3238042Y7801508D01*
X3239871Y7815935D01*
X3239871Y7830464D01*
X3238042Y7844891D01*
X3234436Y7859014D01*
X3229051Y7872526D01*
X3222040Y7885277D01*
X3213506Y7897063D01*
X3203549Y7907680D01*
X3192322Y7916976D01*
X3180029Y7924749D01*
X3166872Y7930946D01*
X3153003Y7935468D01*
X3138728Y7938160D01*
X3124200Y7939074D01*
X3109671Y7938160D01*
X3095396Y7935468D01*
X3081528Y7930946D01*
X3068370Y7924749D01*
X3056077Y7916976D01*
X3044850Y7907680D01*
X3034893Y7897063D01*
X3026359Y7885277D01*
X3019348Y7872526D01*
X3013964Y7859014D01*
X3010357Y7844891D01*
X3008528Y7830464D01*
X3008528Y7815935D01*
X3010357Y7801508D01*
X3013964Y7787386D01*
X3017164Y7779410D01*
X3017875Y7775549D01*
X3017062Y7771739D01*
X3014878Y7768488D01*
X2881376Y7634935D01*
X2876245Y7628737D01*
X2872689Y7622031D01*
X2870504Y7614818D01*
X2869692Y7606792D01*
X2869692Y5365699D01*
X2868980Y5362041D01*
X2866999Y5358841D01*
X2864002Y5356606D01*
X2854096Y5351729D01*
X2842310Y5343804D01*
X2831642Y5334457D01*
X2822295Y5323789D01*
X2814370Y5312003D01*
X2808122Y5299303D01*
X2803550Y5285841D01*
X2800807Y5271973D01*
X2799842Y5257800D01*
X2800807Y5243626D01*
X2803550Y5229758D01*
X2808122Y5216296D01*
X2814370Y5203596D01*
X2822295Y5191810D01*
X2831642Y5181142D01*
X2842310Y5171795D01*
X2854096Y5163870D01*
X2866796Y5157622D01*
X2880258Y5153050D01*
X2894126Y5150307D01*
G37*
G36*
X3053842Y5305399D02*
G01*
X3114700Y5305399D01*
X3114700Y5366258D01*
X3080308Y5366258D01*
X3074009Y5365546D01*
X3068523Y5363616D01*
X3063646Y5360568D01*
X3059531Y5356453D01*
X3056483Y5351576D01*
X3054553Y5346090D01*
X3053842Y5339791D01*
G37*
G36*
X3209950Y5305399D02*
G01*
X3270758Y5305399D01*
X3270758Y5339791D01*
X3270046Y5346090D01*
X3268116Y5351576D01*
X3265068Y5356453D01*
X3260953Y5360568D01*
X3256076Y5363616D01*
X3250590Y5365546D01*
X3244291Y5366258D01*
X3209950Y5366258D01*
G37*
G36*
X2342692Y5409946D02*
G01*
X2356307Y5409946D01*
X2369820Y5411774D01*
X2382977Y5415381D01*
X2395524Y5420664D01*
X2407259Y5427624D01*
X2417978Y5436108D01*
X2427478Y5445912D01*
X2435555Y5456885D01*
X2442108Y5468823D01*
X2446985Y5481574D01*
X2450185Y5494832D01*
X2451506Y5508396D01*
X2451049Y5522010D01*
X2448814Y5535472D01*
X2444750Y5548477D01*
X2439009Y5560872D01*
X2431694Y5572353D01*
X2422906Y5582767D01*
X2412746Y5591911D01*
X2401519Y5599633D01*
X2389378Y5605780D01*
X2376474Y5610250D01*
X2363114Y5612993D01*
X2349500Y5613908D01*
X2335885Y5612993D01*
X2322525Y5610250D01*
X2309622Y5605780D01*
X2297480Y5599633D01*
X2286254Y5591911D01*
X2276094Y5582767D01*
X2267305Y5572353D01*
X2259990Y5560872D01*
X2254250Y5548477D01*
X2250186Y5535472D01*
X2247950Y5522010D01*
X2247493Y5508396D01*
X2248814Y5494832D01*
X2252014Y5481574D01*
X2256891Y5468823D01*
X2263444Y5456885D01*
X2271522Y5445912D01*
X2281021Y5436108D01*
X2291740Y5427624D01*
X2303475Y5420664D01*
X2316022Y5415381D01*
X2329180Y5411774D01*
G37*
G36*
X1834692Y5409946D02*
G01*
X1848307Y5409946D01*
X1861820Y5411774D01*
X1874977Y5415381D01*
X1887524Y5420664D01*
X1899259Y5427624D01*
X1909978Y5436108D01*
X1919478Y5445912D01*
X1927555Y5456885D01*
X1934108Y5468823D01*
X1938985Y5481574D01*
X1942185Y5494832D01*
X1943506Y5508396D01*
X1943049Y5522010D01*
X1940814Y5535472D01*
X1936750Y5548477D01*
X1931009Y5560872D01*
X1923694Y5572353D01*
X1914906Y5582767D01*
X1904746Y5591911D01*
X1893519Y5599633D01*
X1881378Y5605780D01*
X1868474Y5610250D01*
X1855114Y5612993D01*
X1841500Y5613908D01*
X1827885Y5612993D01*
X1814525Y5610250D01*
X1801622Y5605780D01*
X1789480Y5599633D01*
X1778254Y5591911D01*
X1768093Y5582767D01*
X1759305Y5572353D01*
X1751990Y5560872D01*
X1746250Y5548477D01*
X1742186Y5535472D01*
X1739950Y5522010D01*
X1739493Y5508396D01*
X1740814Y5494832D01*
X1744014Y5481574D01*
X1748891Y5468823D01*
X1755444Y5456885D01*
X1763522Y5445912D01*
X1773021Y5436108D01*
X1783740Y5427624D01*
X1795475Y5420664D01*
X1808022Y5415381D01*
X1821180Y5411774D01*
G37*
G36*
X2088692Y5409946D02*
G01*
X2102307Y5409946D01*
X2115820Y5411774D01*
X2128977Y5415381D01*
X2141524Y5420664D01*
X2153259Y5427624D01*
X2163978Y5436108D01*
X2173478Y5445912D01*
X2181555Y5456885D01*
X2188108Y5468823D01*
X2192985Y5481574D01*
X2196185Y5494832D01*
X2197506Y5508396D01*
X2197049Y5522010D01*
X2194814Y5535472D01*
X2191664Y5545683D01*
X2191207Y5549290D01*
X2192070Y5552846D01*
X2194153Y5555843D01*
X2249424Y5611164D01*
X2254554Y5617362D01*
X2258110Y5624068D01*
X2260295Y5631281D01*
X2261108Y5639308D01*
X2261108Y5685536D01*
X2261870Y5689498D01*
X2264105Y5692800D01*
X2267458Y5694984D01*
X2271369Y5695696D01*
X2275281Y5694883D01*
X2278583Y5692648D01*
X2281021Y5690108D01*
X2291740Y5681624D01*
X2303475Y5674664D01*
X2316022Y5669381D01*
X2329180Y5665774D01*
X2342692Y5663946D01*
X2356307Y5663946D01*
X2369820Y5665774D01*
X2382977Y5669381D01*
X2395524Y5674664D01*
X2407259Y5681624D01*
X2417978Y5690108D01*
X2427478Y5699912D01*
X2435555Y5710885D01*
X2442108Y5722823D01*
X2446985Y5735574D01*
X2450185Y5748832D01*
X2451506Y5762396D01*
X2451049Y5776010D01*
X2448814Y5789472D01*
X2444750Y5802477D01*
X2439009Y5814872D01*
X2431694Y5826353D01*
X2422906Y5836767D01*
X2412746Y5845911D01*
X2401519Y5853633D01*
X2389378Y5859780D01*
X2376474Y5864250D01*
X2363114Y5866993D01*
X2349500Y5867908D01*
X2335885Y5866993D01*
X2322525Y5864250D01*
X2309622Y5859780D01*
X2297480Y5853633D01*
X2286254Y5845911D01*
X2276144Y5836767D01*
X2266797Y5825744D01*
X2263292Y5823051D01*
X2258974Y5822137D01*
X2254656Y5823102D01*
X2251202Y5825845D01*
X2249424Y5827928D01*
X989228Y7088124D01*
X983030Y7093254D01*
X976325Y7096810D01*
X969111Y7098995D01*
X961085Y7099808D01*
X954227Y7099808D01*
X950264Y7100620D01*
X946962Y7102856D01*
X944778Y7106208D01*
X943051Y7110526D01*
X936040Y7123277D01*
X927506Y7135063D01*
X917549Y7145680D01*
X906322Y7154976D01*
X894029Y7162749D01*
X880871Y7168946D01*
X867003Y7173468D01*
X852728Y7176160D01*
X838200Y7177074D01*
X823671Y7176160D01*
X809396Y7173468D01*
X795528Y7168946D01*
X782370Y7162749D01*
X770077Y7154976D01*
X758850Y7145680D01*
X748893Y7135063D01*
X740359Y7123277D01*
X733348Y7110526D01*
X727964Y7097014D01*
X724357Y7082891D01*
X722528Y7068464D01*
X722528Y7053935D01*
X724357Y7039508D01*
X727964Y7025386D01*
X733348Y7011873D01*
X740359Y6999122D01*
X748893Y6987336D01*
X758850Y6976719D01*
X770077Y6967423D01*
X782370Y6959650D01*
X795528Y6953453D01*
X809396Y6948931D01*
X823671Y6946239D01*
X838200Y6945325D01*
X852728Y6946239D01*
X867003Y6948931D01*
X880871Y6953453D01*
X894029Y6959650D01*
X906322Y6967423D01*
X917549Y6976719D01*
X927506Y6987336D01*
X936040Y6999122D01*
X941273Y7008571D01*
X943610Y7011466D01*
X946912Y7013295D01*
X950620Y7013803D01*
X954227Y7012990D01*
X957326Y7010857D01*
X2084578Y5883605D01*
X2086914Y5879947D01*
X2087524Y5875629D01*
X2086254Y5871464D01*
X2083409Y5868212D01*
X2079396Y5866485D01*
X2068525Y5864250D01*
X2062022Y5862015D01*
X2058263Y5861456D01*
X2054606Y5862269D01*
X2051507Y5864402D01*
X1335735Y6580124D01*
X1329537Y6585254D01*
X1322832Y6588810D01*
X1315618Y6590995D01*
X1307592Y6591808D01*
X954227Y6591808D01*
X950264Y6592620D01*
X946962Y6594856D01*
X944778Y6598208D01*
X943051Y6602526D01*
X936040Y6615277D01*
X927506Y6627063D01*
X917549Y6637680D01*
X906322Y6646976D01*
X894029Y6654749D01*
X880871Y6660946D01*
X867003Y6665468D01*
X852728Y6668160D01*
X838200Y6669074D01*
X823671Y6668160D01*
X809396Y6665468D01*
X795528Y6660946D01*
X782370Y6654749D01*
X770077Y6646976D01*
X758850Y6637680D01*
X748893Y6627063D01*
X740359Y6615277D01*
X733348Y6602526D01*
X727964Y6589014D01*
X724357Y6574891D01*
X722528Y6560464D01*
X722528Y6545935D01*
X724357Y6531508D01*
X727964Y6517385D01*
X733348Y6503873D01*
X740359Y6491122D01*
X748893Y6479336D01*
X758850Y6468719D01*
X770077Y6459423D01*
X782370Y6451650D01*
X795528Y6445453D01*
X809396Y6440932D01*
X823671Y6438239D01*
X838200Y6437325D01*
X852728Y6438239D01*
X867003Y6440932D01*
X880871Y6445453D01*
X894029Y6451650D01*
X906322Y6459423D01*
X917549Y6468719D01*
X927506Y6479336D01*
X936040Y6491122D01*
X943051Y6503873D01*
X944778Y6508191D01*
X946962Y6511544D01*
X950264Y6513779D01*
X954227Y6514592D01*
X1287881Y6514592D01*
X1291793Y6513830D01*
X1295095Y6511594D01*
X1996846Y5809843D01*
X1998929Y5806846D01*
X1999792Y5803290D01*
X1999335Y5799683D01*
X1996186Y5789472D01*
X1993950Y5776010D01*
X1993493Y5762396D01*
X1994814Y5748832D01*
X1998014Y5735574D01*
X2002891Y5722823D01*
X2009444Y5710885D01*
X2017522Y5699912D01*
X2027021Y5690108D01*
X2037740Y5681624D01*
X2049475Y5674664D01*
X2062022Y5669381D01*
X2075180Y5665774D01*
X2088692Y5663946D01*
X2102307Y5663946D01*
X2115820Y5665774D01*
X2128977Y5669381D01*
X2141524Y5674664D01*
X2153259Y5681624D01*
X2163978Y5690108D01*
X2166416Y5692648D01*
X2169718Y5694883D01*
X2173630Y5695696D01*
X2177542Y5694984D01*
X2180894Y5692800D01*
X2183130Y5689498D01*
X2183892Y5685536D01*
X2183892Y5659018D01*
X2183130Y5655106D01*
X2180894Y5651804D01*
X2139492Y5610402D01*
X2136394Y5608269D01*
X2132736Y5607456D01*
X2128977Y5608015D01*
X2122474Y5610250D01*
X2109114Y5612993D01*
X2095500Y5613908D01*
X2081885Y5612993D01*
X2068525Y5610250D01*
X2055622Y5605780D01*
X2043480Y5599633D01*
X2032254Y5591911D01*
X2022093Y5582767D01*
X2013305Y5572353D01*
X2005990Y5560872D01*
X2000250Y5548477D01*
X1996186Y5535472D01*
X1993950Y5522010D01*
X1993493Y5508396D01*
X1994814Y5494832D01*
X1998014Y5481574D01*
X2002891Y5468823D01*
X2009444Y5456885D01*
X2017522Y5445912D01*
X2027021Y5436108D01*
X2037740Y5427624D01*
X2049475Y5420664D01*
X2062022Y5415381D01*
X2075180Y5411774D01*
G37*
G36*
X1543050Y5420004D02*
G01*
X1543050Y5467350D01*
X1495704Y5467350D01*
X1501444Y5456885D01*
X1509522Y5445912D01*
X1519021Y5436108D01*
X1529740Y5427624D01*
X1541475Y5420664D01*
G37*
G36*
X1631950Y5420004D02*
G01*
X1633524Y5420664D01*
X1645259Y5427624D01*
X1655978Y5436108D01*
X1665478Y5445912D01*
X1673555Y5456885D01*
X1679295Y5467350D01*
X1631950Y5467350D01*
G37*
G36*
X1631950Y5556250D02*
G01*
X1679143Y5556250D01*
X1677009Y5560872D01*
X1669694Y5572353D01*
X1660906Y5582767D01*
X1650746Y5591911D01*
X1639519Y5599633D01*
X1631950Y5603443D01*
G37*
G36*
X1495856Y5556250D02*
G01*
X1543050Y5556250D01*
X1543050Y5603443D01*
X1535480Y5599633D01*
X1524254Y5591911D01*
X1514094Y5582767D01*
X1505305Y5572353D01*
X1497990Y5560872D01*
G37*
G36*
X1580692Y5663946D02*
G01*
X1594307Y5663946D01*
X1607820Y5665774D01*
X1620977Y5669381D01*
X1633524Y5674664D01*
X1645259Y5681624D01*
X1655978Y5690108D01*
X1665478Y5699912D01*
X1673555Y5710885D01*
X1680108Y5722823D01*
X1684985Y5735574D01*
X1688185Y5748832D01*
X1689506Y5762396D01*
X1689049Y5776010D01*
X1686814Y5789472D01*
X1682750Y5802477D01*
X1677009Y5814872D01*
X1669694Y5826353D01*
X1660906Y5836767D01*
X1650746Y5845911D01*
X1639519Y5853633D01*
X1627378Y5859780D01*
X1614474Y5864250D01*
X1601114Y5866993D01*
X1587500Y5867908D01*
X1573885Y5866993D01*
X1560525Y5864250D01*
X1547622Y5859780D01*
X1535480Y5853633D01*
X1524254Y5845911D01*
X1514094Y5836767D01*
X1505305Y5826353D01*
X1497990Y5814872D01*
X1495856Y5810300D01*
X1493621Y5807202D01*
X1490421Y5805119D01*
X1486662Y5804408D01*
X1137818Y5804408D01*
X1133906Y5805170D01*
X1130604Y5807405D01*
X947521Y5990488D01*
X945337Y5993739D01*
X944524Y5997549D01*
X945235Y6001410D01*
X948436Y6009386D01*
X952042Y6023508D01*
X953871Y6037935D01*
X953871Y6052464D01*
X952042Y6066891D01*
X948436Y6081014D01*
X943051Y6094526D01*
X936040Y6107277D01*
X927506Y6119063D01*
X917549Y6129680D01*
X906322Y6138976D01*
X894029Y6146749D01*
X880871Y6152946D01*
X867003Y6157468D01*
X852728Y6160160D01*
X838200Y6161074D01*
X823671Y6160160D01*
X809396Y6157468D01*
X795528Y6152946D01*
X782370Y6146749D01*
X770077Y6138976D01*
X758850Y6129680D01*
X748893Y6119063D01*
X740359Y6107277D01*
X733348Y6094526D01*
X727964Y6081014D01*
X724357Y6066891D01*
X722528Y6052464D01*
X722528Y6037935D01*
X724357Y6023508D01*
X727964Y6009386D01*
X733348Y5995873D01*
X740359Y5983122D01*
X748893Y5971336D01*
X758850Y5960719D01*
X770077Y5951423D01*
X782370Y5943650D01*
X795528Y5937453D01*
X809396Y5932932D01*
X823671Y5930239D01*
X838200Y5929325D01*
X852728Y5930239D01*
X867003Y5932932D01*
X880871Y5937453D01*
X885545Y5938723D01*
X889609Y5938012D01*
X893064Y5935776D01*
X1089964Y5738876D01*
X1096162Y5733745D01*
X1102868Y5730189D01*
X1110081Y5728004D01*
X1118108Y5727192D01*
X1486509Y5727192D01*
X1490014Y5726531D01*
X1493113Y5724702D01*
X1495399Y5721908D01*
X1501444Y5710885D01*
X1509522Y5699912D01*
X1519021Y5690108D01*
X1529740Y5681624D01*
X1541475Y5674664D01*
X1554022Y5669381D01*
X1567180Y5665774D01*
G37*
G36*
X1834692Y5663946D02*
G01*
X1848307Y5663946D01*
X1861820Y5665774D01*
X1874977Y5669381D01*
X1887524Y5674664D01*
X1899259Y5681624D01*
X1909978Y5690108D01*
X1919478Y5699912D01*
X1927555Y5710885D01*
X1934108Y5722823D01*
X1938985Y5735574D01*
X1942185Y5748832D01*
X1943506Y5762396D01*
X1943049Y5776010D01*
X1940814Y5789472D01*
X1936750Y5802477D01*
X1931009Y5814872D01*
X1923694Y5826353D01*
X1914906Y5836767D01*
X1904746Y5845911D01*
X1893519Y5853633D01*
X1881378Y5859780D01*
X1868474Y5864250D01*
X1855114Y5866993D01*
X1841500Y5867908D01*
X1827885Y5866993D01*
X1814525Y5864250D01*
X1808022Y5862015D01*
X1804263Y5861456D01*
X1800606Y5862269D01*
X1797507Y5864402D01*
X1335735Y6326124D01*
X1329537Y6331254D01*
X1322832Y6334810D01*
X1315618Y6336995D01*
X1307592Y6337808D01*
X954227Y6337808D01*
X950264Y6338620D01*
X946962Y6340856D01*
X944778Y6344208D01*
X943051Y6348526D01*
X936040Y6361277D01*
X927506Y6373063D01*
X917549Y6383680D01*
X906322Y6392976D01*
X894029Y6400749D01*
X880871Y6406946D01*
X867003Y6411468D01*
X852728Y6414160D01*
X838200Y6415074D01*
X823671Y6414160D01*
X809396Y6411468D01*
X795528Y6406946D01*
X782370Y6400749D01*
X770077Y6392976D01*
X758850Y6383680D01*
X748893Y6373063D01*
X740359Y6361277D01*
X733348Y6348526D01*
X727964Y6335014D01*
X724357Y6320891D01*
X722528Y6306464D01*
X722528Y6291935D01*
X724357Y6277508D01*
X727964Y6263386D01*
X733348Y6249873D01*
X740359Y6237122D01*
X748893Y6225336D01*
X758850Y6214719D01*
X770077Y6205423D01*
X782370Y6197650D01*
X795528Y6191453D01*
X809396Y6186932D01*
X823671Y6184239D01*
X838200Y6183325D01*
X852728Y6184239D01*
X867003Y6186932D01*
X880871Y6191453D01*
X894029Y6197650D01*
X906322Y6205423D01*
X917549Y6214719D01*
X927506Y6225336D01*
X936040Y6237122D01*
X943051Y6249873D01*
X944778Y6254191D01*
X946962Y6257544D01*
X950264Y6259779D01*
X954227Y6260592D01*
X1287881Y6260592D01*
X1291793Y6259830D01*
X1295095Y6257594D01*
X1742846Y5809843D01*
X1744929Y5806846D01*
X1745792Y5803290D01*
X1745335Y5799683D01*
X1742186Y5789472D01*
X1739950Y5776010D01*
X1739493Y5762396D01*
X1740814Y5748832D01*
X1744014Y5735574D01*
X1748891Y5722823D01*
X1755444Y5710885D01*
X1763522Y5699912D01*
X1773021Y5690108D01*
X1783740Y5681624D01*
X1795475Y5674664D01*
X1808022Y5669381D01*
X1821180Y5665774D01*
G37*
G36*
X3124200Y5929325D02*
G01*
X3138728Y5930239D01*
X3153003Y5932932D01*
X3166872Y5937453D01*
X3180029Y5943650D01*
X3192322Y5951423D01*
X3203549Y5960719D01*
X3213506Y5971336D01*
X3222040Y5983122D01*
X3229051Y5995873D01*
X3234436Y6009386D01*
X3238042Y6023508D01*
X3239871Y6037935D01*
X3239871Y6052464D01*
X3238042Y6066891D01*
X3234436Y6081014D01*
X3229051Y6094526D01*
X3222040Y6107277D01*
X3213506Y6119063D01*
X3203549Y6129680D01*
X3192322Y6138976D01*
X3180029Y6146749D01*
X3166872Y6152946D01*
X3153003Y6157468D01*
X3138728Y6160160D01*
X3124200Y6161074D01*
X3109671Y6160160D01*
X3095396Y6157468D01*
X3081528Y6152946D01*
X3068370Y6146749D01*
X3056077Y6138976D01*
X3044850Y6129680D01*
X3034893Y6119063D01*
X3026359Y6107277D01*
X3019348Y6094526D01*
X3013964Y6081014D01*
X3010357Y6066891D01*
X3008528Y6052464D01*
X3008528Y6037935D01*
X3010357Y6023508D01*
X3013964Y6009386D01*
X3019348Y5995873D01*
X3026359Y5983122D01*
X3034893Y5971336D01*
X3044850Y5960719D01*
X3056077Y5951423D01*
X3068370Y5943650D01*
X3081528Y5937453D01*
X3095396Y5932932D01*
X3109671Y5930239D01*
G37*
G36*
X3124200Y6183325D02*
G01*
X3138728Y6184239D01*
X3153003Y6186932D01*
X3166872Y6191453D01*
X3180029Y6197650D01*
X3192322Y6205423D01*
X3203549Y6214719D01*
X3213506Y6225336D01*
X3222040Y6237122D01*
X3229051Y6249873D01*
X3234436Y6263386D01*
X3238042Y6277508D01*
X3239871Y6291935D01*
X3239871Y6306464D01*
X3238042Y6320891D01*
X3234436Y6335014D01*
X3229051Y6348526D01*
X3222040Y6361277D01*
X3213506Y6373063D01*
X3203549Y6383680D01*
X3192322Y6392976D01*
X3180029Y6400749D01*
X3166872Y6406946D01*
X3153003Y6411468D01*
X3138728Y6414160D01*
X3124200Y6415074D01*
X3109671Y6414160D01*
X3095396Y6411468D01*
X3081528Y6406946D01*
X3068370Y6400749D01*
X3056077Y6392976D01*
X3044850Y6383680D01*
X3034893Y6373063D01*
X3026359Y6361277D01*
X3019348Y6348526D01*
X3013964Y6335014D01*
X3010357Y6320891D01*
X3008528Y6306464D01*
X3008528Y6291935D01*
X3010357Y6277508D01*
X3013964Y6263386D01*
X3019348Y6249873D01*
X3026359Y6237122D01*
X3034893Y6225336D01*
X3044850Y6214719D01*
X3056077Y6205423D01*
X3068370Y6197650D01*
X3081528Y6191453D01*
X3095396Y6186932D01*
X3109671Y6184239D01*
G37*
G36*
X3124200Y6437325D02*
G01*
X3138728Y6438239D01*
X3153003Y6440932D01*
X3166872Y6445453D01*
X3180029Y6451650D01*
X3192322Y6459423D01*
X3203549Y6468719D01*
X3213506Y6479336D01*
X3222040Y6491122D01*
X3229051Y6503873D01*
X3234436Y6517385D01*
X3238042Y6531508D01*
X3239871Y6545935D01*
X3239871Y6560464D01*
X3238042Y6574891D01*
X3234436Y6589014D01*
X3229051Y6602526D01*
X3222040Y6615277D01*
X3213506Y6627063D01*
X3203549Y6637680D01*
X3192322Y6646976D01*
X3180029Y6654749D01*
X3166872Y6660946D01*
X3153003Y6665468D01*
X3138728Y6668160D01*
X3124200Y6669074D01*
X3109671Y6668160D01*
X3095396Y6665468D01*
X3081528Y6660946D01*
X3068370Y6654749D01*
X3056077Y6646976D01*
X3044850Y6637680D01*
X3034893Y6627063D01*
X3026359Y6615277D01*
X3019348Y6602526D01*
X3013964Y6589014D01*
X3010357Y6574891D01*
X3008528Y6560464D01*
X3008528Y6545935D01*
X3010357Y6531508D01*
X3013964Y6517385D01*
X3019348Y6503873D01*
X3026359Y6491122D01*
X3034893Y6479336D01*
X3044850Y6468719D01*
X3056077Y6459423D01*
X3068370Y6451650D01*
X3081528Y6445453D01*
X3095396Y6440932D01*
X3109671Y6438239D01*
G37*
G36*
X838200Y6691325D02*
G01*
X852728Y6692239D01*
X867003Y6694931D01*
X880871Y6699453D01*
X894029Y6705650D01*
X906322Y6713423D01*
X917549Y6722719D01*
X927506Y6733336D01*
X936040Y6745122D01*
X943051Y6757873D01*
X948436Y6771386D01*
X952042Y6785508D01*
X953871Y6799935D01*
X953871Y6814464D01*
X952042Y6828891D01*
X948436Y6843014D01*
X943051Y6856526D01*
X936040Y6869277D01*
X927506Y6881063D01*
X917549Y6891680D01*
X906322Y6900976D01*
X894029Y6908749D01*
X880871Y6914946D01*
X867003Y6919468D01*
X852728Y6922160D01*
X838200Y6923074D01*
X823671Y6922160D01*
X809396Y6919468D01*
X795528Y6914946D01*
X782370Y6908749D01*
X770077Y6900976D01*
X758850Y6891680D01*
X748893Y6881063D01*
X740359Y6869277D01*
X733348Y6856526D01*
X727964Y6843014D01*
X724357Y6828891D01*
X722528Y6814464D01*
X722528Y6799935D01*
X724357Y6785508D01*
X727964Y6771386D01*
X733348Y6757873D01*
X740359Y6745122D01*
X748893Y6733336D01*
X758850Y6722719D01*
X770077Y6713423D01*
X782370Y6705650D01*
X795528Y6699453D01*
X809396Y6694931D01*
X823671Y6692239D01*
G37*
G36*
X3124200Y6691325D02*
G01*
X3138728Y6692239D01*
X3153003Y6694931D01*
X3166872Y6699453D01*
X3180029Y6705650D01*
X3192322Y6713423D01*
X3203549Y6722719D01*
X3213506Y6733336D01*
X3222040Y6745122D01*
X3229051Y6757873D01*
X3234436Y6771386D01*
X3238042Y6785508D01*
X3239871Y6799935D01*
X3239871Y6814464D01*
X3238042Y6828891D01*
X3234436Y6843014D01*
X3229051Y6856526D01*
X3222040Y6869277D01*
X3213506Y6881063D01*
X3203549Y6891680D01*
X3192322Y6900976D01*
X3180029Y6908749D01*
X3166872Y6914946D01*
X3153003Y6919468D01*
X3138728Y6922160D01*
X3124200Y6923074D01*
X3109671Y6922160D01*
X3095396Y6919468D01*
X3081528Y6914946D01*
X3068370Y6908749D01*
X3056077Y6900976D01*
X3044850Y6891680D01*
X3034893Y6881063D01*
X3026359Y6869277D01*
X3019348Y6856526D01*
X3013964Y6843014D01*
X3010357Y6828891D01*
X3008528Y6814464D01*
X3008528Y6799935D01*
X3010357Y6785508D01*
X3013964Y6771386D01*
X3019348Y6757873D01*
X3026359Y6745122D01*
X3034893Y6733336D01*
X3044850Y6722719D01*
X3056077Y6713423D01*
X3068370Y6705650D01*
X3081528Y6699453D01*
X3095396Y6694931D01*
X3109671Y6692239D01*
G37*
G36*
X3124200Y6945325D02*
G01*
X3138728Y6946239D01*
X3153003Y6948931D01*
X3166872Y6953453D01*
X3180029Y6959650D01*
X3192322Y6967423D01*
X3203549Y6976719D01*
X3213506Y6987336D01*
X3222040Y6999122D01*
X3229051Y7011873D01*
X3234436Y7025386D01*
X3238042Y7039508D01*
X3239871Y7053935D01*
X3239871Y7068464D01*
X3238042Y7082891D01*
X3234436Y7097014D01*
X3229051Y7110526D01*
X3222040Y7123277D01*
X3213506Y7135063D01*
X3203549Y7145680D01*
X3192322Y7154976D01*
X3180029Y7162749D01*
X3166872Y7168946D01*
X3153003Y7173468D01*
X3138728Y7176160D01*
X3124200Y7177074D01*
X3109671Y7176160D01*
X3095396Y7173468D01*
X3081528Y7168946D01*
X3068370Y7162749D01*
X3056077Y7154976D01*
X3044850Y7145680D01*
X3034893Y7135063D01*
X3026359Y7123277D01*
X3019348Y7110526D01*
X3013964Y7097014D01*
X3010357Y7082891D01*
X3008528Y7068464D01*
X3008528Y7053935D01*
X3010357Y7039508D01*
X3013964Y7025386D01*
X3019348Y7011873D01*
X3026359Y6999122D01*
X3034893Y6987336D01*
X3044850Y6976719D01*
X3056077Y6967423D01*
X3068370Y6959650D01*
X3081528Y6953453D01*
X3095396Y6948931D01*
X3109671Y6946239D01*
G37*
G36*
X838200Y7199325D02*
G01*
X852728Y7200239D01*
X867003Y7202931D01*
X880871Y7207453D01*
X894029Y7213650D01*
X906322Y7221423D01*
X917549Y7230719D01*
X927506Y7241336D01*
X936040Y7253122D01*
X943051Y7265873D01*
X948436Y7279386D01*
X952042Y7293508D01*
X953871Y7307935D01*
X953871Y7322464D01*
X952042Y7336891D01*
X948436Y7351014D01*
X943051Y7364526D01*
X936040Y7377277D01*
X927506Y7389063D01*
X917549Y7399680D01*
X906322Y7408976D01*
X894029Y7416749D01*
X880871Y7422946D01*
X867003Y7427468D01*
X852728Y7430160D01*
X838200Y7431074D01*
X823671Y7430160D01*
X809396Y7427468D01*
X795528Y7422946D01*
X782370Y7416749D01*
X770077Y7408976D01*
X758850Y7399680D01*
X748893Y7389063D01*
X740359Y7377277D01*
X733348Y7364526D01*
X727964Y7351014D01*
X724357Y7336891D01*
X722528Y7322464D01*
X722528Y7307935D01*
X724357Y7293508D01*
X727964Y7279386D01*
X733348Y7265873D01*
X740359Y7253122D01*
X748893Y7241336D01*
X758850Y7230719D01*
X770077Y7221423D01*
X782370Y7213650D01*
X795528Y7207453D01*
X809396Y7202931D01*
X823671Y7200239D01*
G37*
G36*
X3124200Y7199325D02*
G01*
X3138728Y7200239D01*
X3153003Y7202931D01*
X3166872Y7207453D01*
X3180029Y7213650D01*
X3192322Y7221423D01*
X3203549Y7230719D01*
X3213506Y7241336D01*
X3222040Y7253122D01*
X3229051Y7265873D01*
X3234436Y7279386D01*
X3238042Y7293508D01*
X3239871Y7307935D01*
X3239871Y7322464D01*
X3238042Y7336891D01*
X3234436Y7351014D01*
X3229051Y7364526D01*
X3222040Y7377277D01*
X3213506Y7389063D01*
X3203549Y7399680D01*
X3192322Y7408976D01*
X3180029Y7416749D01*
X3166872Y7422946D01*
X3153003Y7427468D01*
X3138728Y7430160D01*
X3124200Y7431074D01*
X3109671Y7430160D01*
X3095396Y7427468D01*
X3081528Y7422946D01*
X3068370Y7416749D01*
X3056077Y7408976D01*
X3044850Y7399680D01*
X3034893Y7389063D01*
X3026359Y7377277D01*
X3019348Y7364526D01*
X3013964Y7351014D01*
X3010357Y7336891D01*
X3008528Y7322464D01*
X3008528Y7307935D01*
X3010357Y7293508D01*
X3013964Y7279386D01*
X3019348Y7265873D01*
X3026359Y7253122D01*
X3034893Y7241336D01*
X3044850Y7230719D01*
X3056077Y7221423D01*
X3068370Y7213650D01*
X3081528Y7207453D01*
X3095396Y7202931D01*
X3109671Y7200239D01*
G37*
G36*
X838200Y7453325D02*
G01*
X852728Y7454239D01*
X867003Y7456931D01*
X880871Y7461453D01*
X894029Y7467650D01*
X906322Y7475423D01*
X917549Y7484719D01*
X927506Y7495336D01*
X936040Y7507122D01*
X943051Y7519873D01*
X948436Y7533386D01*
X952042Y7547508D01*
X953871Y7561935D01*
X953871Y7576464D01*
X952042Y7590891D01*
X948436Y7605014D01*
X943051Y7618526D01*
X936040Y7631277D01*
X927506Y7643063D01*
X917549Y7653680D01*
X906322Y7662976D01*
X894029Y7670749D01*
X880871Y7676946D01*
X867003Y7681468D01*
X852728Y7684160D01*
X838200Y7685074D01*
X823671Y7684160D01*
X809396Y7681468D01*
X795528Y7676946D01*
X782370Y7670749D01*
X770077Y7662976D01*
X758850Y7653680D01*
X748893Y7643063D01*
X740359Y7631277D01*
X733348Y7618526D01*
X727964Y7605014D01*
X724357Y7590891D01*
X722528Y7576464D01*
X722528Y7561935D01*
X724357Y7547508D01*
X727964Y7533386D01*
X733348Y7519873D01*
X740359Y7507122D01*
X748893Y7495336D01*
X758850Y7484719D01*
X770077Y7475423D01*
X782370Y7467650D01*
X795528Y7461453D01*
X809396Y7456931D01*
X823671Y7454239D01*
G37*
G36*
X3072841Y7465517D02*
G01*
X3072841Y7517841D01*
X3020415Y7517841D01*
X3026359Y7507122D01*
X3034893Y7495336D01*
X3044850Y7484719D01*
X3056077Y7475423D01*
X3068370Y7467650D01*
G37*
G36*
X3175558Y7465517D02*
G01*
X3180029Y7467650D01*
X3192322Y7475423D01*
X3203549Y7484719D01*
X3213506Y7495336D01*
X3222040Y7507122D01*
X3227984Y7517841D01*
X3175558Y7517841D01*
G37*
G36*
X3020415Y7620558D02*
G01*
X3072841Y7620558D01*
X3072841Y7672882D01*
X3068370Y7670749D01*
X3056077Y7662976D01*
X3044850Y7653680D01*
X3034893Y7643063D01*
X3026359Y7631277D01*
G37*
G36*
X3175558Y7620558D02*
G01*
X3227984Y7620558D01*
X3222040Y7631277D01*
X3213506Y7643063D01*
X3203549Y7653680D01*
X3192322Y7662976D01*
X3180029Y7670749D01*
X3175558Y7672882D01*
G37*
G36*
X838200Y7707325D02*
G01*
X852728Y7708239D01*
X867003Y7710931D01*
X880871Y7715453D01*
X894029Y7721650D01*
X906322Y7729423D01*
X917549Y7738719D01*
X927506Y7749336D01*
X936040Y7761122D01*
X943051Y7773873D01*
X948436Y7787386D01*
X952042Y7801508D01*
X953871Y7815935D01*
X953871Y7830464D01*
X952042Y7844891D01*
X948436Y7859014D01*
X943051Y7872526D01*
X936040Y7885277D01*
X927506Y7897063D01*
X917549Y7907680D01*
X906322Y7916976D01*
X894029Y7924749D01*
X880871Y7930946D01*
X867003Y7935468D01*
X852728Y7938160D01*
X838200Y7939074D01*
X823671Y7938160D01*
X809396Y7935468D01*
X795528Y7930946D01*
X782370Y7924749D01*
X770077Y7916976D01*
X758850Y7907680D01*
X748893Y7897063D01*
X740359Y7885277D01*
X733348Y7872526D01*
X727964Y7859014D01*
X724357Y7844891D01*
X722528Y7830464D01*
X722528Y7815935D01*
X724357Y7801508D01*
X727964Y7787386D01*
X733348Y7773873D01*
X740359Y7761122D01*
X748893Y7749336D01*
X758850Y7738719D01*
X770077Y7729423D01*
X782370Y7721650D01*
X795528Y7715453D01*
X809396Y7710931D01*
X823671Y7708239D01*
G37*
G36*
X2933700Y8041843D02*
G01*
X2945942Y8042706D01*
X2957880Y8045297D01*
X2969361Y8049564D01*
X2980131Y8055457D01*
X2989935Y8062772D01*
X2998622Y8071459D01*
X3005937Y8081264D01*
X3011830Y8092033D01*
X3016097Y8103514D01*
X3018688Y8115503D01*
X3019602Y8127695D01*
X3018688Y8139938D01*
X3016097Y8151875D01*
X3011830Y8163356D01*
X3005937Y8174126D01*
X2998622Y8183930D01*
X2989935Y8192617D01*
X2980131Y8199932D01*
X2969361Y8205825D01*
X2957880Y8210092D01*
X2945942Y8212683D01*
X2933700Y8213598D01*
X2921457Y8212683D01*
X2909519Y8210092D01*
X2898038Y8205825D01*
X2887268Y8199932D01*
X2877464Y8192617D01*
X2868777Y8183930D01*
X2861462Y8174126D01*
X2855569Y8163356D01*
X2851302Y8151875D01*
X2848711Y8139938D01*
X2847797Y8127695D01*
X2848711Y8115503D01*
X2851302Y8103514D01*
X2855569Y8092033D01*
X2861462Y8081264D01*
X2868777Y8071459D01*
X2877464Y8062772D01*
X2887268Y8055457D01*
X2898038Y8049564D01*
X2909519Y8045297D01*
X2921457Y8042706D01*
G37*
G36*
X2970072Y8329930D02*
G01*
X2980131Y8335467D01*
X2989935Y8342782D01*
X2998622Y8351469D01*
X3005937Y8361273D01*
X3011474Y8371331D01*
X2970072Y8371331D01*
G37*
G36*
X2897327Y8329930D02*
G01*
X2897327Y8371331D01*
X2855925Y8371331D01*
X2861462Y8361273D01*
X2868777Y8351469D01*
X2877464Y8342782D01*
X2887268Y8335467D01*
G37*
G36*
X2855925Y8444026D02*
G01*
X2897327Y8444026D01*
X2897327Y8485428D01*
X2887268Y8479942D01*
X2877464Y8472627D01*
X2868777Y8463940D01*
X2861462Y8454136D01*
G37*
G36*
X2970072Y8444026D02*
G01*
X3011474Y8444026D01*
X3005937Y8454136D01*
X2998622Y8463940D01*
X2989935Y8472627D01*
X2980131Y8479942D01*
X2970072Y8485428D01*
G37*

%LPD*%
D10*
X2095500Y5511800D02*
G01*
X2222500Y5638800D01*
X2222500Y5800293D01*
X961593Y7061200D01*
X838200Y7061200D01*
X838200Y6299200D02*
G01*
X1308100Y6299200D01*
X1841500Y5765800D01*
X3124200Y7823200D02*
G01*
X2908300Y7607300D01*
X2908300Y5257800D01*
X2095500Y5765800D02*
G01*
X1308100Y6553200D01*
X838200Y6553200D01*
X1587500Y5765800D02*
G01*
X1117600Y5765800D01*
X838200Y6045200D01*
X2933700Y8407704D02*
G01*
X3256127Y8085277D01*
X3256127Y7701127D01*
X3124200Y7569200D01*
X3162300Y5257800D02*
G01*
X3162300Y5378069D01*
X3124200Y7569200D02*
G01*
X3254552Y7438847D01*
X3254552Y5470321D01*
X3162300Y5378069D01*
D11*
G01*
X3162300Y5257800D03*
D12*
G01*
X2908300Y5257800D03*
D13*
G01*
X838200Y6045200D03*
G01*
X3124200Y6045200D03*
G01*
X838200Y6299200D03*
G01*
X3124200Y6299200D03*
G01*
X838200Y6553200D03*
G01*
X3124200Y6553200D03*
G01*
X838200Y6807200D03*
G01*
X3124200Y6807200D03*
G01*
X838200Y7061200D03*
G01*
X3124200Y7061200D03*
G01*
X838200Y7315200D03*
G01*
X3124200Y7315200D03*
G01*
X838200Y7569200D03*
G01*
X3124200Y7569200D03*
G01*
X838200Y7823200D03*
G01*
X3124200Y7823200D03*
D14*
G01*
X2933700Y8407704D03*
G01*
X2933700Y8127695D03*
D15*
G01*
X1587500Y5511800D03*
G01*
X1587500Y5765800D03*
G01*
X1841500Y5511800D03*
G01*
X1841500Y5765800D03*
G01*
X2095500Y5511800D03*
G01*
X2095500Y5765800D03*
G01*
X2349500Y5511800D03*
G01*
X2349500Y5765800D03*
M02*
