G04 Layer: BottomSilkscreenLayer*
G04 EasyEDA v6.5.22, 2023-01-21 22:26:58*
G04 c6cdce557248458a9636279a13899d4b,db865e68f4bc4fd99aa1dd1697a786d6,10*
G04 Gerber Generator version 0.2*
G04 Scale: 100 percent, Rotated: No, Reflected: No *
G04 Dimensions in millimeters *
G04 leading zeros omitted , absolute positions ,4 integer and 5 decimal *
%FSLAX45Y45*%
%MOMM*%

%ADD10C,0.2032*%

%LPD*%
D10*
X709462Y5131490D02*
G01*
X673100Y5226946D01*
X709462Y5131490D02*
G01*
X745827Y5226946D01*
X686737Y5195128D02*
G01*
X732190Y5195128D01*
X775827Y5131490D02*
G01*
X775827Y5226946D01*
X839462Y5131490D02*
G01*
X839462Y5226946D01*
X775827Y5176946D02*
G01*
X839462Y5176946D01*
X896736Y5131490D02*
G01*
X887646Y5136037D01*
X878552Y5145128D01*
X874008Y5154218D01*
X869462Y5167853D01*
X869462Y5190581D01*
X874008Y5204218D01*
X878552Y5213309D01*
X887646Y5222400D01*
X896736Y5226946D01*
X914918Y5226946D01*
X924008Y5222400D01*
X933099Y5213309D01*
X937646Y5204218D01*
X942190Y5190581D01*
X942190Y5167853D01*
X937646Y5154218D01*
X933099Y5145128D01*
X924008Y5136037D01*
X914918Y5131490D01*
X896736Y5131490D01*
X972190Y5131490D02*
G01*
X1008552Y5176946D01*
X1008552Y5226946D01*
X1044917Y5131490D02*
G01*
X1008552Y5176946D01*
X1074917Y5186037D02*
G01*
X1156736Y5186037D01*
X1186736Y5131490D02*
G01*
X1186736Y5226946D01*
X1186736Y5131490D02*
G01*
X1218552Y5131490D01*
X1232189Y5136037D01*
X1241280Y5145128D01*
X1245826Y5154218D01*
X1250370Y5167853D01*
X1250370Y5190581D01*
X1245826Y5204218D01*
X1241280Y5213309D01*
X1232189Y5222400D01*
X1218552Y5226946D01*
X1186736Y5226946D01*
X1312189Y5131490D02*
G01*
X1312189Y5226946D01*
X1280370Y5131490D02*
G01*
X1344007Y5131490D01*
X1374007Y5131490D02*
G01*
X1374007Y5199672D01*
X1378551Y5213309D01*
X1387645Y5222400D01*
X1401279Y5226946D01*
X1410370Y5226946D01*
X1424007Y5222400D01*
X1433098Y5213309D01*
X1437645Y5199672D01*
X1437645Y5131490D01*
X1537644Y5131490D02*
G01*
X1560370Y5226946D01*
X1583098Y5131490D02*
G01*
X1560370Y5226946D01*
X1583098Y5131490D02*
G01*
X1605826Y5226946D01*
X1628551Y5131490D02*
G01*
X1605826Y5226946D01*
X1658551Y5190581D02*
G01*
X1713097Y5190581D01*
X1713097Y5181490D01*
X1708551Y5172400D01*
X1704007Y5167853D01*
X1694916Y5163309D01*
X1681279Y5163309D01*
X1672188Y5167853D01*
X1663098Y5176946D01*
X1658551Y5190581D01*
X1658551Y5199672D01*
X1663098Y5213309D01*
X1672188Y5222400D01*
X1681279Y5226946D01*
X1694916Y5226946D01*
X1704007Y5222400D01*
X1713097Y5213309D01*
X1743097Y5163309D02*
G01*
X1743097Y5226946D01*
X1743097Y5181490D02*
G01*
X1756735Y5167853D01*
X1765825Y5163309D01*
X1779460Y5163309D01*
X1788551Y5167853D01*
X1793097Y5181490D01*
X1793097Y5226946D01*
X1793097Y5181490D02*
G01*
X1806735Y5167853D01*
X1815825Y5163309D01*
X1829460Y5163309D01*
X1838551Y5167853D01*
X1843097Y5181490D01*
X1843097Y5226946D01*
X1895825Y5163309D02*
G01*
X1886734Y5167853D01*
X1877644Y5176946D01*
X1873097Y5190581D01*
X1873097Y5199672D01*
X1877644Y5213309D01*
X1886734Y5222400D01*
X1895825Y5226946D01*
X1909460Y5226946D01*
X1918550Y5222400D01*
X1927644Y5213309D01*
X1932188Y5199672D01*
X1932188Y5190581D01*
X1927644Y5176946D01*
X1918550Y5167853D01*
X1909460Y5163309D01*
X1895825Y5163309D01*
X2012188Y5176946D02*
G01*
X2007643Y5167853D01*
X1994006Y5163309D01*
X1980369Y5163309D01*
X1966734Y5167853D01*
X1962188Y5176946D01*
X1966734Y5186037D01*
X1975825Y5190581D01*
X1998550Y5195128D01*
X2007643Y5199672D01*
X2012188Y5208762D01*
X2012188Y5213309D01*
X2007643Y5222400D01*
X1994006Y5226946D01*
X1980369Y5226946D01*
X1966734Y5222400D01*
X1962188Y5213309D01*
X2112187Y5131490D02*
G01*
X2112187Y5226946D01*
X2112187Y5131490D02*
G01*
X2144006Y5131490D01*
X2157643Y5136037D01*
X2166734Y5145128D01*
X2171278Y5154218D01*
X2175824Y5167853D01*
X2175824Y5190581D01*
X2171278Y5204218D01*
X2166734Y5213309D01*
X2157643Y5222400D01*
X2144006Y5226946D01*
X2112187Y5226946D01*
X2205824Y5149672D02*
G01*
X2214915Y5145128D01*
X2228550Y5131490D01*
X2228550Y5226946D01*
X2328550Y5131490D02*
G01*
X2328550Y5226946D01*
X2328550Y5131490D02*
G01*
X2364915Y5226946D01*
X2401277Y5131490D02*
G01*
X2364915Y5226946D01*
X2401277Y5131490D02*
G01*
X2401277Y5226946D01*
X2431277Y5131490D02*
G01*
X2435824Y5136037D01*
X2440368Y5131490D01*
X2435824Y5126946D01*
X2431277Y5131490D01*
X2435824Y5163309D02*
G01*
X2435824Y5226946D01*
X2470368Y5163309D02*
G01*
X2470368Y5226946D01*
X2470368Y5181490D02*
G01*
X2484005Y5167853D01*
X2493096Y5163309D01*
X2506733Y5163309D01*
X2515824Y5167853D01*
X2520368Y5181490D01*
X2520368Y5226946D01*
X2550368Y5131490D02*
G01*
X2554914Y5136037D01*
X2559458Y5131490D01*
X2554914Y5126946D01*
X2550368Y5131490D01*
X2554914Y5163309D02*
G01*
X2554914Y5226946D01*
X2659458Y5131490D02*
G01*
X2659458Y5226946D01*
X2659458Y5131490D02*
G01*
X2700367Y5131490D01*
X2714005Y5136037D01*
X2718549Y5140581D01*
X2723095Y5149672D01*
X2723095Y5158762D01*
X2718549Y5167853D01*
X2714005Y5172400D01*
X2700367Y5176946D01*
X2659458Y5176946D02*
G01*
X2700367Y5176946D01*
X2714005Y5181490D01*
X2718549Y5186037D01*
X2723095Y5195128D01*
X2723095Y5208762D01*
X2718549Y5217853D01*
X2714005Y5222400D01*
X2700367Y5226946D01*
X2659458Y5226946D01*
X2753095Y5163309D02*
G01*
X2753095Y5226946D01*
X2753095Y5190581D02*
G01*
X2757642Y5176946D01*
X2766733Y5167853D01*
X2775823Y5163309D01*
X2789458Y5163309D01*
X2819458Y5190581D02*
G01*
X2874004Y5190581D01*
X2874004Y5181490D01*
X2869458Y5172400D01*
X2864914Y5167853D01*
X2855823Y5163309D01*
X2842186Y5163309D01*
X2833095Y5167853D01*
X2824005Y5176946D01*
X2819458Y5190581D01*
X2819458Y5199672D01*
X2824005Y5213309D01*
X2833095Y5222400D01*
X2842186Y5226946D01*
X2855823Y5226946D01*
X2864914Y5222400D01*
X2874004Y5213309D01*
X2958548Y5163309D02*
G01*
X2958548Y5226946D01*
X2958548Y5176946D02*
G01*
X2949458Y5167853D01*
X2940367Y5163309D01*
X2926732Y5163309D01*
X2917642Y5167853D01*
X2908548Y5176946D01*
X2904004Y5190581D01*
X2904004Y5199672D01*
X2908548Y5213309D01*
X2917642Y5222400D01*
X2926732Y5226946D01*
X2940367Y5226946D01*
X2949458Y5222400D01*
X2958548Y5213309D01*
X2988548Y5131490D02*
G01*
X2988548Y5226946D01*
X3034004Y5163309D02*
G01*
X2988548Y5208762D01*
X3006732Y5190581D02*
G01*
X3038548Y5226946D01*
X3091276Y5163309D02*
G01*
X3082185Y5167853D01*
X3073095Y5176946D01*
X3068548Y5190581D01*
X3068548Y5199672D01*
X3073095Y5213309D01*
X3082185Y5222400D01*
X3091276Y5226946D01*
X3104913Y5226946D01*
X3114004Y5222400D01*
X3123095Y5213309D01*
X3127641Y5199672D01*
X3127641Y5190581D01*
X3123095Y5176946D01*
X3114004Y5167853D01*
X3104913Y5163309D01*
X3091276Y5163309D01*
X3157641Y5163309D02*
G01*
X3157641Y5208762D01*
X3162185Y5222400D01*
X3171276Y5226946D01*
X3184913Y5226946D01*
X3194004Y5222400D01*
X3207641Y5208762D01*
X3207641Y5163309D02*
G01*
X3207641Y5226946D01*
X3251276Y5131490D02*
G01*
X3251276Y5208762D01*
X3255822Y5222400D01*
X3264913Y5226946D01*
X3274004Y5226946D01*
X3237641Y5163309D02*
G01*
X3269457Y5163309D01*
X762000Y5303009D02*
G01*
X789271Y5366646D01*
X816546Y5303009D02*
G01*
X789271Y5366646D01*
X851090Y5343918D02*
G01*
X846546Y5348462D01*
X851090Y5353009D01*
X855637Y5348462D01*
X851090Y5343918D01*
X885637Y5289372D02*
G01*
X894727Y5284828D01*
X908362Y5271190D01*
X908362Y5366646D01*
X942908Y5343918D02*
G01*
X938362Y5348462D01*
X942908Y5353009D01*
X947453Y5348462D01*
X942908Y5343918D01*
X986546Y5271190D02*
G01*
X1036546Y5271190D01*
X1009271Y5307553D01*
X1022908Y5307553D01*
X1031999Y5312100D01*
X1036546Y5316646D01*
X1041090Y5330281D01*
X1041090Y5339372D01*
X1036546Y5353009D01*
X1027452Y5362100D01*
X1013818Y5366646D01*
X1000180Y5366646D01*
X986546Y5362100D01*
X981999Y5357553D01*
X977452Y5348462D01*
X1141089Y5253009D02*
G01*
X1141089Y5398462D01*
X1291089Y5316646D02*
G01*
X1286545Y5307553D01*
X1272908Y5303009D01*
X1259271Y5303009D01*
X1245636Y5307553D01*
X1241089Y5316646D01*
X1245636Y5325737D01*
X1254726Y5330281D01*
X1277452Y5334828D01*
X1286545Y5339372D01*
X1291089Y5348462D01*
X1291089Y5353009D01*
X1286545Y5362100D01*
X1272908Y5366646D01*
X1259271Y5366646D01*
X1245636Y5362100D01*
X1241089Y5353009D01*
X1321089Y5271190D02*
G01*
X1325636Y5275737D01*
X1330180Y5271190D01*
X1325636Y5266646D01*
X1321089Y5271190D01*
X1325636Y5303009D02*
G01*
X1325636Y5366646D01*
X1360180Y5303009D02*
G01*
X1360180Y5366646D01*
X1360180Y5321190D02*
G01*
X1373817Y5307553D01*
X1382908Y5303009D01*
X1396545Y5303009D01*
X1405636Y5307553D01*
X1410180Y5321190D01*
X1410180Y5366646D01*
X1410180Y5321190D02*
G01*
X1423817Y5307553D01*
X1432907Y5303009D01*
X1446545Y5303009D01*
X1455635Y5307553D01*
X1460179Y5321190D01*
X1460179Y5366646D01*
X1490179Y5303009D02*
G01*
X1490179Y5398462D01*
X1490179Y5316646D02*
G01*
X1499270Y5307553D01*
X1508361Y5303009D01*
X1521998Y5303009D01*
X1531089Y5307553D01*
X1540179Y5316646D01*
X1544726Y5330281D01*
X1544726Y5339372D01*
X1540179Y5353009D01*
X1531089Y5362100D01*
X1521998Y5366646D01*
X1508361Y5366646D01*
X1499270Y5362100D01*
X1490179Y5353009D01*
X1574726Y5271190D02*
G01*
X1574726Y5366646D01*
X1604726Y5330281D02*
G01*
X1659270Y5330281D01*
X1659270Y5321190D01*
X1654726Y5312100D01*
X1650179Y5307553D01*
X1641088Y5303009D01*
X1627451Y5303009D01*
X1618361Y5307553D01*
X1609270Y5316646D01*
X1604726Y5330281D01*
X1604726Y5339372D01*
X1609270Y5353009D01*
X1618361Y5362100D01*
X1627451Y5366646D01*
X1641088Y5366646D01*
X1650179Y5362100D01*
X1659270Y5353009D01*
X1739270Y5316646D02*
G01*
X1734726Y5307553D01*
X1721088Y5303009D01*
X1707451Y5303009D01*
X1693816Y5307553D01*
X1689270Y5316646D01*
X1693816Y5325737D01*
X1702907Y5330281D01*
X1725635Y5334828D01*
X1734726Y5339372D01*
X1739270Y5348462D01*
X1739270Y5353009D01*
X1734726Y5362100D01*
X1721088Y5366646D01*
X1707451Y5366646D01*
X1693816Y5362100D01*
X1689270Y5353009D01*
X1782907Y5271190D02*
G01*
X1782907Y5348462D01*
X1787451Y5362100D01*
X1796544Y5366646D01*
X1805635Y5366646D01*
X1769270Y5303009D02*
G01*
X1801088Y5303009D01*
X1835635Y5325737D02*
G01*
X1917451Y5325737D01*
X2001997Y5316646D02*
G01*
X1992906Y5307553D01*
X1983816Y5303009D01*
X1970178Y5303009D01*
X1961088Y5307553D01*
X1951997Y5316646D01*
X1947451Y5330281D01*
X1947451Y5339372D01*
X1951997Y5353009D01*
X1961088Y5362100D01*
X1970178Y5366646D01*
X1983816Y5366646D01*
X1992906Y5362100D01*
X2001997Y5353009D01*
X2031997Y5271190D02*
G01*
X2036544Y5275737D01*
X2041088Y5271190D01*
X2036544Y5266646D01*
X2031997Y5271190D01*
X2036544Y5303009D02*
G01*
X2036544Y5366646D01*
X2071088Y5303009D02*
G01*
X2071088Y5366646D01*
X2071088Y5330281D02*
G01*
X2075634Y5316646D01*
X2084725Y5307553D01*
X2093815Y5303009D01*
X2107450Y5303009D01*
X2191997Y5316646D02*
G01*
X2182906Y5307553D01*
X2173815Y5303009D01*
X2160178Y5303009D01*
X2151087Y5307553D01*
X2141997Y5316646D01*
X2137450Y5330281D01*
X2137450Y5339372D01*
X2141997Y5353009D01*
X2151087Y5362100D01*
X2160178Y5366646D01*
X2173815Y5366646D01*
X2182906Y5362100D01*
X2191997Y5353009D01*
X2221997Y5303009D02*
G01*
X2221997Y5348462D01*
X2226543Y5362100D01*
X2235634Y5366646D01*
X2249269Y5366646D01*
X2258359Y5362100D01*
X2271996Y5348462D01*
X2271996Y5303009D02*
G01*
X2271996Y5366646D01*
X2301996Y5271190D02*
G01*
X2306543Y5275737D01*
X2311087Y5271190D01*
X2306543Y5266646D01*
X2301996Y5271190D01*
X2306543Y5303009D02*
G01*
X2306543Y5366646D01*
X2354724Y5271190D02*
G01*
X2354724Y5348462D01*
X2359268Y5362100D01*
X2368359Y5366646D01*
X2377450Y5366646D01*
X2341087Y5303009D02*
G01*
X2372906Y5303009D01*
X2457450Y5316646D02*
G01*
X2452905Y5307553D01*
X2439268Y5303009D01*
X2425633Y5303009D01*
X2411996Y5307553D01*
X2407450Y5316646D01*
X2411996Y5325737D01*
X2421087Y5330281D01*
X2443815Y5334828D01*
X2452905Y5339372D01*
X2457450Y5348462D01*
X2457450Y5353009D01*
X2452905Y5362100D01*
X2439268Y5366646D01*
X2425633Y5366646D01*
X2411996Y5362100D01*
X2407450Y5353009D01*
X2584724Y5271190D02*
G01*
X2571087Y5275737D01*
X2561996Y5289372D01*
X2557449Y5312100D01*
X2557449Y5325737D01*
X2561996Y5348462D01*
X2571087Y5362100D01*
X2584724Y5366646D01*
X2593814Y5366646D01*
X2607449Y5362100D01*
X2616542Y5348462D01*
X2621086Y5325737D01*
X2621086Y5312100D01*
X2616542Y5289372D01*
X2607449Y5275737D01*
X2593814Y5271190D01*
X2584724Y5271190D01*
X2651086Y5289372D02*
G01*
X2660177Y5284828D01*
X2673814Y5271190D01*
X2673814Y5366646D01*
X2785633Y5253009D02*
G01*
X2703814Y5398462D01*
X2820177Y5293918D02*
G01*
X2820177Y5289372D01*
X2824723Y5280281D01*
X2829267Y5275737D01*
X2838358Y5271190D01*
X2856542Y5271190D01*
X2865633Y5275737D01*
X2870177Y5280281D01*
X2874723Y5289372D01*
X2874723Y5298462D01*
X2870177Y5307553D01*
X2861086Y5321190D01*
X2815633Y5366646D01*
X2879267Y5366646D01*
X2936542Y5271190D02*
G01*
X2922904Y5275737D01*
X2913814Y5289372D01*
X2909267Y5312100D01*
X2909267Y5325737D01*
X2913814Y5348462D01*
X2922904Y5362100D01*
X2936542Y5366646D01*
X2945632Y5366646D01*
X2959267Y5362100D01*
X2968358Y5348462D01*
X2972904Y5325737D01*
X2972904Y5312100D01*
X2968358Y5289372D01*
X2959267Y5275737D01*
X2945632Y5271190D01*
X2936542Y5271190D01*
X3007448Y5293918D02*
G01*
X3007448Y5289372D01*
X3011995Y5280281D01*
X3016542Y5275737D01*
X3025632Y5271190D01*
X3043814Y5271190D01*
X3052904Y5275737D01*
X3057448Y5280281D01*
X3061995Y5289372D01*
X3061995Y5298462D01*
X3057448Y5307553D01*
X3048358Y5321190D01*
X3002904Y5366646D01*
X3066541Y5366646D01*
X3105632Y5271190D02*
G01*
X3155632Y5271190D01*
X3128357Y5307553D01*
X3141995Y5307553D01*
X3151085Y5312100D01*
X3155632Y5316646D01*
X3160176Y5330281D01*
X3160176Y5339372D01*
X3155632Y5353009D01*
X3146541Y5362100D01*
X3132904Y5366646D01*
X3119267Y5366646D01*
X3105632Y5362100D01*
X3101086Y5357553D01*
X3096541Y5348462D01*
M02*
