G04 Layer: TopLayer*
G04 EasyEDA v6.5.22, 2023-01-21 22:26:58*
G04 c6cdce557248458a9636279a13899d4b,db865e68f4bc4fd99aa1dd1697a786d6,10*
G04 Gerber Generator version 0.2*
G04 Scale: 100 percent, Rotated: No, Reflected: No *
G04 Dimensions in millimeters *
G04 leading zeros omitted , absolute positions ,4 integer and 5 decimal *
%FSLAX45Y45*%
%MOMM*%

%ADD10C,0.1500*%
%ADD11C,0.5000*%
%ADD12O,1.7500092X1.1999976*%
%ADD13R,1.5240X1.5240*%
%ADD14C,1.5240*%
%ADD15C,1.2000*%
%ADD16O,3.6576X1.8288*%
%ADD17R,1.8000X1.8000*%
%ADD18C,1.8000*%
%ADD19C,0.6100*%
%ADD20C,0.0125*%

%LPD*%
G36*
X594868Y5105908D02*
G01*
X590956Y5106670D01*
X587705Y5108905D01*
X585470Y5112156D01*
X584708Y5116068D01*
X584708Y8599932D01*
X585470Y8603843D01*
X587705Y8607094D01*
X590956Y8609330D01*
X594868Y8610092D01*
X1221232Y8610092D01*
X1225143Y8609330D01*
X1228394Y8607094D01*
X1230630Y8603843D01*
X1231392Y8599932D01*
X1231392Y6820509D01*
X1232204Y6814007D01*
X1234287Y6808470D01*
X1237843Y6803339D01*
X1240840Y6800291D01*
X1244447Y6797649D01*
X1249984Y6795160D01*
X1257452Y6793992D01*
X2653690Y6793992D01*
X2660192Y6794804D01*
X2665730Y6796887D01*
X2670810Y6800392D01*
X2674010Y6803644D01*
X2676550Y6807149D01*
X2679039Y6812686D01*
X2680208Y6820255D01*
X2667762Y8599881D01*
X2668524Y8603792D01*
X2670708Y8607094D01*
X2674010Y8609330D01*
X2677922Y8610092D01*
X3354832Y8610092D01*
X3358743Y8609330D01*
X3361994Y8607094D01*
X3364229Y8603843D01*
X3364992Y8599932D01*
X3364992Y5116068D01*
X3364229Y5112156D01*
X3361994Y5108905D01*
X3358743Y5106670D01*
X3354832Y5105908D01*
G37*

%LPC*%
G36*
X3073400Y5209743D02*
G01*
X3085642Y5210606D01*
X3097580Y5213197D01*
X3109061Y5217464D01*
X3119831Y5223357D01*
X3129635Y5230672D01*
X3138322Y5239359D01*
X3145637Y5249164D01*
X3151530Y5259933D01*
X3155797Y5271414D01*
X3158388Y5283403D01*
X3159302Y5295595D01*
X3158388Y5307838D01*
X3155797Y5319776D01*
X3151530Y5331256D01*
X3145637Y5342026D01*
X3138322Y5351830D01*
X3129635Y5360517D01*
X3119831Y5367832D01*
X3109061Y5373725D01*
X3097580Y5377992D01*
X3085642Y5380583D01*
X3073400Y5381498D01*
X3061157Y5380583D01*
X3049219Y5377992D01*
X3037738Y5373725D01*
X3026968Y5367832D01*
X3017164Y5360517D01*
X3008477Y5351830D01*
X3005328Y5348376D01*
X3002483Y5347004D01*
X2999435Y5346496D01*
X2588717Y5346496D01*
X2584805Y5347258D01*
X2581554Y5349494D01*
X2490927Y5440070D01*
X2488895Y5443016D01*
X2487980Y5446420D01*
X2490216Y5463844D01*
X2490216Y5477459D01*
X2488387Y5490972D01*
X2484780Y5504129D01*
X2479497Y5516676D01*
X2472537Y5528411D01*
X2464054Y5539130D01*
X2454249Y5548630D01*
X2443276Y5556707D01*
X2431338Y5563260D01*
X2418588Y5568137D01*
X2405329Y5571337D01*
X2391765Y5572658D01*
X2378151Y5572201D01*
X2364689Y5569966D01*
X2351684Y5565902D01*
X2339289Y5560161D01*
X2332685Y5555945D01*
X2328672Y5554472D01*
X2324354Y5554776D01*
X2320544Y5556859D01*
X2318004Y5560314D01*
X2317089Y5564530D01*
X2317089Y5612384D01*
X2317851Y5616295D01*
X2320036Y5619546D01*
X2323338Y5621782D01*
X2327249Y5622544D01*
X2343912Y5622544D01*
X2343912Y5680202D01*
X2327249Y5680202D01*
X2323338Y5680964D01*
X2320036Y5683199D01*
X2317851Y5686450D01*
X2317089Y5690362D01*
X2317089Y5758942D01*
X2317851Y5762853D01*
X2320036Y5766104D01*
X2323338Y5768340D01*
X2327249Y5769102D01*
X2343912Y5769102D01*
X2343912Y5836412D01*
X2344674Y5840272D01*
X2346909Y5843574D01*
X2929432Y6426149D01*
X2932531Y6428232D01*
X2936138Y6429095D01*
X2939846Y6428587D01*
X2943098Y6426809D01*
X2951073Y6420154D01*
X2963519Y6412280D01*
X2976880Y6406032D01*
X2990900Y6401460D01*
X3005378Y6398717D01*
X3012643Y6398260D01*
X3016808Y6397040D01*
X3018231Y6395821D01*
X3019958Y6396990D01*
X3023870Y6397752D01*
X3199130Y6397752D01*
X3203041Y6396990D01*
X3204768Y6395821D01*
X3206191Y6397040D01*
X3210356Y6398260D01*
X3217621Y6398717D01*
X3232099Y6401460D01*
X3246120Y6406032D01*
X3259480Y6412280D01*
X3271926Y6420154D01*
X3283254Y6429552D01*
X3293364Y6440322D01*
X3302000Y6452209D01*
X3309112Y6465163D01*
X3314547Y6478828D01*
X3318205Y6493103D01*
X3320034Y6507734D01*
X3320034Y6522466D01*
X3318205Y6537096D01*
X3314547Y6551371D01*
X3309112Y6565036D01*
X3302000Y6577990D01*
X3293364Y6589877D01*
X3283254Y6600647D01*
X3271926Y6610045D01*
X3259480Y6617919D01*
X3246120Y6624167D01*
X3232099Y6628739D01*
X3217621Y6631482D01*
X3210356Y6631940D01*
X3206191Y6633159D01*
X3202889Y6636003D01*
X3201111Y6639915D01*
X3201111Y6644284D01*
X3202889Y6648196D01*
X3206191Y6651040D01*
X3210356Y6652259D01*
X3217621Y6652717D01*
X3232099Y6655460D01*
X3246120Y6660032D01*
X3259480Y6666280D01*
X3271926Y6674154D01*
X3283254Y6683552D01*
X3293364Y6694322D01*
X3302000Y6706209D01*
X3309112Y6719163D01*
X3314547Y6732828D01*
X3318205Y6747103D01*
X3320034Y6761734D01*
X3320034Y6776466D01*
X3318205Y6791096D01*
X3314547Y6805371D01*
X3309112Y6819036D01*
X3302000Y6831990D01*
X3293364Y6843877D01*
X3283254Y6854647D01*
X3271926Y6864045D01*
X3259480Y6871919D01*
X3246120Y6878167D01*
X3232099Y6882739D01*
X3217621Y6885482D01*
X3210356Y6885940D01*
X3206191Y6887159D01*
X3202889Y6890003D01*
X3201111Y6893915D01*
X3201111Y6898284D01*
X3202889Y6902196D01*
X3206191Y6905040D01*
X3210356Y6906259D01*
X3217621Y6906717D01*
X3232099Y6909460D01*
X3246120Y6914032D01*
X3259480Y6920280D01*
X3271926Y6928154D01*
X3283254Y6937552D01*
X3293364Y6948322D01*
X3302000Y6960209D01*
X3309112Y6973163D01*
X3314547Y6986828D01*
X3318205Y7001103D01*
X3320034Y7015734D01*
X3320034Y7030466D01*
X3318205Y7045096D01*
X3314547Y7059371D01*
X3309112Y7073036D01*
X3302000Y7085990D01*
X3293364Y7097877D01*
X3283254Y7108647D01*
X3271926Y7118045D01*
X3259480Y7125919D01*
X3246120Y7132167D01*
X3232099Y7136739D01*
X3217621Y7139482D01*
X3210356Y7139940D01*
X3206191Y7141159D01*
X3202889Y7144003D01*
X3201111Y7147915D01*
X3201111Y7152284D01*
X3202889Y7156196D01*
X3206191Y7159040D01*
X3210356Y7160259D01*
X3217621Y7160717D01*
X3232099Y7163460D01*
X3246120Y7168032D01*
X3259480Y7174280D01*
X3271926Y7182154D01*
X3283254Y7191552D01*
X3293364Y7202322D01*
X3302000Y7214209D01*
X3309112Y7227163D01*
X3314547Y7240828D01*
X3318205Y7255103D01*
X3320034Y7269734D01*
X3320034Y7284466D01*
X3318205Y7299096D01*
X3314547Y7313371D01*
X3309112Y7327036D01*
X3302000Y7339990D01*
X3293364Y7351877D01*
X3283254Y7362647D01*
X3271926Y7372045D01*
X3259480Y7379919D01*
X3246120Y7386167D01*
X3232099Y7390739D01*
X3217621Y7393482D01*
X3210356Y7393940D01*
X3206191Y7395159D01*
X3202889Y7398003D01*
X3201111Y7401915D01*
X3201111Y7406284D01*
X3202889Y7410196D01*
X3206191Y7413040D01*
X3210356Y7414259D01*
X3217621Y7414717D01*
X3232099Y7417460D01*
X3246120Y7422032D01*
X3259480Y7428280D01*
X3271926Y7436154D01*
X3283254Y7445552D01*
X3293364Y7456322D01*
X3302000Y7468209D01*
X3309112Y7481163D01*
X3314547Y7494828D01*
X3318205Y7509103D01*
X3320034Y7523734D01*
X3320034Y7538466D01*
X3318205Y7553096D01*
X3314547Y7567371D01*
X3309112Y7581036D01*
X3302000Y7593990D01*
X3293364Y7605877D01*
X3283254Y7616647D01*
X3271926Y7626045D01*
X3259480Y7633919D01*
X3246120Y7640167D01*
X3232099Y7644739D01*
X3217621Y7647482D01*
X3210356Y7647940D01*
X3206191Y7649159D01*
X3202889Y7652003D01*
X3201111Y7655915D01*
X3201111Y7660284D01*
X3202889Y7664196D01*
X3206191Y7667040D01*
X3210356Y7668259D01*
X3217621Y7668717D01*
X3232099Y7671460D01*
X3246120Y7676032D01*
X3259480Y7682280D01*
X3271926Y7690154D01*
X3283254Y7699552D01*
X3293364Y7710322D01*
X3302000Y7722209D01*
X3309112Y7735163D01*
X3314547Y7748828D01*
X3318205Y7763103D01*
X3320034Y7777734D01*
X3320034Y7792466D01*
X3318205Y7807096D01*
X3314547Y7821371D01*
X3309112Y7835036D01*
X3302000Y7847990D01*
X3293364Y7859877D01*
X3283254Y7870647D01*
X3271926Y7880045D01*
X3259480Y7887919D01*
X3246120Y7894167D01*
X3232099Y7898739D01*
X3217621Y7901482D01*
X3202635Y7902448D01*
X3020364Y7902448D01*
X3005378Y7901482D01*
X2990900Y7898739D01*
X2976880Y7894167D01*
X2963519Y7887919D01*
X2951073Y7880045D01*
X2939745Y7870647D01*
X2929636Y7859877D01*
X2921000Y7847990D01*
X2913888Y7835036D01*
X2908452Y7821371D01*
X2904794Y7807096D01*
X2902966Y7792466D01*
X2902966Y7777734D01*
X2904794Y7763103D01*
X2908452Y7748828D01*
X2913888Y7735163D01*
X2921000Y7722209D01*
X2929636Y7710322D01*
X2939745Y7699552D01*
X2951073Y7690154D01*
X2963519Y7682280D01*
X2976880Y7676032D01*
X2990900Y7671460D01*
X3005378Y7668717D01*
X3012643Y7668259D01*
X3016808Y7667040D01*
X3020110Y7664196D01*
X3021888Y7660284D01*
X3021888Y7655915D01*
X3020110Y7652003D01*
X3016808Y7649159D01*
X3012643Y7647940D01*
X3005378Y7647482D01*
X2990900Y7644739D01*
X2976880Y7640167D01*
X2963519Y7633919D01*
X2951073Y7626045D01*
X2939745Y7616647D01*
X2929636Y7605877D01*
X2921000Y7593990D01*
X2913888Y7581036D01*
X2908452Y7567371D01*
X2904794Y7553096D01*
X2902966Y7538466D01*
X2902966Y7523734D01*
X2904794Y7509103D01*
X2908452Y7494828D01*
X2913888Y7481163D01*
X2921000Y7468209D01*
X2929636Y7456322D01*
X2939745Y7445552D01*
X2951073Y7436154D01*
X2963519Y7428280D01*
X2976880Y7422032D01*
X2990900Y7417460D01*
X3005378Y7414717D01*
X3012643Y7414259D01*
X3016808Y7413040D01*
X3020110Y7410196D01*
X3021888Y7406284D01*
X3021888Y7401915D01*
X3020110Y7398003D01*
X3016808Y7395159D01*
X3012643Y7393940D01*
X3005378Y7393482D01*
X2990900Y7390739D01*
X2976880Y7386167D01*
X2963519Y7379919D01*
X2951073Y7372045D01*
X2939745Y7362647D01*
X2929636Y7351877D01*
X2921000Y7339990D01*
X2913888Y7327036D01*
X2908452Y7313371D01*
X2904794Y7299096D01*
X2902966Y7284466D01*
X2902966Y7269734D01*
X2904794Y7255103D01*
X2908452Y7240828D01*
X2913888Y7227163D01*
X2921000Y7214209D01*
X2929636Y7202322D01*
X2939745Y7191552D01*
X2951073Y7182154D01*
X2963519Y7174280D01*
X2976880Y7168032D01*
X2990900Y7163460D01*
X3005378Y7160717D01*
X3012643Y7160259D01*
X3016808Y7159040D01*
X3020110Y7156196D01*
X3021888Y7152284D01*
X3021888Y7147915D01*
X3020110Y7144003D01*
X3016808Y7141159D01*
X3012643Y7139940D01*
X3005378Y7139482D01*
X2990900Y7136739D01*
X2976880Y7132167D01*
X2963519Y7125919D01*
X2951073Y7118045D01*
X2939745Y7108647D01*
X2929636Y7097877D01*
X2921000Y7085990D01*
X2913888Y7073036D01*
X2908452Y7059371D01*
X2904794Y7045096D01*
X2902966Y7030466D01*
X2902966Y7015734D01*
X2904794Y7001103D01*
X2908452Y6986828D01*
X2913888Y6973163D01*
X2921000Y6960209D01*
X2929636Y6948322D01*
X2939745Y6937552D01*
X2951073Y6928154D01*
X2963519Y6920280D01*
X2976880Y6914032D01*
X2990900Y6909460D01*
X3005378Y6906717D01*
X3012643Y6906259D01*
X3016808Y6905040D01*
X3020110Y6902196D01*
X3021888Y6898284D01*
X3021888Y6893915D01*
X3020110Y6890003D01*
X3016808Y6887159D01*
X3012643Y6885940D01*
X3005378Y6885482D01*
X2990900Y6882739D01*
X2976880Y6878167D01*
X2963519Y6871919D01*
X2951073Y6864045D01*
X2939745Y6854647D01*
X2929636Y6843877D01*
X2921000Y6831990D01*
X2913888Y6819036D01*
X2908452Y6805371D01*
X2904794Y6791096D01*
X2902966Y6776466D01*
X2902966Y6761734D01*
X2904794Y6747103D01*
X2908452Y6732828D01*
X2913888Y6719163D01*
X2921000Y6706209D01*
X2929636Y6694322D01*
X2939745Y6683552D01*
X2951073Y6674154D01*
X2963519Y6666280D01*
X2976880Y6660032D01*
X2990900Y6655460D01*
X3005378Y6652717D01*
X3012643Y6652259D01*
X3016808Y6651040D01*
X3020110Y6648196D01*
X3021888Y6644284D01*
X3021888Y6639915D01*
X3020110Y6636003D01*
X3016808Y6633159D01*
X3012643Y6631940D01*
X3005378Y6631482D01*
X2990900Y6628739D01*
X2976880Y6624167D01*
X2963519Y6617919D01*
X2951073Y6610045D01*
X2939745Y6600647D01*
X2929636Y6589877D01*
X2921000Y6577990D01*
X2913888Y6565036D01*
X2908452Y6551371D01*
X2904794Y6537096D01*
X2902966Y6522466D01*
X2902966Y6507734D01*
X2903880Y6500622D01*
X2903778Y6497523D01*
X2902762Y6494627D01*
X2900984Y6492138D01*
X2261108Y5852312D01*
X2257806Y5850077D01*
X2253945Y5849315D01*
X2250033Y5850077D01*
X2246731Y5852312D01*
X2078278Y6020765D01*
X2075942Y6024473D01*
X2075332Y6028842D01*
X2075688Y6032500D01*
X2074824Y6042304D01*
X2072284Y6051804D01*
X2068118Y6060694D01*
X2062480Y6068720D01*
X2055520Y6075680D01*
X2047493Y6081318D01*
X2038604Y6085484D01*
X2029104Y6088024D01*
X2019300Y6088888D01*
X2009495Y6088024D01*
X1999996Y6085484D01*
X1991106Y6081318D01*
X1983079Y6075680D01*
X1976120Y6068720D01*
X1970481Y6060694D01*
X1966315Y6051804D01*
X1963775Y6042304D01*
X1962912Y6032500D01*
X1963775Y6022695D01*
X1966315Y6013196D01*
X1970481Y6004306D01*
X1976120Y5996279D01*
X1983079Y5989320D01*
X1991106Y5983681D01*
X1999996Y5979515D01*
X2009495Y5976975D01*
X2019300Y5976112D01*
X2022957Y5976467D01*
X2027326Y5975858D01*
X2031034Y5973521D01*
X2162556Y5842000D01*
X2164943Y5838291D01*
X2165502Y5834024D01*
X2164283Y5829858D01*
X2161387Y5826556D01*
X2157374Y5824829D01*
X2153056Y5824931D01*
X2151329Y5825337D01*
X2137765Y5826658D01*
X2124151Y5826201D01*
X2110689Y5823966D01*
X2097684Y5819902D01*
X2085289Y5814161D01*
X2073808Y5806846D01*
X2063394Y5798058D01*
X2054250Y5787898D01*
X2046528Y5776671D01*
X2040382Y5764530D01*
X2035911Y5751626D01*
X2033168Y5738266D01*
X2032254Y5724652D01*
X2033168Y5711037D01*
X2035911Y5697677D01*
X2040077Y5685688D01*
X2040636Y5681980D01*
X2039772Y5678322D01*
X2037638Y5675172D01*
X2007260Y5644794D01*
X2002536Y5638952D01*
X1999386Y5632754D01*
X1997506Y5625896D01*
X1997100Y5620410D01*
X1997100Y5505602D01*
X1996236Y5501538D01*
X1993849Y5498185D01*
X1990293Y5496001D01*
X1986229Y5495442D01*
X1982216Y5496610D01*
X1979015Y5499252D01*
X1971497Y5516676D01*
X1964537Y5528411D01*
X1956054Y5539130D01*
X1946249Y5548630D01*
X1935276Y5556707D01*
X1923338Y5563260D01*
X1910588Y5568137D01*
X1897329Y5571337D01*
X1883765Y5572658D01*
X1870151Y5572201D01*
X1856689Y5569966D01*
X1838401Y5564378D01*
X1834337Y5565089D01*
X1830933Y5567324D01*
X1756714Y5641543D01*
X1750872Y5646267D01*
X1744675Y5649417D01*
X1737817Y5651296D01*
X1732330Y5651703D01*
X1719376Y5651703D01*
X1715211Y5652617D01*
X1711807Y5655106D01*
X1709674Y5658815D01*
X1709267Y5663031D01*
X1710639Y5667044D01*
X1717497Y5678627D01*
X1722780Y5691174D01*
X1726387Y5704332D01*
X1728216Y5717844D01*
X1728216Y5731459D01*
X1726387Y5744972D01*
X1722780Y5758129D01*
X1717497Y5770676D01*
X1710537Y5782411D01*
X1702054Y5793130D01*
X1692249Y5802630D01*
X1681276Y5810707D01*
X1669338Y5817260D01*
X1666290Y5818428D01*
X1662887Y5820613D01*
X1660601Y5823966D01*
X1659788Y5827928D01*
X1659788Y5946140D01*
X1660550Y5950000D01*
X1662734Y5953302D01*
X1666036Y5955538D01*
X1669948Y5956300D01*
X1673809Y5955538D01*
X1677111Y5953302D01*
X1814068Y5816396D01*
X1816354Y5812891D01*
X1817014Y5808776D01*
X1815998Y5804712D01*
X1813407Y5801461D01*
X1809394Y5798058D01*
X1800250Y5787898D01*
X1792528Y5776671D01*
X1786382Y5764530D01*
X1781911Y5751626D01*
X1779168Y5738266D01*
X1778254Y5724652D01*
X1779168Y5711037D01*
X1781911Y5697677D01*
X1786382Y5684774D01*
X1792528Y5672632D01*
X1800250Y5661406D01*
X1809394Y5651246D01*
X1819808Y5642457D01*
X1831289Y5635142D01*
X1843684Y5629402D01*
X1856689Y5625338D01*
X1870151Y5623102D01*
X1883765Y5622645D01*
X1897329Y5623966D01*
X1910588Y5627166D01*
X1923338Y5632043D01*
X1935276Y5638596D01*
X1946249Y5646674D01*
X1956054Y5656173D01*
X1964537Y5666892D01*
X1971497Y5678627D01*
X1976780Y5691174D01*
X1980387Y5704332D01*
X1982216Y5717844D01*
X1982216Y5731459D01*
X1980387Y5744972D01*
X1976780Y5758129D01*
X1971497Y5770676D01*
X1964537Y5782411D01*
X1956054Y5793130D01*
X1946249Y5802630D01*
X1935276Y5810707D01*
X1923338Y5817260D01*
X1910588Y5822137D01*
X1903120Y5823915D01*
X1900529Y5824931D01*
X1898294Y5826658D01*
X1495501Y6229451D01*
X1493266Y6232753D01*
X1492504Y6236614D01*
X1493266Y6240526D01*
X1495501Y6243828D01*
X1498803Y6246012D01*
X1502664Y6246774D01*
X1523441Y6246774D01*
X1523441Y6311341D01*
X1458874Y6311341D01*
X1458874Y6290564D01*
X1458112Y6286703D01*
X1455928Y6283401D01*
X1452626Y6281166D01*
X1448714Y6280404D01*
X1444853Y6281166D01*
X1441551Y6283401D01*
X1138224Y6586728D01*
X1135989Y6590030D01*
X1135227Y6593890D01*
X1135227Y6781647D01*
X1134465Y6789115D01*
X1132281Y6795719D01*
X1128725Y6801866D01*
X1125169Y6806082D01*
X1002487Y6928764D01*
X1000302Y6931964D01*
X999490Y6935774D01*
X1000201Y6939584D01*
X1002233Y6942886D01*
X1007364Y6948322D01*
X1016000Y6960209D01*
X1023112Y6973163D01*
X1028547Y6986828D01*
X1032205Y7001103D01*
X1034034Y7015734D01*
X1034034Y7030466D01*
X1032205Y7045096D01*
X1028547Y7059371D01*
X1023112Y7073036D01*
X1016000Y7085990D01*
X1007364Y7097877D01*
X997254Y7108647D01*
X985926Y7118045D01*
X973480Y7125919D01*
X960119Y7132167D01*
X946099Y7136739D01*
X931621Y7139482D01*
X924356Y7139940D01*
X920191Y7141159D01*
X916889Y7144003D01*
X915111Y7147915D01*
X915111Y7152284D01*
X916889Y7156196D01*
X920191Y7159040D01*
X924356Y7160259D01*
X931621Y7160717D01*
X946099Y7163460D01*
X960119Y7168032D01*
X973480Y7174280D01*
X985926Y7182154D01*
X997254Y7191552D01*
X1007364Y7202322D01*
X1016000Y7214209D01*
X1023112Y7227163D01*
X1028547Y7240828D01*
X1032205Y7255103D01*
X1034034Y7269734D01*
X1034034Y7284466D01*
X1032205Y7299096D01*
X1028547Y7313371D01*
X1023112Y7327036D01*
X1016000Y7339990D01*
X1007364Y7351877D01*
X997254Y7362647D01*
X985926Y7372045D01*
X973480Y7379919D01*
X960119Y7386167D01*
X946099Y7390739D01*
X931621Y7393482D01*
X924356Y7393940D01*
X920191Y7395159D01*
X916889Y7398003D01*
X915111Y7401915D01*
X915111Y7406284D01*
X916889Y7410196D01*
X920191Y7413040D01*
X924356Y7414259D01*
X931621Y7414717D01*
X946099Y7417460D01*
X960119Y7422032D01*
X973480Y7428280D01*
X985926Y7436154D01*
X997254Y7445552D01*
X1007364Y7456322D01*
X1016000Y7468209D01*
X1023112Y7481163D01*
X1028547Y7494828D01*
X1032205Y7509103D01*
X1034034Y7523734D01*
X1034034Y7538466D01*
X1032205Y7553096D01*
X1028547Y7567371D01*
X1023112Y7581036D01*
X1016000Y7593990D01*
X1007364Y7605877D01*
X997254Y7616647D01*
X985926Y7626045D01*
X973480Y7633919D01*
X960119Y7640167D01*
X946099Y7644739D01*
X931621Y7647482D01*
X924356Y7647940D01*
X920191Y7649159D01*
X916889Y7652003D01*
X915111Y7655915D01*
X915111Y7660284D01*
X916889Y7664196D01*
X920191Y7667040D01*
X924356Y7668259D01*
X931621Y7668717D01*
X946099Y7671460D01*
X960119Y7676032D01*
X973480Y7682280D01*
X985926Y7690154D01*
X997254Y7699552D01*
X1007364Y7710322D01*
X1016000Y7722209D01*
X1023112Y7735163D01*
X1028547Y7748828D01*
X1032205Y7763103D01*
X1034034Y7777734D01*
X1034034Y7792466D01*
X1032205Y7807096D01*
X1028547Y7821371D01*
X1023112Y7835036D01*
X1016000Y7847990D01*
X1007364Y7859877D01*
X997254Y7870647D01*
X985926Y7880045D01*
X973480Y7887919D01*
X960119Y7894167D01*
X946099Y7898739D01*
X931621Y7901482D01*
X916635Y7902448D01*
X734364Y7902448D01*
X719378Y7901482D01*
X704900Y7898739D01*
X690880Y7894167D01*
X677519Y7887919D01*
X665073Y7880045D01*
X653745Y7870647D01*
X643636Y7859877D01*
X635000Y7847990D01*
X627888Y7835036D01*
X622452Y7821371D01*
X618794Y7807096D01*
X616966Y7792466D01*
X616966Y7777734D01*
X618794Y7763103D01*
X622452Y7748828D01*
X627888Y7735163D01*
X635000Y7722209D01*
X643636Y7710322D01*
X653745Y7699552D01*
X665073Y7690154D01*
X677519Y7682280D01*
X690880Y7676032D01*
X704900Y7671460D01*
X719378Y7668717D01*
X726643Y7668259D01*
X730808Y7667040D01*
X734110Y7664196D01*
X735888Y7660284D01*
X735888Y7655915D01*
X734110Y7652003D01*
X730808Y7649159D01*
X726643Y7647940D01*
X719378Y7647482D01*
X704900Y7644739D01*
X690880Y7640167D01*
X677519Y7633919D01*
X665073Y7626045D01*
X653745Y7616647D01*
X643636Y7605877D01*
X635000Y7593990D01*
X627888Y7581036D01*
X622452Y7567371D01*
X618794Y7553096D01*
X616966Y7538466D01*
X616966Y7523734D01*
X618794Y7509103D01*
X622452Y7494828D01*
X627888Y7481163D01*
X635000Y7468209D01*
X643636Y7456322D01*
X653745Y7445552D01*
X665073Y7436154D01*
X677519Y7428280D01*
X690880Y7422032D01*
X704900Y7417460D01*
X719378Y7414717D01*
X726643Y7414259D01*
X730808Y7413040D01*
X734110Y7410196D01*
X735888Y7406284D01*
X735888Y7401915D01*
X734110Y7398003D01*
X730808Y7395159D01*
X726643Y7393940D01*
X719378Y7393482D01*
X704900Y7390739D01*
X690880Y7386167D01*
X677519Y7379919D01*
X665073Y7372045D01*
X653745Y7362647D01*
X643636Y7351877D01*
X635000Y7339990D01*
X627888Y7327036D01*
X622452Y7313371D01*
X618794Y7299096D01*
X616966Y7284466D01*
X616966Y7269734D01*
X618794Y7255103D01*
X622452Y7240828D01*
X627888Y7227163D01*
X635000Y7214209D01*
X643636Y7202322D01*
X653745Y7191552D01*
X665073Y7182154D01*
X677519Y7174280D01*
X690880Y7168032D01*
X704900Y7163460D01*
X719378Y7160717D01*
X726643Y7160259D01*
X730808Y7159040D01*
X734110Y7156196D01*
X735888Y7152284D01*
X735888Y7147915D01*
X734110Y7144003D01*
X730808Y7141159D01*
X726643Y7139940D01*
X719378Y7139482D01*
X704900Y7136739D01*
X690880Y7132167D01*
X677519Y7125919D01*
X665073Y7118045D01*
X653745Y7108647D01*
X643636Y7097877D01*
X635000Y7085990D01*
X627888Y7073036D01*
X622452Y7059371D01*
X618794Y7045096D01*
X616966Y7030466D01*
X616966Y7015734D01*
X618794Y7001103D01*
X622452Y6986828D01*
X627888Y6973163D01*
X635000Y6960209D01*
X643636Y6948322D01*
X653745Y6937552D01*
X665073Y6928154D01*
X677519Y6920280D01*
X690880Y6914032D01*
X704900Y6909460D01*
X719378Y6906717D01*
X726643Y6906259D01*
X730808Y6905040D01*
X734110Y6902196D01*
X735888Y6898284D01*
X735888Y6893915D01*
X734110Y6890003D01*
X730808Y6887159D01*
X726643Y6885940D01*
X719378Y6885482D01*
X704900Y6882739D01*
X690880Y6878167D01*
X677519Y6871919D01*
X665073Y6864045D01*
X653745Y6854647D01*
X643636Y6843877D01*
X635000Y6831990D01*
X627888Y6819036D01*
X622452Y6805371D01*
X618794Y6791096D01*
X616966Y6776466D01*
X616966Y6761734D01*
X618794Y6747103D01*
X622452Y6732828D01*
X627888Y6719163D01*
X635000Y6706209D01*
X643636Y6694322D01*
X653745Y6683552D01*
X665073Y6674154D01*
X677519Y6666280D01*
X690880Y6660032D01*
X704900Y6655460D01*
X719378Y6652717D01*
X726643Y6652259D01*
X730808Y6651040D01*
X734110Y6648196D01*
X735888Y6644284D01*
X735888Y6639915D01*
X734110Y6636003D01*
X730808Y6633159D01*
X726643Y6631940D01*
X719378Y6631482D01*
X704900Y6628739D01*
X690880Y6624167D01*
X677519Y6617919D01*
X665073Y6610045D01*
X653745Y6600647D01*
X643636Y6589877D01*
X635000Y6577990D01*
X627888Y6565036D01*
X622452Y6551371D01*
X618794Y6537096D01*
X616966Y6522466D01*
X616966Y6507734D01*
X618794Y6493103D01*
X622452Y6478828D01*
X627888Y6465163D01*
X635000Y6452209D01*
X643636Y6440322D01*
X653745Y6429552D01*
X665073Y6420154D01*
X677519Y6412280D01*
X690880Y6406032D01*
X704900Y6401460D01*
X719378Y6398717D01*
X726643Y6398260D01*
X730808Y6397040D01*
X734110Y6394196D01*
X735888Y6390284D01*
X735888Y6385915D01*
X734110Y6382004D01*
X730808Y6379159D01*
X726643Y6377940D01*
X719378Y6377482D01*
X704900Y6374739D01*
X690880Y6370167D01*
X677519Y6363919D01*
X665073Y6356045D01*
X653745Y6346647D01*
X643636Y6335877D01*
X635000Y6323990D01*
X627888Y6311036D01*
X622452Y6297371D01*
X618794Y6283096D01*
X616966Y6268466D01*
X616966Y6253734D01*
X618794Y6239103D01*
X622452Y6224828D01*
X627888Y6211163D01*
X635000Y6198209D01*
X643636Y6186322D01*
X653745Y6175552D01*
X665073Y6166154D01*
X677519Y6158280D01*
X690880Y6152032D01*
X704900Y6147460D01*
X719378Y6144717D01*
X726643Y6144260D01*
X730808Y6143040D01*
X734110Y6140196D01*
X735888Y6136284D01*
X735888Y6131915D01*
X734110Y6128004D01*
X730808Y6125159D01*
X726643Y6123940D01*
X719378Y6123482D01*
X704900Y6120739D01*
X690880Y6116167D01*
X677519Y6109919D01*
X665073Y6102045D01*
X653745Y6092647D01*
X643636Y6081877D01*
X635000Y6069990D01*
X627888Y6057036D01*
X622452Y6043371D01*
X618794Y6029096D01*
X616966Y6014466D01*
X616966Y5999734D01*
X618794Y5985103D01*
X622452Y5970828D01*
X627888Y5957163D01*
X635000Y5944209D01*
X643636Y5932322D01*
X653745Y5921552D01*
X665073Y5912154D01*
X677519Y5904280D01*
X690880Y5898032D01*
X704900Y5893460D01*
X719378Y5890717D01*
X734364Y5889752D01*
X916635Y5889752D01*
X931621Y5890717D01*
X946099Y5893460D01*
X960119Y5898032D01*
X973480Y5904280D01*
X985926Y5912154D01*
X997254Y5921552D01*
X1007364Y5932322D01*
X1016000Y5944209D01*
X1023112Y5957163D01*
X1028547Y5970828D01*
X1032205Y5985103D01*
X1034034Y5999734D01*
X1034034Y6014466D01*
X1032205Y6029096D01*
X1028547Y6043371D01*
X1023112Y6057036D01*
X1016000Y6069990D01*
X1007364Y6081877D01*
X997254Y6092647D01*
X985926Y6102045D01*
X973480Y6109919D01*
X960119Y6116167D01*
X946099Y6120739D01*
X931621Y6123482D01*
X924356Y6123940D01*
X920191Y6125159D01*
X916889Y6128004D01*
X915111Y6131915D01*
X915111Y6136284D01*
X916889Y6140196D01*
X920191Y6143040D01*
X924356Y6144260D01*
X931621Y6144717D01*
X946099Y6147460D01*
X960119Y6152032D01*
X973480Y6158280D01*
X985926Y6166154D01*
X997254Y6175552D01*
X1007364Y6186322D01*
X1016000Y6198209D01*
X1023112Y6211163D01*
X1028547Y6224828D01*
X1032205Y6239103D01*
X1034034Y6253734D01*
X1033983Y6269685D01*
X1034694Y6273546D01*
X1036929Y6276898D01*
X1040231Y6279083D01*
X1044092Y6279896D01*
X1048003Y6279083D01*
X1051306Y6276898D01*
X1063345Y6264859D01*
X1065530Y6261557D01*
X1066292Y6257696D01*
X1066292Y6089853D01*
X1067104Y6082385D01*
X1069238Y6075730D01*
X1072794Y6069584D01*
X1076401Y6065418D01*
X1546758Y5595061D01*
X1552549Y5590336D01*
X1558798Y5587187D01*
X1565656Y5585307D01*
X1571142Y5584901D01*
X1584553Y5584901D01*
X1588363Y5584139D01*
X1591614Y5582005D01*
X1593850Y5578805D01*
X1594713Y5574995D01*
X1594053Y5571134D01*
X1591970Y5567832D01*
X1588820Y5565495D01*
X1577289Y5560161D01*
X1565808Y5552846D01*
X1555394Y5544058D01*
X1546250Y5533898D01*
X1538935Y5523280D01*
X1536700Y5520893D01*
X1533804Y5519369D01*
X1530553Y5518861D01*
X1221638Y5518861D01*
X1217777Y5519623D01*
X1214475Y5521858D01*
X1212240Y5525160D01*
X1211478Y5529021D01*
X1212240Y5532932D01*
X1214475Y5536234D01*
X1222705Y5544464D01*
X1230020Y5554268D01*
X1233779Y5561126D01*
X1236065Y5563920D01*
X1239164Y5565800D01*
X1242720Y5566410D01*
X1273657Y5566410D01*
X1277569Y5565648D01*
X1280820Y5563463D01*
X1287627Y5556656D01*
X1295704Y5551017D01*
X1304594Y5546852D01*
X1314094Y5544312D01*
X1323898Y5543448D01*
X1333652Y5544312D01*
X1343152Y5546852D01*
X1352042Y5551017D01*
X1360119Y5556656D01*
X1367078Y5563616D01*
X1372666Y5571642D01*
X1376832Y5580532D01*
X1379372Y5590032D01*
X1380236Y5599836D01*
X1379372Y5609640D01*
X1376832Y5619140D01*
X1372666Y5628030D01*
X1367078Y5636056D01*
X1360119Y5643016D01*
X1352042Y5648655D01*
X1343152Y5652820D01*
X1333652Y5655360D01*
X1323898Y5656224D01*
X1314094Y5655360D01*
X1304594Y5652820D01*
X1295704Y5648655D01*
X1287627Y5643016D01*
X1280820Y5636209D01*
X1277569Y5634024D01*
X1273657Y5633262D01*
X1243634Y5633262D01*
X1240078Y5633872D01*
X1236980Y5635701D01*
X1234744Y5638546D01*
X1230020Y5647131D01*
X1222705Y5656935D01*
X1214018Y5665571D01*
X1204214Y5672937D01*
X1193444Y5678830D01*
X1181963Y5683097D01*
X1170025Y5685688D01*
X1157427Y5686602D01*
X1103172Y5686602D01*
X1090574Y5685688D01*
X1078585Y5683097D01*
X1067104Y5678830D01*
X1056335Y5672937D01*
X1046530Y5665571D01*
X1037894Y5656935D01*
X1030528Y5647131D01*
X1024940Y5636818D01*
X1022096Y5633567D01*
X1018184Y5631789D01*
X1013866Y5631789D01*
X1009903Y5633567D01*
X1007110Y5636818D01*
X1001471Y5647131D01*
X994105Y5656935D01*
X985469Y5665622D01*
X975664Y5672937D01*
X964895Y5678830D01*
X953414Y5683097D01*
X941425Y5685739D01*
X928827Y5686602D01*
X874572Y5686602D01*
X861974Y5685739D01*
X850036Y5683097D01*
X838555Y5678830D01*
X827786Y5672937D01*
X817981Y5665622D01*
X809294Y5656935D01*
X801979Y5647131D01*
X796086Y5636361D01*
X791819Y5624880D01*
X789178Y5612942D01*
X788314Y5600700D01*
X789178Y5588508D01*
X791819Y5576519D01*
X796086Y5565038D01*
X801979Y5554268D01*
X809294Y5544464D01*
X817981Y5535828D01*
X827786Y5528462D01*
X838555Y5522569D01*
X850036Y5518302D01*
X861974Y5515711D01*
X874572Y5514797D01*
X928827Y5514797D01*
X934974Y5515254D01*
X939241Y5514644D01*
X942848Y5512308D01*
X956818Y5498287D01*
X959154Y5494680D01*
X959815Y5490413D01*
X958596Y5486247D01*
X955751Y5482996D01*
X951839Y5481218D01*
X947521Y5481218D01*
X941425Y5482539D01*
X928827Y5483402D01*
X874572Y5483402D01*
X861974Y5482539D01*
X850036Y5479897D01*
X838555Y5475630D01*
X827786Y5469737D01*
X817981Y5462422D01*
X809294Y5453735D01*
X801979Y5443931D01*
X796086Y5433161D01*
X791819Y5421680D01*
X789178Y5409742D01*
X788314Y5397500D01*
X789178Y5385308D01*
X791819Y5373319D01*
X796086Y5361838D01*
X801979Y5351068D01*
X809294Y5341264D01*
X817981Y5332628D01*
X827786Y5325262D01*
X838555Y5319369D01*
X850036Y5315102D01*
X861974Y5312511D01*
X874572Y5311597D01*
X928827Y5311597D01*
X934974Y5312054D01*
X939241Y5311444D01*
X942848Y5309108D01*
X973734Y5278221D01*
X979576Y5273497D01*
X985774Y5270347D01*
X992632Y5268468D01*
X998118Y5268061D01*
X2122932Y5268061D01*
X2130399Y5268823D01*
X2137003Y5271008D01*
X2143150Y5274564D01*
X2147366Y5278120D01*
X2286711Y5417515D01*
X2290470Y5419852D01*
X2294839Y5420410D01*
X2299055Y5419090D01*
X2302306Y5416042D01*
X2308250Y5407406D01*
X2317394Y5397246D01*
X2327808Y5388457D01*
X2339289Y5381142D01*
X2351684Y5375402D01*
X2364689Y5371338D01*
X2378151Y5369102D01*
X2391765Y5368645D01*
X2405329Y5369966D01*
X2409240Y5370931D01*
X2412695Y5371134D01*
X2415997Y5370220D01*
X2418791Y5368239D01*
X2527249Y5259730D01*
X2530703Y5256580D01*
X2534208Y5253888D01*
X2537968Y5251500D01*
X2541930Y5249468D01*
X2545994Y5247741D01*
X2550261Y5246420D01*
X2554579Y5245455D01*
X2558999Y5244896D01*
X2563622Y5244693D01*
X2999435Y5244693D01*
X3002534Y5244185D01*
X3005328Y5242814D01*
X3008477Y5239359D01*
X3017164Y5230672D01*
X3026968Y5223357D01*
X3037738Y5217464D01*
X3049219Y5213197D01*
X3061157Y5210606D01*
G37*
G36*
X3109772Y5497830D02*
G01*
X3119831Y5503367D01*
X3129635Y5510682D01*
X3138322Y5519369D01*
X3145637Y5529173D01*
X3151174Y5539232D01*
X3109772Y5539232D01*
G37*
G36*
X3037027Y5497830D02*
G01*
X3037027Y5539232D01*
X2995625Y5539232D01*
X3001162Y5529173D01*
X3008477Y5519369D01*
X3017164Y5510682D01*
X3026968Y5503367D01*
G37*
G36*
X2995625Y5611926D02*
G01*
X3037027Y5611926D01*
X3037027Y5653328D01*
X3026968Y5647842D01*
X3017164Y5640527D01*
X3008477Y5631840D01*
X3001162Y5622036D01*
G37*
G36*
X3109772Y5611926D02*
G01*
X3151174Y5611926D01*
X3145637Y5622036D01*
X3138322Y5631840D01*
X3129635Y5640527D01*
X3119831Y5647842D01*
X3109772Y5653328D01*
G37*
G36*
X2432812Y5622544D02*
G01*
X2464003Y5622544D01*
X2470302Y5623255D01*
X2475788Y5625185D01*
X2480665Y5628233D01*
X2484780Y5632348D01*
X2487828Y5637225D01*
X2489758Y5642711D01*
X2490470Y5649010D01*
X2490470Y5680202D01*
X2432812Y5680202D01*
G37*
G36*
X2432812Y5769102D02*
G01*
X2490470Y5769102D01*
X2490470Y5800293D01*
X2489758Y5806592D01*
X2487828Y5812078D01*
X2484780Y5816955D01*
X2480665Y5821070D01*
X2475788Y5824118D01*
X2470302Y5826048D01*
X2464003Y5826760D01*
X2432812Y5826760D01*
G37*
G36*
X3020364Y5889752D02*
G01*
X3202635Y5889752D01*
X3217621Y5890717D01*
X3232099Y5893460D01*
X3246120Y5898032D01*
X3259480Y5904280D01*
X3271926Y5912154D01*
X3283254Y5921552D01*
X3293364Y5932322D01*
X3302000Y5944209D01*
X3309112Y5957163D01*
X3314547Y5970828D01*
X3318205Y5985103D01*
X3320034Y5999734D01*
X3320034Y6014466D01*
X3318205Y6029096D01*
X3314547Y6043371D01*
X3309112Y6057036D01*
X3302000Y6069990D01*
X3293364Y6081877D01*
X3283254Y6092647D01*
X3271926Y6102045D01*
X3259480Y6109919D01*
X3246120Y6116167D01*
X3232099Y6120739D01*
X3217621Y6123482D01*
X3210356Y6123940D01*
X3206191Y6125159D01*
X3204768Y6126378D01*
X3203041Y6125210D01*
X3199130Y6124448D01*
X3023870Y6124448D01*
X3019958Y6125210D01*
X3018231Y6126378D01*
X3016808Y6125159D01*
X3012643Y6123940D01*
X3005378Y6123482D01*
X2990900Y6120739D01*
X2976880Y6116167D01*
X2963519Y6109919D01*
X2951073Y6102045D01*
X2939745Y6092647D01*
X2929636Y6081877D01*
X2921000Y6069990D01*
X2913888Y6057036D01*
X2908452Y6043371D01*
X2904794Y6029096D01*
X2902966Y6014466D01*
X2902966Y5999734D01*
X2904794Y5985103D01*
X2908452Y5970828D01*
X2913888Y5957163D01*
X2921000Y5944209D01*
X2929636Y5932322D01*
X2939745Y5921552D01*
X2951073Y5912154D01*
X2963519Y5904280D01*
X2976880Y5898032D01*
X2990900Y5893460D01*
X3005378Y5890717D01*
G37*
G36*
X3013710Y6143904D02*
G01*
X3013710Y6209030D01*
X2915056Y6209030D01*
X2921000Y6198209D01*
X2929636Y6186322D01*
X2939745Y6175552D01*
X2951073Y6166154D01*
X2963519Y6158280D01*
X2976880Y6152032D01*
X2990900Y6147460D01*
X3005378Y6144717D01*
X3012643Y6144260D01*
G37*
G36*
X3209290Y6143904D02*
G01*
X3210356Y6144260D01*
X3217621Y6144717D01*
X3232099Y6147460D01*
X3246120Y6152032D01*
X3259480Y6158280D01*
X3271926Y6166154D01*
X3283254Y6175552D01*
X3293364Y6186322D01*
X3302000Y6198209D01*
X3307943Y6209030D01*
X3209290Y6209030D01*
G37*
G36*
X1626158Y6246774D02*
G01*
X1664207Y6246774D01*
X1670557Y6247485D01*
X1675993Y6249416D01*
X1680921Y6252514D01*
X1684985Y6256578D01*
X1688084Y6261506D01*
X1690014Y6266942D01*
X1690725Y6273292D01*
X1690725Y6311341D01*
X1626158Y6311341D01*
G37*
G36*
X1821535Y6247028D02*
G01*
X1836064Y6247028D01*
X1850491Y6248857D01*
X1864614Y6252464D01*
X1878126Y6257848D01*
X1890877Y6264859D01*
X1902663Y6273393D01*
X1913280Y6283350D01*
X1922576Y6294577D01*
X1930349Y6306870D01*
X1936546Y6320028D01*
X1941068Y6333896D01*
X1943760Y6348171D01*
X1944674Y6362700D01*
X1943760Y6377228D01*
X1941068Y6391503D01*
X1936546Y6405372D01*
X1930349Y6418529D01*
X1922576Y6430822D01*
X1913280Y6442049D01*
X1902663Y6452006D01*
X1890877Y6460540D01*
X1878126Y6467551D01*
X1864614Y6472936D01*
X1850491Y6476542D01*
X1836064Y6478371D01*
X1821535Y6478371D01*
X1807108Y6476542D01*
X1792986Y6472936D01*
X1779473Y6467551D01*
X1766722Y6460540D01*
X1754936Y6452006D01*
X1744319Y6442049D01*
X1735023Y6430822D01*
X1727250Y6418529D01*
X1721053Y6405372D01*
X1716532Y6391503D01*
X1713839Y6377228D01*
X1712925Y6362700D01*
X1713839Y6348171D01*
X1716532Y6333896D01*
X1721053Y6320028D01*
X1727250Y6306870D01*
X1735023Y6294577D01*
X1744319Y6283350D01*
X1754936Y6273393D01*
X1766722Y6264859D01*
X1779473Y6257848D01*
X1792986Y6252464D01*
X1807108Y6248857D01*
G37*
G36*
X2329535Y6247028D02*
G01*
X2344064Y6247028D01*
X2358491Y6248857D01*
X2372614Y6252464D01*
X2386126Y6257848D01*
X2398877Y6264859D01*
X2410663Y6273393D01*
X2421280Y6283350D01*
X2430576Y6294577D01*
X2438349Y6306870D01*
X2444546Y6320028D01*
X2449068Y6333896D01*
X2451760Y6348171D01*
X2452674Y6362700D01*
X2451760Y6377228D01*
X2449068Y6391503D01*
X2444546Y6405372D01*
X2438349Y6418529D01*
X2430576Y6430822D01*
X2421280Y6442049D01*
X2410663Y6452006D01*
X2398877Y6460540D01*
X2386126Y6467551D01*
X2372614Y6472936D01*
X2358491Y6476542D01*
X2344064Y6478371D01*
X2329535Y6478371D01*
X2315108Y6476542D01*
X2300986Y6472936D01*
X2287473Y6467551D01*
X2274722Y6460540D01*
X2262936Y6452006D01*
X2252319Y6442049D01*
X2243023Y6430822D01*
X2235250Y6418529D01*
X2229053Y6405372D01*
X2224532Y6391503D01*
X2221839Y6377228D01*
X2220925Y6362700D01*
X2221839Y6348171D01*
X2224532Y6333896D01*
X2229053Y6320028D01*
X2235250Y6306870D01*
X2243023Y6294577D01*
X2252319Y6283350D01*
X2262936Y6273393D01*
X2274722Y6264859D01*
X2287473Y6257848D01*
X2300986Y6252464D01*
X2315108Y6248857D01*
G37*
G36*
X2075535Y6247028D02*
G01*
X2090064Y6247028D01*
X2104491Y6248857D01*
X2118614Y6252464D01*
X2132126Y6257848D01*
X2144877Y6264859D01*
X2156663Y6273393D01*
X2167280Y6283350D01*
X2176576Y6294577D01*
X2184349Y6306870D01*
X2190546Y6320028D01*
X2195068Y6333896D01*
X2197760Y6348171D01*
X2198674Y6362700D01*
X2197760Y6377228D01*
X2195068Y6391503D01*
X2190546Y6405372D01*
X2184349Y6418529D01*
X2176576Y6430822D01*
X2167280Y6442049D01*
X2156663Y6452006D01*
X2144877Y6460540D01*
X2132126Y6467551D01*
X2118614Y6472936D01*
X2104491Y6476542D01*
X2090064Y6478371D01*
X2075535Y6478371D01*
X2061108Y6476542D01*
X2046986Y6472936D01*
X2033473Y6467551D01*
X2020722Y6460540D01*
X2008936Y6452006D01*
X1998319Y6442049D01*
X1989023Y6430822D01*
X1981250Y6418529D01*
X1975053Y6405372D01*
X1970532Y6391503D01*
X1967839Y6377228D01*
X1966925Y6362700D01*
X1967839Y6348171D01*
X1970532Y6333896D01*
X1975053Y6320028D01*
X1981250Y6306870D01*
X1989023Y6294577D01*
X1998319Y6283350D01*
X2008936Y6273393D01*
X2020722Y6264859D01*
X2033473Y6257848D01*
X2046986Y6252464D01*
X2061108Y6248857D01*
G37*
G36*
X3209290Y6313170D02*
G01*
X3307943Y6313170D01*
X3302000Y6323990D01*
X3293364Y6335877D01*
X3283254Y6346647D01*
X3271926Y6356045D01*
X3259480Y6363919D01*
X3246120Y6370167D01*
X3232099Y6374739D01*
X3217621Y6377482D01*
X3210356Y6377940D01*
X3209290Y6378295D01*
G37*
G36*
X2915056Y6313170D02*
G01*
X3013710Y6313170D01*
X3013710Y6378295D01*
X3012643Y6377940D01*
X3005378Y6377482D01*
X2990900Y6374739D01*
X2976880Y6370167D01*
X2963519Y6363919D01*
X2951073Y6356045D01*
X2939745Y6346647D01*
X2929636Y6335877D01*
X2921000Y6323990D01*
G37*
G36*
X1458874Y6414058D02*
G01*
X1523441Y6414058D01*
X1523441Y6478625D01*
X1485392Y6478625D01*
X1479042Y6477914D01*
X1473606Y6475984D01*
X1468678Y6472885D01*
X1464614Y6468821D01*
X1461516Y6463893D01*
X1459585Y6458458D01*
X1458874Y6452108D01*
G37*
G36*
X1626158Y6414058D02*
G01*
X1690725Y6414058D01*
X1690725Y6452108D01*
X1690014Y6458458D01*
X1688084Y6463893D01*
X1684985Y6468821D01*
X1680921Y6472885D01*
X1675993Y6475984D01*
X1670557Y6477914D01*
X1664207Y6478625D01*
X1626158Y6478625D01*
G37*

%LPD*%
D10*
X2134361Y5724652D02*
G01*
X2030501Y5620791D01*
X2030501Y5461812D01*
X1922551Y5353862D01*
X1173937Y5353862D01*
X1130300Y5397500D01*
X1880362Y5470652D02*
G01*
X1732711Y5618302D01*
X1570736Y5618302D01*
X1099718Y6089319D01*
X1099718Y6275730D01*
X860348Y6515100D01*
X825500Y6515100D01*
X1626362Y5724652D02*
G01*
X1626362Y6001613D01*
X858875Y6769100D01*
X825500Y6769100D01*
X1880362Y5724652D02*
G01*
X1880362Y5797321D01*
X1101826Y6575856D01*
X1101826Y6782155D01*
X860882Y7023100D01*
X825500Y7023100D01*
X901700Y5600700D02*
G01*
X1016939Y5485460D01*
X1611553Y5485460D01*
X1626362Y5470652D01*
X3111500Y6515100D02*
G01*
X2971165Y6515100D01*
X2283663Y5827598D01*
X2283663Y5461685D01*
X2123440Y5301462D01*
X997737Y5301462D01*
X901700Y5397500D01*
D11*
X2388361Y5470652D02*
G01*
X2563418Y5295595D01*
X3073400Y5295595D01*
D10*
X3111500Y6261100D02*
G01*
X3078276Y6261100D01*
X2898597Y6081420D01*
X2898597Y5724652D01*
X2388361Y5724652D02*
G01*
X2898597Y5724652D01*
X2898597Y5724652D02*
G01*
X2924352Y5724652D01*
X3073400Y5575604D01*
X1323873Y5599836D02*
G01*
X1131163Y5599836D01*
X1130300Y5600700D01*
X2134356Y5470649D02*
G01*
X2238225Y5574512D01*
X2238225Y5813574D01*
X2019300Y6032500D01*
D12*
G01*
X1130300Y5600700D03*
G01*
X1130300Y5397500D03*
D13*
G01*
X2388361Y5724652D03*
D14*
G01*
X2388361Y5470652D03*
G01*
X2134361Y5724652D03*
G01*
X2134361Y5470652D03*
G01*
X1880362Y5724652D03*
G01*
X1880362Y5470652D03*
G01*
X1626362Y5724652D03*
G01*
X1626362Y5470652D03*
D12*
G01*
X901700Y5397500D03*
G01*
X901700Y5600700D03*
D15*
G01*
X3073400Y5575604D03*
G01*
X3073400Y5295595D03*
D16*
G01*
X3111500Y6007100D03*
G01*
X3111500Y6261100D03*
G01*
X3111500Y6515100D03*
G01*
X3111500Y6769100D03*
G01*
X3111500Y7023100D03*
G01*
X3111500Y7277100D03*
G01*
X3111500Y7531100D03*
G01*
X3111500Y7785100D03*
G01*
X825500Y6007100D03*
G01*
X825500Y6261100D03*
G01*
X825500Y6515100D03*
G01*
X825500Y6769100D03*
G01*
X825500Y7023100D03*
G01*
X825500Y7277100D03*
G01*
X825500Y7531100D03*
G01*
X825500Y7785100D03*
D17*
G01*
X1574800Y6362700D03*
D18*
G01*
X1828800Y6362700D03*
G01*
X2082800Y6362700D03*
G01*
X2336800Y6362700D03*
D19*
G01*
X2019300Y6032500D03*
G01*
X1323873Y5599836D03*
M02*
