G04 Layer: TopSilkscreenLayer*
G04 EasyEDA v6.5.22, 2022-11-23 20:28:05*
G04 1b795e41dea74cadab935cb614b484a7,db865e68f4bc4fd99aa1dd1697a786d6,10*
G04 Gerber Generator version 0.2*
G04 Scale: 100 percent, Rotated: No, Reflected: No *
G04 Dimensions in millimeters *
G04 leading zeros omitted , absolute positions ,4 integer and 5 decimal *
%FSLAX45Y45*%
%MOMM*%

%ADD10C,0.1524*%
%ADD11C,0.1270*%
%ADD12C,0.2540*%
%ADD13C,0.1501*%

%LPD*%
D10*
X3114293Y5482589D02*
G01*
X3111500Y5487923D01*
X3106165Y5493512D01*
X3100577Y5496052D01*
X3089656Y5496052D01*
X3084322Y5493512D01*
X3078734Y5487923D01*
X3076193Y5482589D01*
X3073400Y5474207D01*
X3073400Y5460745D01*
X3076193Y5452618D01*
X3078734Y5447029D01*
X3084322Y5441695D01*
X3089656Y5438902D01*
X3100577Y5438902D01*
X3106165Y5441695D01*
X3111500Y5447029D01*
X3114293Y5452618D01*
X3114293Y5460745D01*
X3100577Y5460745D02*
G01*
X3114293Y5460745D01*
X3132327Y5496052D02*
G01*
X3132327Y5438902D01*
X3132327Y5496052D02*
G01*
X3170427Y5438902D01*
X3170427Y5496052D02*
G01*
X3170427Y5438902D01*
X3188461Y5496052D02*
G01*
X3188461Y5438902D01*
X3188461Y5496052D02*
G01*
X3207511Y5496052D01*
X3215640Y5493512D01*
X3221227Y5487923D01*
X3224022Y5482589D01*
X3226561Y5474207D01*
X3226561Y5460745D01*
X3224022Y5452618D01*
X3221227Y5447029D01*
X3215640Y5441695D01*
X3207511Y5438902D01*
X3188461Y5438902D01*
X2890265Y5496052D02*
G01*
X2862834Y5496052D01*
X2860293Y5471668D01*
X2862834Y5474207D01*
X2871215Y5477002D01*
X2879343Y5477002D01*
X2887472Y5474207D01*
X2893059Y5468873D01*
X2895600Y5460745D01*
X2895600Y5455157D01*
X2893059Y5447029D01*
X2887472Y5441695D01*
X2879343Y5438902D01*
X2871215Y5438902D01*
X2862834Y5441695D01*
X2860293Y5444236D01*
X2857500Y5449823D01*
X2913634Y5496052D02*
G01*
X2935477Y5438902D01*
X2957322Y5496052D02*
G01*
X2935477Y5438902D01*
X2882900Y5652515D02*
G01*
X2882900Y5543550D01*
X2882900Y5652515D02*
G01*
X2929636Y5652515D01*
X2945129Y5647436D01*
X2950463Y5642102D01*
X2955543Y5631687D01*
X2955543Y5616194D01*
X2950463Y5605779D01*
X2945129Y5600700D01*
X2929636Y5595365D01*
X2882900Y5595365D01*
X2989834Y5652515D02*
G01*
X3015995Y5543550D01*
X3041904Y5652515D02*
G01*
X3015995Y5543550D01*
X3041904Y5652515D02*
G01*
X3067811Y5543550D01*
X3093720Y5652515D02*
G01*
X3067811Y5543550D01*
X3128009Y5652515D02*
G01*
X3128009Y5543550D01*
X3128009Y5652515D02*
G01*
X3175000Y5652515D01*
X3190493Y5647436D01*
X3195574Y5642102D01*
X3200908Y5631687D01*
X3200908Y5621273D01*
X3195574Y5610860D01*
X3190493Y5605779D01*
X3175000Y5600700D01*
X3128009Y5600700D01*
X3164586Y5600700D02*
G01*
X3200908Y5543550D01*
D11*
X1951227Y6146800D02*
G01*
X1999741Y6146800D01*
X1964943Y6146800D02*
G01*
X1954529Y6157213D01*
X1951227Y6164071D01*
X1951227Y6174486D01*
X1954529Y6181344D01*
X1964943Y6184900D01*
X1999741Y6184900D01*
X1926844Y6207760D02*
G01*
X1999741Y6207760D01*
X1926844Y6207760D02*
G01*
X1926844Y6239002D01*
X1930400Y6249415D01*
X1933956Y6252718D01*
X1940813Y6256273D01*
X1947672Y6256273D01*
X1954529Y6252718D01*
X1958086Y6249415D01*
X1961641Y6239002D01*
X1961641Y6207760D01*
X1961641Y6231889D02*
G01*
X1999741Y6256273D01*
X1926844Y6279134D02*
G01*
X1999741Y6279134D01*
X1926844Y6279134D02*
G01*
X1926844Y6324092D01*
X1961641Y6279134D02*
G01*
X1961641Y6306820D01*
X1944370Y6350507D02*
G01*
X1940813Y6350507D01*
X1933956Y6353810D01*
X1930400Y6357365D01*
X1926844Y6364223D01*
X1926844Y6378194D01*
X1930400Y6385052D01*
X1933956Y6388607D01*
X1940813Y6391910D01*
X1947672Y6391910D01*
X1954529Y6388607D01*
X1964943Y6381750D01*
X1999741Y6346952D01*
X1999741Y6395465D01*
X1926844Y6452870D02*
G01*
X1975358Y6418326D01*
X1975358Y6470395D01*
X1926844Y6452870D02*
G01*
X1999741Y6452870D01*
X1926844Y6493255D02*
G01*
X1999741Y6493255D01*
X1999741Y6493255D02*
G01*
X1999741Y6534657D01*
X1926844Y6578345D02*
G01*
X1930400Y6567931D01*
X1940813Y6561073D01*
X1958086Y6557518D01*
X1968500Y6557518D01*
X1985772Y6561073D01*
X1996186Y6567931D01*
X1999741Y6578345D01*
X1999741Y6585204D01*
X1996186Y6595618D01*
X1985772Y6602729D01*
X1968500Y6606031D01*
X1958086Y6606031D01*
X1940813Y6602729D01*
X1930400Y6595618D01*
X1926844Y6585204D01*
X1926844Y6578345D01*
X1940813Y6628892D02*
G01*
X1937258Y6635750D01*
X1926844Y6646163D01*
X1999741Y6646163D01*
G36*
X2913684Y8527694D02*
G01*
X2899105Y8527288D01*
X2884576Y8526068D01*
X2870149Y8524036D01*
X2855823Y8521192D01*
X2841701Y8517534D01*
X2827832Y8513114D01*
X2814218Y8507933D01*
X2800908Y8501938D01*
X2787954Y8495233D01*
X2775356Y8487867D01*
X2763266Y8479739D01*
X2751582Y8470950D01*
X2740456Y8461552D01*
X2729839Y8451545D01*
X2719832Y8440928D01*
X2710434Y8429802D01*
X2701645Y8418169D01*
X2693568Y8406028D01*
X2686151Y8393480D01*
X2679446Y8380526D01*
X2673502Y8367217D01*
X2668270Y8353552D01*
X2663850Y8339683D01*
X2660243Y8325561D01*
X2657398Y8311235D01*
X2655316Y8296808D01*
X2654096Y8282279D01*
X2653690Y8267700D01*
X3173679Y8267700D01*
X3173272Y8282279D01*
X3172053Y8296808D01*
X3170021Y8311235D01*
X3167176Y8325561D01*
X3163519Y8339683D01*
X3161436Y8346643D01*
X3156610Y8360409D01*
X3151022Y8373872D01*
X3147974Y8380526D01*
X3141268Y8393480D01*
X3133852Y8406028D01*
X3125724Y8418169D01*
X3116986Y8429802D01*
X3107588Y8440928D01*
X3097530Y8451545D01*
X3086963Y8461552D01*
X3075787Y8470950D01*
X3064154Y8479739D01*
X3052013Y8487867D01*
X3039465Y8495233D01*
X3026511Y8501938D01*
X3013202Y8507933D01*
X2999587Y8513114D01*
X2985668Y8517534D01*
X2971546Y8521192D01*
X2957271Y8524036D01*
X2942793Y8526068D01*
X2928264Y8527288D01*
G37*
D12*
X3276600Y5372100D02*
G01*
X3276600Y5143500D01*
X2794000Y5143500D01*
X2794000Y5372100D01*
X3276600Y5372100D01*
D13*
X863193Y5704204D02*
G01*
X863193Y5104206D01*
X1649196Y5104206D01*
X1649196Y5204205D01*
X2471191Y5204205D01*
X2471191Y5104206D01*
X3314191Y5104206D01*
X3314191Y8412200D01*
X3114192Y8612200D02*
G01*
X848207Y8612200D01*
X648207Y8412200D02*
G01*
X648207Y5804204D01*
X764209Y5804204D01*
D12*
X2793700Y8189610D02*
G01*
X2793700Y8105790D01*
X2833700Y8147700D02*
G01*
X2754960Y8147700D01*
X1333500Y5384800D02*
G01*
X2603500Y5384800D01*
X1333500Y5384800D02*
G01*
X1333500Y7670800D01*
X2603500Y5384800D02*
G01*
X2603500Y7670800D01*
X1333500Y7670800D01*
X1968500Y7162800D02*
G01*
X1587500Y7162800D01*
X1587500Y7543800D01*
X1714500Y7543800D01*
X1714500Y7289800D01*
X1841500Y7289800D01*
X1841500Y7543800D01*
X1968500Y7543800D01*
X1968500Y7289800D01*
X2095500Y7289800D01*
X2095500Y7543800D01*
X2476500Y7543800D01*
X1587500Y6019800D02*
G01*
X2349500Y6019800D01*
X2349500Y6781800D01*
X1587500Y6781800D01*
X1587500Y6019800D01*
D13*
G75*
G01*
X648208Y8412201D02*
G02*
X848208Y8612200I200000J0D01*
G75*
G01*
X3114192Y8612200D02*
G02*
X3314192Y8412201I0J-199999D01*
G75*
G01*
X763194Y5804205D02*
G02*
X863194Y5704205I0J-100000D01*
D12*
G75*
G01
X3185744Y8267700D02*
G03X3185744Y8267700I-272034J0D01*
M02*
