G04 Layer: BottomLayer*
G04 EasyEDA v6.5.22, 2023-01-21 22:26:58*
G04 c6cdce557248458a9636279a13899d4b,db865e68f4bc4fd99aa1dd1697a786d6,10*
G04 Gerber Generator version 0.2*
G04 Scale: 100 percent, Rotated: No, Reflected: No *
G04 Dimensions in millimeters *
G04 leading zeros omitted , absolute positions ,4 integer and 5 decimal *
%FSLAX45Y45*%
%MOMM*%

%ADD10C,0.1500*%
%ADD11C,0.5000*%
%ADD12C,1.2000*%
%ADD13O,3.6576X1.8288*%
%ADD14R,1.8000X1.8000*%
%ADD15C,1.8000*%
%ADD16C,0.6100*%

%LPD*%
D10*
X825500Y6261100D02*
G01*
X960399Y6126200D01*
X1925599Y6126200D01*
X2019300Y6032500D01*
D11*
X825500Y6007100D02*
G01*
X825500Y5991250D01*
X1521155Y5295595D01*
X3073400Y5295595D01*
D10*
X2336800Y6362700D02*
G01*
X2997200Y7023100D01*
X3111500Y7023100D01*
X1828800Y6362700D02*
G01*
X2184400Y6007100D01*
X3111500Y6007100D01*
X2082800Y6362700D02*
G01*
X2396007Y6675907D01*
X2553004Y6675907D01*
X2822473Y6945376D01*
X2822473Y7007377D01*
X3092195Y7277100D01*
X3111500Y7277100D01*
X1692325Y6362700D02*
G01*
X1692325Y6421475D01*
X1757375Y6486525D01*
X1874926Y6486525D01*
X1955800Y6405651D01*
X1955800Y6316548D01*
X2040509Y6231839D01*
X3082239Y6231839D01*
X3111500Y6261100D01*
X1574800Y6362700D02*
G01*
X1692325Y6362700D01*
X3111500Y6769100D02*
G01*
X3129711Y6769100D01*
X3332124Y6566687D01*
X3332124Y5958281D01*
X2973679Y5599836D01*
X1323873Y5599836D01*
D12*
G01*
X3073400Y5575604D03*
G01*
X3073400Y5295595D03*
D13*
G01*
X3111500Y6007100D03*
G01*
X3111500Y6261100D03*
G01*
X3111500Y6515100D03*
G01*
X3111500Y6769100D03*
G01*
X3111500Y7023100D03*
G01*
X3111500Y7277100D03*
G01*
X3111500Y7531100D03*
G01*
X3111500Y7785100D03*
G01*
X825500Y6007100D03*
G01*
X825500Y6261100D03*
G01*
X825500Y6515100D03*
G01*
X825500Y6769100D03*
G01*
X825500Y7023100D03*
G01*
X825500Y7277100D03*
G01*
X825500Y7531100D03*
G01*
X825500Y7785100D03*
D14*
G01*
X1574800Y6362700D03*
D15*
G01*
X1828800Y6362700D03*
G01*
X2082800Y6362700D03*
G01*
X2336800Y6362700D03*
D16*
G01*
X2019300Y6032500D03*
G01*
X1323873Y5599836D03*
M02*
