G04 Layer: BottomLayer*
G04 EasyEDA v6.5.22, 2023-01-16 19:48:53*
G04 4f8c6aae87414bb99f8bf0166e842dda,db865e68f4bc4fd99aa1dd1697a786d6,10*
G04 Gerber Generator version 0.2*
G04 Scale: 100 percent, Rotated: No, Reflected: No *
G04 Dimensions in millimeters *
G04 leading zeros omitted , absolute positions ,4 integer and 5 decimal *
%FSLAX45Y45*%
%MOMM*%

%ADD10C,0.1500*%
%ADD11C,0.5000*%
%ADD12O,3.6576X1.8288*%
%ADD13C,1.2000*%
%ADD14R,1.8000X1.8000*%
%ADD15C,1.8000*%
%ADD16C,0.6100*%

%LPD*%
D10*
X1692325Y6362700D02*
G01*
X1692325Y6421450D01*
X2016150Y6745274D01*
X2622372Y6745274D01*
X2822473Y6945376D01*
X2822473Y7007377D01*
X3092195Y7277100D01*
X3111500Y7277100D01*
X1574800Y6362700D02*
G01*
X1692325Y6362700D01*
D11*
X2895600Y5308295D02*
G01*
X2196795Y6007100D01*
X825500Y6007100D01*
D10*
X2336800Y6362700D02*
G01*
X2692400Y6007100D01*
X3111500Y6007100D01*
X1828800Y6362700D02*
G01*
X2156561Y6690461D01*
X2624734Y6690461D01*
X2957372Y7023100D01*
X3111500Y7023100D01*
X2082800Y6362700D02*
G01*
X2208961Y6488861D01*
X2613406Y6488861D01*
X2841167Y6261100D01*
X3111500Y6261100D01*
X2025091Y6084570D02*
G01*
X1940407Y6169253D01*
X917346Y6169253D01*
X825500Y6261100D01*
D12*
G01*
X3111500Y6007100D03*
G01*
X3111500Y6261100D03*
G01*
X3111500Y6515100D03*
G01*
X3111500Y6769100D03*
G01*
X3111500Y7023100D03*
G01*
X3111500Y7277100D03*
G01*
X3111500Y7531100D03*
G01*
X3111500Y7785100D03*
G01*
X825500Y6007100D03*
G01*
X825500Y6261100D03*
G01*
X825500Y6515100D03*
G01*
X825500Y6769100D03*
G01*
X825500Y7023100D03*
G01*
X825500Y7277100D03*
G01*
X825500Y7531100D03*
G01*
X825500Y7785100D03*
D13*
G01*
X2895600Y5588304D03*
G01*
X2895600Y5308295D03*
D14*
G01*
X1574800Y6362700D03*
D15*
G01*
X1828800Y6362700D03*
G01*
X2082800Y6362700D03*
G01*
X2336800Y6362700D03*
D16*
G01*
X2025091Y6084570D03*
M02*
