G04 Layer: TopLayer*
G04 EasyEDA v6.5.22, 2023-01-16 19:48:53*
G04 4f8c6aae87414bb99f8bf0166e842dda,db865e68f4bc4fd99aa1dd1697a786d6,10*
G04 Gerber Generator version 0.2*
G04 Scale: 100 percent, Rotated: No, Reflected: No *
G04 Dimensions in millimeters *
G04 leading zeros omitted , absolute positions ,4 integer and 5 decimal *
%FSLAX45Y45*%
%MOMM*%

%ADD10C,0.1500*%
%ADD11C,0.5000*%
%ADD12O,1.7500092X1.1999976*%
%ADD13R,1.5240X1.5240*%
%ADD14C,1.5240*%
%ADD15O,3.6576X1.8288*%
%ADD16C,1.2000*%
%ADD17R,1.8000X1.8000*%
%ADD18C,1.8000*%
%ADD19C,0.6100*%
%ADD20C,0.0128*%

%LPD*%
G36*
X2276957Y5633872D02*
G01*
X2272893Y5634583D01*
X2269388Y5636869D01*
X2230983Y5675274D01*
X2228748Y5678627D01*
X2227986Y5682538D01*
X2228799Y5686450D01*
X2230780Y5691174D01*
X2234387Y5704332D01*
X2236216Y5717844D01*
X2236216Y5731459D01*
X2234387Y5744972D01*
X2230780Y5758129D01*
X2225497Y5770676D01*
X2218537Y5782411D01*
X2210054Y5793130D01*
X2200249Y5802630D01*
X2189276Y5810707D01*
X2177338Y5817260D01*
X2164588Y5822137D01*
X2151329Y5825337D01*
X2137765Y5826658D01*
X2124151Y5826201D01*
X2110689Y5823966D01*
X2097684Y5819902D01*
X2085289Y5814161D01*
X2074113Y5807049D01*
X2070100Y5805525D01*
X2065782Y5805881D01*
X2061972Y5807913D01*
X2059432Y5811367D01*
X2058517Y5815584D01*
X2058517Y6034379D01*
X2059279Y6038240D01*
X2061464Y6041542D01*
X2068271Y6048349D01*
X2073910Y6056376D01*
X2078075Y6065266D01*
X2080615Y6074765D01*
X2081479Y6084570D01*
X2080615Y6094374D01*
X2078075Y6103874D01*
X2073910Y6112764D01*
X2068271Y6120790D01*
X2061311Y6127750D01*
X2053285Y6133388D01*
X2044395Y6137554D01*
X2034895Y6140094D01*
X2025091Y6140958D01*
X2015286Y6140094D01*
X2005787Y6137554D01*
X1996897Y6133388D01*
X1988870Y6127750D01*
X1981911Y6120790D01*
X1976272Y6112764D01*
X1972106Y6103874D01*
X1969566Y6094374D01*
X1968703Y6084570D01*
X1969566Y6074765D01*
X1972106Y6065266D01*
X1976272Y6056376D01*
X1981911Y6048349D01*
X1988718Y6041542D01*
X1990902Y6038240D01*
X1991664Y6034379D01*
X1991664Y5773013D01*
X1990902Y5769152D01*
X1988718Y5765850D01*
X1985467Y5763666D01*
X1981555Y5762853D01*
X1977694Y5763615D01*
X1974392Y5765800D01*
X1972157Y5769051D01*
X1971497Y5770676D01*
X1964537Y5782411D01*
X1956054Y5793130D01*
X1946249Y5802630D01*
X1935276Y5810707D01*
X1923338Y5817260D01*
X1910588Y5822137D01*
X1903120Y5823915D01*
X1900529Y5824931D01*
X1898294Y5826658D01*
X1495501Y6229451D01*
X1493266Y6232753D01*
X1492504Y6236614D01*
X1493266Y6240526D01*
X1495501Y6243828D01*
X1498803Y6246012D01*
X1502664Y6246774D01*
X1664207Y6246774D01*
X1670557Y6247485D01*
X1675993Y6249416D01*
X1680921Y6252514D01*
X1684985Y6256578D01*
X1688084Y6261506D01*
X1690014Y6266942D01*
X1690725Y6273292D01*
X1690725Y6452108D01*
X1690014Y6458458D01*
X1688084Y6463893D01*
X1684985Y6468821D01*
X1680921Y6472885D01*
X1675993Y6475984D01*
X1670557Y6477914D01*
X1664207Y6478625D01*
X1485392Y6478625D01*
X1479042Y6477914D01*
X1473606Y6475984D01*
X1468678Y6472885D01*
X1464614Y6468821D01*
X1461516Y6463893D01*
X1459585Y6458458D01*
X1458874Y6452108D01*
X1458874Y6290564D01*
X1458112Y6286703D01*
X1455928Y6283401D01*
X1452626Y6281166D01*
X1448714Y6280404D01*
X1444853Y6281166D01*
X1441551Y6283401D01*
X1138224Y6586728D01*
X1135989Y6590030D01*
X1135227Y6593890D01*
X1135227Y6781647D01*
X1134465Y6789115D01*
X1132281Y6795719D01*
X1128725Y6801866D01*
X1125169Y6806082D01*
X1002487Y6928764D01*
X1000302Y6931964D01*
X999490Y6935774D01*
X1000201Y6939584D01*
X1002233Y6942886D01*
X1007364Y6948322D01*
X1016000Y6960209D01*
X1017219Y6962444D01*
X1020165Y6965797D01*
X1024229Y6967524D01*
X1028649Y6967423D01*
X1032611Y6965391D01*
X1035303Y6961886D01*
X1036269Y6956450D01*
X1037082Y6948982D01*
X1039215Y6942378D01*
X1042771Y6936231D01*
X1046378Y6932015D01*
X1232560Y6745833D01*
X1238351Y6741109D01*
X1244600Y6737959D01*
X1251458Y6736130D01*
X1256944Y6735673D01*
X2900426Y6735673D01*
X2904388Y6734911D01*
X2907690Y6732625D01*
X2909874Y6729272D01*
X2913888Y6719163D01*
X2921000Y6706209D01*
X2929636Y6694322D01*
X2939745Y6683552D01*
X2951073Y6674154D01*
X2963519Y6666280D01*
X2976880Y6660032D01*
X2990900Y6655460D01*
X3005378Y6652717D01*
X3012643Y6652259D01*
X3016808Y6651040D01*
X3020110Y6648196D01*
X3021888Y6644284D01*
X3021888Y6639915D01*
X3020110Y6636003D01*
X3016808Y6633159D01*
X3012643Y6631940D01*
X3005378Y6631482D01*
X2990900Y6628739D01*
X2976880Y6624167D01*
X2963519Y6617919D01*
X2951073Y6610045D01*
X2939745Y6600647D01*
X2929636Y6589877D01*
X2921000Y6577990D01*
X2913888Y6565036D01*
X2908452Y6551371D01*
X2904794Y6537096D01*
X2902966Y6522466D01*
X2902966Y6507734D01*
X2904794Y6493103D01*
X2908452Y6478828D01*
X2913888Y6465163D01*
X2921000Y6452209D01*
X2929636Y6440322D01*
X2940608Y6428740D01*
X2942691Y6425438D01*
X2943402Y6421628D01*
X2942590Y6417818D01*
X2940456Y6414566D01*
X2606344Y6080455D01*
X2601620Y6074664D01*
X2598470Y6068415D01*
X2596591Y6061557D01*
X2596184Y6056071D01*
X2596184Y5785510D01*
X2595422Y5781598D01*
X2593187Y5778296D01*
X2498090Y5683199D01*
X2494788Y5680964D01*
X2490876Y5680202D01*
X2432812Y5680202D01*
X2432812Y5652465D01*
X2432050Y5648553D01*
X2429814Y5645251D01*
X2426563Y5643067D01*
X2422652Y5642305D01*
X2370582Y5642305D01*
X2363114Y5641492D01*
X2357221Y5639562D01*
X2353411Y5639104D01*
X2349754Y5640070D01*
X2346655Y5642305D01*
X2344623Y5645505D01*
X2343912Y5649214D01*
X2343912Y5680202D01*
X2286254Y5680202D01*
X2286254Y5649010D01*
X2286711Y5645200D01*
X2286304Y5641035D01*
X2284272Y5637428D01*
X2281021Y5634888D01*
G37*

%LPC*%
G36*
X2286254Y5769102D02*
G01*
X2343912Y5769102D01*
X2343912Y5826760D01*
X2312720Y5826760D01*
X2306421Y5826048D01*
X2300935Y5824118D01*
X2296058Y5821070D01*
X2291943Y5816955D01*
X2288895Y5812078D01*
X2286965Y5806592D01*
X2286254Y5800293D01*
G37*
G36*
X2432812Y5769102D02*
G01*
X2490470Y5769102D01*
X2490470Y5800293D01*
X2489758Y5806592D01*
X2487828Y5812078D01*
X2484780Y5816955D01*
X2480665Y5821070D01*
X2475788Y5824118D01*
X2470302Y5826048D01*
X2464003Y5826760D01*
X2432812Y5826760D01*
G37*
G36*
X1821535Y6247028D02*
G01*
X1836064Y6247028D01*
X1850491Y6248857D01*
X1864614Y6252464D01*
X1878126Y6257848D01*
X1890877Y6264859D01*
X1902663Y6273393D01*
X1913280Y6283350D01*
X1922576Y6294577D01*
X1930349Y6306870D01*
X1936546Y6320028D01*
X1941068Y6333896D01*
X1943760Y6348171D01*
X1944674Y6362700D01*
X1943760Y6377228D01*
X1941068Y6391503D01*
X1936546Y6405372D01*
X1930349Y6418529D01*
X1922576Y6430822D01*
X1913280Y6442049D01*
X1902663Y6452006D01*
X1890877Y6460540D01*
X1878126Y6467551D01*
X1864614Y6472936D01*
X1850491Y6476542D01*
X1836064Y6478371D01*
X1821535Y6478371D01*
X1807108Y6476542D01*
X1792986Y6472936D01*
X1779473Y6467551D01*
X1766722Y6460540D01*
X1754936Y6452006D01*
X1744319Y6442049D01*
X1735023Y6430822D01*
X1727250Y6418529D01*
X1721053Y6405372D01*
X1716532Y6391503D01*
X1713839Y6377228D01*
X1712925Y6362700D01*
X1713839Y6348171D01*
X1716532Y6333896D01*
X1721053Y6320028D01*
X1727250Y6306870D01*
X1735023Y6294577D01*
X1744319Y6283350D01*
X1754936Y6273393D01*
X1766722Y6264859D01*
X1779473Y6257848D01*
X1792986Y6252464D01*
X1807108Y6248857D01*
G37*
G36*
X2329535Y6247028D02*
G01*
X2344064Y6247028D01*
X2358491Y6248857D01*
X2372614Y6252464D01*
X2386126Y6257848D01*
X2398877Y6264859D01*
X2410663Y6273393D01*
X2421280Y6283350D01*
X2430576Y6294577D01*
X2438349Y6306870D01*
X2444546Y6320028D01*
X2449068Y6333896D01*
X2451760Y6348171D01*
X2452674Y6362700D01*
X2451760Y6377228D01*
X2449068Y6391503D01*
X2444546Y6405372D01*
X2438349Y6418529D01*
X2430576Y6430822D01*
X2421280Y6442049D01*
X2410663Y6452006D01*
X2398877Y6460540D01*
X2386126Y6467551D01*
X2372614Y6472936D01*
X2358491Y6476542D01*
X2344064Y6478371D01*
X2329535Y6478371D01*
X2315108Y6476542D01*
X2300986Y6472936D01*
X2287473Y6467551D01*
X2274722Y6460540D01*
X2262936Y6452006D01*
X2252319Y6442049D01*
X2243023Y6430822D01*
X2235250Y6418529D01*
X2229053Y6405372D01*
X2224532Y6391503D01*
X2221839Y6377228D01*
X2220925Y6362700D01*
X2221839Y6348171D01*
X2224532Y6333896D01*
X2229053Y6320028D01*
X2235250Y6306870D01*
X2243023Y6294577D01*
X2252319Y6283350D01*
X2262936Y6273393D01*
X2274722Y6264859D01*
X2287473Y6257848D01*
X2300986Y6252464D01*
X2315108Y6248857D01*
G37*
G36*
X2031441Y6258966D02*
G01*
X2031441Y6311341D01*
X1979117Y6311341D01*
X1981250Y6306870D01*
X1989023Y6294577D01*
X1998319Y6283350D01*
X2008936Y6273393D01*
X2020722Y6264859D01*
G37*
G36*
X2134158Y6258966D02*
G01*
X2144877Y6264859D01*
X2156663Y6273393D01*
X2167280Y6283350D01*
X2176576Y6294577D01*
X2184349Y6306870D01*
X2186482Y6311341D01*
X2134158Y6311341D01*
G37*
G36*
X1979117Y6414058D02*
G01*
X2031441Y6414058D01*
X2031441Y6466433D01*
X2020722Y6460540D01*
X2008936Y6452006D01*
X1998319Y6442049D01*
X1989023Y6430822D01*
X1981250Y6418529D01*
G37*
G36*
X2134158Y6414058D02*
G01*
X2186482Y6414058D01*
X2184349Y6418529D01*
X2176576Y6430822D01*
X2167280Y6442049D01*
X2156663Y6452006D01*
X2144877Y6460540D01*
X2134158Y6466433D01*
G37*

%LPD*%
G36*
X594868Y5105908D02*
G01*
X590956Y5106670D01*
X587705Y5108905D01*
X585470Y5112156D01*
X584708Y5116068D01*
X584708Y5909716D01*
X585470Y5913577D01*
X587705Y5916879D01*
X590956Y5919063D01*
X594868Y5919876D01*
X598779Y5919063D01*
X602030Y5916879D01*
X754380Y5764530D01*
X760222Y5759805D01*
X766419Y5756656D01*
X773277Y5754827D01*
X778764Y5754370D01*
X925169Y5754370D01*
X929030Y5753608D01*
X932332Y5751423D01*
X1027328Y5656427D01*
X1029665Y5652820D01*
X1030274Y5648553D01*
X1029055Y5644388D01*
X1024940Y5636818D01*
X1022096Y5633567D01*
X1018184Y5631789D01*
X1013866Y5631789D01*
X1009903Y5633567D01*
X1007110Y5636818D01*
X1001471Y5647131D01*
X994105Y5656935D01*
X985469Y5665622D01*
X975664Y5672937D01*
X964895Y5678830D01*
X953414Y5683097D01*
X941425Y5685739D01*
X928827Y5686602D01*
X874572Y5686602D01*
X861974Y5685739D01*
X850036Y5683097D01*
X838555Y5678830D01*
X827786Y5672937D01*
X817981Y5665622D01*
X809294Y5656935D01*
X801979Y5647131D01*
X796086Y5636361D01*
X791819Y5624880D01*
X789178Y5612942D01*
X788314Y5600700D01*
X789178Y5588508D01*
X791819Y5576519D01*
X796086Y5565038D01*
X801979Y5554268D01*
X809294Y5544464D01*
X817981Y5535828D01*
X827786Y5528462D01*
X838555Y5522569D01*
X850036Y5518302D01*
X861974Y5515711D01*
X874572Y5514797D01*
X928827Y5514797D01*
X934974Y5515254D01*
X939241Y5514644D01*
X942848Y5512308D01*
X956818Y5498287D01*
X959154Y5494680D01*
X959815Y5490413D01*
X958596Y5486247D01*
X955751Y5482996D01*
X951839Y5481218D01*
X947521Y5481218D01*
X941425Y5482539D01*
X928827Y5483402D01*
X874572Y5483402D01*
X861974Y5482539D01*
X850036Y5479897D01*
X838555Y5475630D01*
X827786Y5469737D01*
X817981Y5462422D01*
X809294Y5453735D01*
X801979Y5443931D01*
X796086Y5433161D01*
X791819Y5421680D01*
X789178Y5409742D01*
X788314Y5397500D01*
X789178Y5385308D01*
X791819Y5373319D01*
X796086Y5361838D01*
X801979Y5351068D01*
X809294Y5341264D01*
X817981Y5332628D01*
X827786Y5325262D01*
X838555Y5319369D01*
X850036Y5315102D01*
X861974Y5312511D01*
X874572Y5311597D01*
X928827Y5311597D01*
X934974Y5312054D01*
X939241Y5311444D01*
X942848Y5309108D01*
X973734Y5278221D01*
X979576Y5273497D01*
X985774Y5270347D01*
X992632Y5268468D01*
X998118Y5268061D01*
X2166924Y5268061D01*
X2174392Y5268823D01*
X2180996Y5271008D01*
X2187143Y5274564D01*
X2191359Y5278120D01*
X2307031Y5393842D01*
X2310130Y5395925D01*
X2313787Y5396788D01*
X2317496Y5396230D01*
X2320798Y5394401D01*
X2327808Y5388457D01*
X2339289Y5381142D01*
X2351684Y5375402D01*
X2364689Y5371338D01*
X2378151Y5369102D01*
X2391765Y5368645D01*
X2405329Y5369966D01*
X2418588Y5373166D01*
X2431338Y5378043D01*
X2443276Y5384596D01*
X2454249Y5392674D01*
X2464054Y5402173D01*
X2472537Y5412892D01*
X2473655Y5414772D01*
X2475890Y5417413D01*
X2478938Y5419140D01*
X2482392Y5419750D01*
X2707944Y5419750D01*
X2711856Y5418988D01*
X2715107Y5416753D01*
X2807360Y5324551D01*
X2809697Y5320893D01*
X2810306Y5316626D01*
X2809697Y5308295D01*
X2810611Y5296103D01*
X2813202Y5284114D01*
X2817469Y5272633D01*
X2823362Y5261864D01*
X2830677Y5252059D01*
X2839364Y5243372D01*
X2849168Y5236057D01*
X2859938Y5230164D01*
X2871419Y5225897D01*
X2883357Y5223306D01*
X2895600Y5222443D01*
X2907842Y5223306D01*
X2919780Y5225897D01*
X2931261Y5230164D01*
X2942031Y5236057D01*
X2951835Y5243372D01*
X2960522Y5252059D01*
X2967837Y5261864D01*
X2973730Y5272633D01*
X2977997Y5284114D01*
X2980588Y5296103D01*
X2981502Y5308295D01*
X2980588Y5320538D01*
X2977997Y5332476D01*
X2973730Y5343956D01*
X2967837Y5354726D01*
X2960522Y5364530D01*
X2951835Y5373217D01*
X2942031Y5380532D01*
X2931261Y5386425D01*
X2919780Y5390692D01*
X2907842Y5393283D01*
X2895600Y5394198D01*
X2887268Y5393588D01*
X2883001Y5394198D01*
X2879344Y5396534D01*
X2769412Y5506516D01*
X2765958Y5509666D01*
X2762453Y5512358D01*
X2758694Y5514746D01*
X2754731Y5516778D01*
X2750667Y5518505D01*
X2746400Y5519826D01*
X2742082Y5520791D01*
X2737662Y5521350D01*
X2733040Y5521553D01*
X2482392Y5521553D01*
X2478938Y5522163D01*
X2475890Y5523890D01*
X2473655Y5526532D01*
X2472537Y5528411D01*
X2464054Y5539130D01*
X2454249Y5548630D01*
X2442718Y5557113D01*
X2439873Y5560263D01*
X2438603Y5564276D01*
X2439060Y5568492D01*
X2441194Y5572099D01*
X2444597Y5574588D01*
X2448712Y5575452D01*
X2470505Y5575452D01*
X2477973Y5576265D01*
X2484577Y5578398D01*
X2490724Y5581954D01*
X2494940Y5585561D01*
X2652826Y5743448D01*
X2657551Y5749290D01*
X2660700Y5755487D01*
X2662580Y5762345D01*
X2662986Y5767832D01*
X2662986Y6038443D01*
X2663748Y6042304D01*
X2665984Y6045606D01*
X2930550Y6310172D01*
X2933852Y6312408D01*
X2937713Y6313170D01*
X3013710Y6313170D01*
X3013710Y6387592D01*
X3014472Y6391503D01*
X3016707Y6394754D01*
X3019958Y6396990D01*
X3023870Y6397752D01*
X3199130Y6397752D01*
X3203041Y6396990D01*
X3204768Y6395821D01*
X3206191Y6397040D01*
X3210356Y6398260D01*
X3217621Y6398717D01*
X3232099Y6401460D01*
X3246120Y6406032D01*
X3259480Y6412280D01*
X3271926Y6420154D01*
X3283254Y6429552D01*
X3293364Y6440322D01*
X3302000Y6452209D01*
X3309112Y6465163D01*
X3314547Y6478828D01*
X3318205Y6493103D01*
X3320034Y6507734D01*
X3320034Y6522466D01*
X3318205Y6537096D01*
X3314547Y6551371D01*
X3309112Y6565036D01*
X3302000Y6577990D01*
X3293364Y6589877D01*
X3283254Y6600647D01*
X3271926Y6610045D01*
X3259480Y6617919D01*
X3246120Y6624167D01*
X3232099Y6628739D01*
X3217621Y6631482D01*
X3210356Y6631940D01*
X3206191Y6633159D01*
X3202889Y6636003D01*
X3201111Y6639915D01*
X3201111Y6644284D01*
X3202889Y6648196D01*
X3206191Y6651040D01*
X3210356Y6652259D01*
X3217621Y6652717D01*
X3232099Y6655460D01*
X3246120Y6660032D01*
X3259480Y6666280D01*
X3271926Y6674154D01*
X3283254Y6683552D01*
X3293364Y6694322D01*
X3302000Y6706209D01*
X3309112Y6719163D01*
X3314547Y6732828D01*
X3318205Y6747103D01*
X3320034Y6761734D01*
X3320034Y6776466D01*
X3318205Y6791096D01*
X3314547Y6805371D01*
X3309112Y6819036D01*
X3302000Y6831990D01*
X3293364Y6843877D01*
X3283254Y6854647D01*
X3271926Y6864045D01*
X3259480Y6871919D01*
X3246120Y6878167D01*
X3232099Y6882739D01*
X3217621Y6885482D01*
X3210356Y6885940D01*
X3206191Y6887159D01*
X3202889Y6890003D01*
X3201111Y6893915D01*
X3201111Y6898284D01*
X3202889Y6902196D01*
X3206191Y6905040D01*
X3210356Y6906259D01*
X3217621Y6906717D01*
X3232099Y6909460D01*
X3246120Y6914032D01*
X3259480Y6920280D01*
X3271926Y6928154D01*
X3283254Y6937552D01*
X3293364Y6948322D01*
X3302000Y6960209D01*
X3309112Y6973163D01*
X3314547Y6986828D01*
X3318205Y7001103D01*
X3320034Y7015734D01*
X3320034Y7030466D01*
X3318205Y7045096D01*
X3314547Y7059371D01*
X3309112Y7073036D01*
X3302000Y7085990D01*
X3293364Y7097877D01*
X3283254Y7108647D01*
X3271926Y7118045D01*
X3259480Y7125919D01*
X3246120Y7132167D01*
X3232099Y7136739D01*
X3217621Y7139482D01*
X3210356Y7139940D01*
X3206191Y7141159D01*
X3202889Y7144003D01*
X3201111Y7147915D01*
X3201111Y7152284D01*
X3202889Y7156196D01*
X3206191Y7159040D01*
X3210356Y7160259D01*
X3217621Y7160717D01*
X3232099Y7163460D01*
X3246120Y7168032D01*
X3259480Y7174280D01*
X3271926Y7182154D01*
X3283254Y7191552D01*
X3293364Y7202322D01*
X3302000Y7214209D01*
X3309112Y7227163D01*
X3314547Y7240828D01*
X3318205Y7255103D01*
X3320034Y7269734D01*
X3320034Y7284466D01*
X3318205Y7299096D01*
X3314547Y7313371D01*
X3309112Y7327036D01*
X3302000Y7339990D01*
X3293364Y7351877D01*
X3283254Y7362647D01*
X3271926Y7372045D01*
X3259480Y7379919D01*
X3246120Y7386167D01*
X3232099Y7390739D01*
X3217621Y7393482D01*
X3210356Y7393940D01*
X3206191Y7395159D01*
X3202889Y7398003D01*
X3201111Y7401915D01*
X3201111Y7406284D01*
X3202889Y7410196D01*
X3206191Y7413040D01*
X3210356Y7414259D01*
X3217621Y7414717D01*
X3232099Y7417460D01*
X3246120Y7422032D01*
X3259480Y7428280D01*
X3271926Y7436154D01*
X3283254Y7445552D01*
X3293364Y7456322D01*
X3302000Y7468209D01*
X3309112Y7481163D01*
X3314547Y7494828D01*
X3318205Y7509103D01*
X3320034Y7523734D01*
X3320034Y7538466D01*
X3318205Y7553096D01*
X3314547Y7567371D01*
X3309112Y7581036D01*
X3302000Y7593990D01*
X3293364Y7605877D01*
X3283254Y7616647D01*
X3271926Y7626045D01*
X3259480Y7633919D01*
X3246120Y7640167D01*
X3232099Y7644739D01*
X3217621Y7647482D01*
X3210356Y7647940D01*
X3206191Y7649159D01*
X3202889Y7652003D01*
X3201111Y7655915D01*
X3201111Y7660284D01*
X3202889Y7664196D01*
X3206191Y7667040D01*
X3210356Y7668259D01*
X3217621Y7668717D01*
X3232099Y7671460D01*
X3246120Y7676032D01*
X3259480Y7682280D01*
X3271926Y7690154D01*
X3283254Y7699552D01*
X3293364Y7710322D01*
X3302000Y7722209D01*
X3309112Y7735163D01*
X3314547Y7748828D01*
X3318205Y7763103D01*
X3320034Y7777734D01*
X3320034Y7792466D01*
X3318205Y7807096D01*
X3314547Y7821371D01*
X3309112Y7835036D01*
X3302000Y7847990D01*
X3293364Y7859877D01*
X3283254Y7870647D01*
X3271926Y7880045D01*
X3259480Y7887919D01*
X3246120Y7894167D01*
X3232099Y7898739D01*
X3217621Y7901482D01*
X3202635Y7902448D01*
X3020364Y7902448D01*
X3005378Y7901482D01*
X2990900Y7898739D01*
X2976880Y7894167D01*
X2963519Y7887919D01*
X2951073Y7880045D01*
X2939745Y7870647D01*
X2929636Y7859877D01*
X2921000Y7847990D01*
X2913888Y7835036D01*
X2908452Y7821371D01*
X2904794Y7807096D01*
X2902966Y7792466D01*
X2902966Y7777734D01*
X2904794Y7763103D01*
X2908452Y7748828D01*
X2913888Y7735163D01*
X2921000Y7722209D01*
X2929636Y7710322D01*
X2939745Y7699552D01*
X2951073Y7690154D01*
X2963519Y7682280D01*
X2976880Y7676032D01*
X2990900Y7671460D01*
X3005378Y7668717D01*
X3012643Y7668259D01*
X3016808Y7667040D01*
X3020110Y7664196D01*
X3021888Y7660284D01*
X3021888Y7655915D01*
X3020110Y7652003D01*
X3016808Y7649159D01*
X3012643Y7647940D01*
X3005378Y7647482D01*
X2990900Y7644739D01*
X2976880Y7640167D01*
X2963519Y7633919D01*
X2951073Y7626045D01*
X2939745Y7616647D01*
X2929636Y7605877D01*
X2921000Y7593990D01*
X2913888Y7581036D01*
X2908452Y7567371D01*
X2904794Y7553096D01*
X2902966Y7538466D01*
X2902966Y7523734D01*
X2904794Y7509103D01*
X2908452Y7494828D01*
X2913888Y7481163D01*
X2921000Y7468209D01*
X2929636Y7456322D01*
X2939745Y7445552D01*
X2951073Y7436154D01*
X2963519Y7428280D01*
X2976880Y7422032D01*
X2990900Y7417460D01*
X3005378Y7414717D01*
X3012643Y7414259D01*
X3016808Y7413040D01*
X3020110Y7410196D01*
X3021888Y7406284D01*
X3021888Y7401915D01*
X3020110Y7398003D01*
X3016808Y7395159D01*
X3012643Y7393940D01*
X3005378Y7393482D01*
X2990900Y7390739D01*
X2976880Y7386167D01*
X2963519Y7379919D01*
X2951073Y7372045D01*
X2939745Y7362647D01*
X2929636Y7351877D01*
X2921000Y7339990D01*
X2913888Y7327036D01*
X2908452Y7313371D01*
X2904794Y7299096D01*
X2902966Y7284466D01*
X2902966Y7269734D01*
X2904794Y7255103D01*
X2908452Y7240828D01*
X2913888Y7227163D01*
X2921000Y7214209D01*
X2929636Y7202322D01*
X2939745Y7191552D01*
X2951073Y7182154D01*
X2963519Y7174280D01*
X2976880Y7168032D01*
X2990900Y7163460D01*
X3005378Y7160717D01*
X3012643Y7160259D01*
X3016808Y7159040D01*
X3020110Y7156196D01*
X3021888Y7152284D01*
X3021888Y7147915D01*
X3020110Y7144003D01*
X3016808Y7141159D01*
X3012643Y7139940D01*
X3005378Y7139482D01*
X2990900Y7136739D01*
X2976880Y7132167D01*
X2963519Y7125919D01*
X2951073Y7118045D01*
X2939745Y7108647D01*
X2929636Y7097877D01*
X2921000Y7085990D01*
X2913888Y7073036D01*
X2908452Y7059371D01*
X2904794Y7045096D01*
X2902966Y7030466D01*
X2902966Y7015734D01*
X2904794Y7001103D01*
X2908452Y6986828D01*
X2913888Y6973163D01*
X2921000Y6960209D01*
X2929636Y6948322D01*
X2939745Y6937552D01*
X2951073Y6928154D01*
X2963519Y6920280D01*
X2976880Y6914032D01*
X2990900Y6909460D01*
X3005378Y6906717D01*
X3012643Y6906259D01*
X3016808Y6905040D01*
X3020110Y6902196D01*
X3021888Y6898284D01*
X3021888Y6893915D01*
X3020110Y6890003D01*
X3016808Y6887159D01*
X3012643Y6885940D01*
X3005378Y6885482D01*
X2990900Y6882739D01*
X2976880Y6878167D01*
X2963519Y6871919D01*
X2951073Y6864045D01*
X2939745Y6854647D01*
X2929636Y6843877D01*
X2921000Y6831990D01*
X2913888Y6819036D01*
X2909874Y6808927D01*
X2907690Y6805574D01*
X2904388Y6803288D01*
X2900426Y6802526D01*
X2689352Y6802526D01*
X2685084Y6803440D01*
X2681579Y6806133D01*
X2679547Y6810044D01*
X2679344Y6814464D01*
X2680208Y6820255D01*
X2667762Y8599881D01*
X2668524Y8603792D01*
X2670708Y8607094D01*
X2674010Y8609330D01*
X2677922Y8610092D01*
X3354832Y8610092D01*
X3358743Y8609330D01*
X3361994Y8607094D01*
X3364229Y8603843D01*
X3364992Y8599932D01*
X3364992Y5116068D01*
X3364229Y5112156D01*
X3361994Y5108905D01*
X3358743Y5106670D01*
X3354832Y5105908D01*
G37*

%LPC*%
G36*
X2931972Y5510530D02*
G01*
X2942031Y5516067D01*
X2951835Y5523382D01*
X2960522Y5532069D01*
X2967837Y5541873D01*
X2973374Y5551932D01*
X2931972Y5551932D01*
G37*
G36*
X2859227Y5510530D02*
G01*
X2859227Y5551932D01*
X2817825Y5551932D01*
X2823362Y5541873D01*
X2830677Y5532069D01*
X2839364Y5523382D01*
X2849168Y5516067D01*
G37*
G36*
X2817825Y5624626D02*
G01*
X2859227Y5624626D01*
X2859227Y5666028D01*
X2849168Y5660542D01*
X2839364Y5653227D01*
X2830677Y5644540D01*
X2823362Y5634736D01*
G37*
G36*
X2931972Y5624626D02*
G01*
X2973374Y5624626D01*
X2967837Y5634736D01*
X2960522Y5644540D01*
X2951835Y5653227D01*
X2942031Y5660542D01*
X2931972Y5666028D01*
G37*
G36*
X3020364Y5889752D02*
G01*
X3202635Y5889752D01*
X3217621Y5890717D01*
X3232099Y5893460D01*
X3246120Y5898032D01*
X3259480Y5904280D01*
X3271926Y5912154D01*
X3283254Y5921552D01*
X3293364Y5932322D01*
X3302000Y5944209D01*
X3309112Y5957163D01*
X3314547Y5970828D01*
X3318205Y5985103D01*
X3320034Y5999734D01*
X3320034Y6014466D01*
X3318205Y6029096D01*
X3314547Y6043371D01*
X3309112Y6057036D01*
X3302000Y6069990D01*
X3293364Y6081877D01*
X3283254Y6092647D01*
X3271926Y6102045D01*
X3259480Y6109919D01*
X3246120Y6116167D01*
X3232099Y6120739D01*
X3217621Y6123482D01*
X3210356Y6123940D01*
X3206191Y6125159D01*
X3204768Y6126378D01*
X3203041Y6125210D01*
X3199130Y6124448D01*
X3023870Y6124448D01*
X3019958Y6125210D01*
X3018231Y6126378D01*
X3016808Y6125159D01*
X3012643Y6123940D01*
X3005378Y6123482D01*
X2990900Y6120739D01*
X2976880Y6116167D01*
X2963519Y6109919D01*
X2951073Y6102045D01*
X2939745Y6092647D01*
X2929636Y6081877D01*
X2921000Y6069990D01*
X2913888Y6057036D01*
X2908452Y6043371D01*
X2904794Y6029096D01*
X2902966Y6014466D01*
X2902966Y5999734D01*
X2904794Y5985103D01*
X2908452Y5970828D01*
X2913888Y5957163D01*
X2921000Y5944209D01*
X2929636Y5932322D01*
X2939745Y5921552D01*
X2951073Y5912154D01*
X2963519Y5904280D01*
X2976880Y5898032D01*
X2990900Y5893460D01*
X3005378Y5890717D01*
G37*
G36*
X3209290Y6143904D02*
G01*
X3210356Y6144260D01*
X3217621Y6144717D01*
X3232099Y6147460D01*
X3246120Y6152032D01*
X3259480Y6158280D01*
X3271926Y6166154D01*
X3283254Y6175552D01*
X3293364Y6186322D01*
X3302000Y6198209D01*
X3307943Y6209030D01*
X3209290Y6209030D01*
G37*
G36*
X3013710Y6143904D02*
G01*
X3013710Y6209030D01*
X2915056Y6209030D01*
X2921000Y6198209D01*
X2929636Y6186322D01*
X2939745Y6175552D01*
X2951073Y6166154D01*
X2963519Y6158280D01*
X2976880Y6152032D01*
X2990900Y6147460D01*
X3005378Y6144717D01*
X3012643Y6144260D01*
G37*
G36*
X3209290Y6313170D02*
G01*
X3307943Y6313170D01*
X3302000Y6323990D01*
X3293364Y6335877D01*
X3283254Y6346647D01*
X3271926Y6356045D01*
X3259480Y6363919D01*
X3246120Y6370167D01*
X3232099Y6374739D01*
X3217621Y6377482D01*
X3210356Y6377940D01*
X3209290Y6378295D01*
G37*

%LPD*%
D10*
X2134361Y5724652D02*
G01*
X2246934Y5612079D01*
X2246934Y5435320D01*
X2177389Y5365775D01*
X1162024Y5365775D01*
X1130300Y5397500D01*
X1880362Y5470652D02*
G01*
X1753412Y5597601D01*
X1593164Y5597601D01*
X1099718Y6091046D01*
X1099718Y6275730D01*
X860348Y6515100D01*
X825500Y6515100D01*
X1626362Y5724652D02*
G01*
X1626362Y6001613D01*
X858875Y6769100D01*
X825500Y6769100D01*
X1880362Y5724652D02*
G01*
X1880362Y5797321D01*
X1101826Y6575856D01*
X1101826Y6782155D01*
X860882Y7023100D01*
X825500Y7023100D01*
X901700Y5600700D02*
G01*
X1003300Y5499100D01*
X1597913Y5499100D01*
X1626362Y5470652D01*
X3111500Y6515100D02*
G01*
X3088208Y6515100D01*
X2629585Y6056477D01*
X2629585Y5767451D01*
X2471013Y5608878D01*
X2370074Y5608878D01*
X2283663Y5522468D01*
X2283663Y5417693D01*
X2167432Y5301462D01*
X997737Y5301462D01*
X901700Y5397500D01*
X3111500Y6769100D02*
G01*
X1256537Y6769100D01*
X1069695Y6955942D01*
X1069695Y7053046D01*
X972642Y7150100D01*
X682040Y7150100D01*
X613359Y7081418D01*
X613359Y5952820D01*
X778382Y5787796D01*
X943203Y5787796D01*
X1130300Y5600700D01*
D11*
X2388361Y5470652D02*
G01*
X2733243Y5470652D01*
X2895600Y5308295D01*
D10*
X2388361Y5828385D02*
G01*
X2082800Y6133947D01*
X2082800Y6362700D01*
X2388361Y5724652D02*
G01*
X2388361Y5828385D01*
X2895600Y5588304D02*
G01*
X2895600Y6065469D01*
X3091230Y6261100D01*
X3111500Y6261100D01*
X2134361Y5470652D02*
G01*
X2025091Y5579922D01*
X2025091Y6084570D01*
D12*
G01*
X1130300Y5600700D03*
G01*
X1130300Y5397500D03*
D13*
G01*
X2388361Y5724652D03*
D14*
G01*
X2388361Y5470652D03*
G01*
X2134361Y5724652D03*
G01*
X2134361Y5470652D03*
G01*
X1880362Y5724652D03*
G01*
X1880362Y5470652D03*
G01*
X1626362Y5724652D03*
G01*
X1626362Y5470652D03*
D12*
G01*
X901700Y5397500D03*
G01*
X901700Y5600700D03*
D15*
G01*
X3111500Y6007100D03*
G01*
X3111500Y6261100D03*
G01*
X3111500Y6515100D03*
G01*
X3111500Y6769100D03*
G01*
X3111500Y7023100D03*
G01*
X3111500Y7277100D03*
G01*
X3111500Y7531100D03*
G01*
X3111500Y7785100D03*
G01*
X825500Y6007100D03*
G01*
X825500Y6261100D03*
G01*
X825500Y6515100D03*
G01*
X825500Y6769100D03*
G01*
X825500Y7023100D03*
G01*
X825500Y7277100D03*
G01*
X825500Y7531100D03*
G01*
X825500Y7785100D03*
D16*
G01*
X2895600Y5588304D03*
G01*
X2895600Y5308295D03*
D17*
G01*
X1574800Y6362700D03*
D18*
G01*
X1828800Y6362700D03*
G01*
X2082800Y6362700D03*
G01*
X2336800Y6362700D03*
D19*
G01*
X2025091Y6084570D03*
M02*
