G04 Layer: BottomSilkscreenLayer*
G04 EasyEDA v6.5.22, 2022-11-23 20:28:05*
G04 1b795e41dea74cadab935cb614b484a7,db865e68f4bc4fd99aa1dd1697a786d6,10*
G04 Gerber Generator version 0.2*
G04 Scale: 100 percent, Rotated: No, Reflected: No *
G04 Dimensions in millimeters *
G04 leading zeros omitted , absolute positions ,4 integer and 5 decimal *
%FSLAX45Y45*%
%MOMM*%

%ADD10C,0.2032*%

%LPD*%
D10*
X1727890Y8510737D02*
G01*
X1823346Y8547100D01*
X1727890Y8510737D02*
G01*
X1823346Y8474372D01*
X1791528Y8533462D02*
G01*
X1791528Y8488009D01*
X1727890Y8444372D02*
G01*
X1823346Y8444372D01*
X1727890Y8380737D02*
G01*
X1823346Y8380737D01*
X1773346Y8444372D02*
G01*
X1773346Y8380737D01*
X1727890Y8323463D02*
G01*
X1732437Y8332553D01*
X1741528Y8341647D01*
X1750618Y8346191D01*
X1764253Y8350737D01*
X1786981Y8350737D01*
X1800618Y8346191D01*
X1809709Y8341647D01*
X1818800Y8332553D01*
X1823346Y8323463D01*
X1823346Y8305281D01*
X1818800Y8296191D01*
X1809709Y8287100D01*
X1800618Y8282553D01*
X1786981Y8278009D01*
X1764253Y8278009D01*
X1750618Y8282553D01*
X1741528Y8287100D01*
X1732437Y8296191D01*
X1727890Y8305281D01*
X1727890Y8323463D01*
X1727890Y8248009D02*
G01*
X1773346Y8211647D01*
X1823346Y8211647D01*
X1727890Y8175282D02*
G01*
X1773346Y8211647D01*
X1782437Y8145282D02*
G01*
X1782437Y8063463D01*
X1727890Y8033463D02*
G01*
X1823346Y8033463D01*
X1727890Y8033463D02*
G01*
X1727890Y8001647D01*
X1732437Y7988010D01*
X1741528Y7978919D01*
X1750618Y7974373D01*
X1764253Y7969829D01*
X1786981Y7969829D01*
X1800618Y7974373D01*
X1809709Y7978919D01*
X1818800Y7988010D01*
X1823346Y8001647D01*
X1823346Y8033463D01*
X1727890Y7908010D02*
G01*
X1823346Y7908010D01*
X1727890Y7939829D02*
G01*
X1727890Y7876192D01*
X1727890Y7846192D02*
G01*
X1796072Y7846192D01*
X1809709Y7841648D01*
X1818800Y7832554D01*
X1823346Y7818920D01*
X1823346Y7809829D01*
X1818800Y7796192D01*
X1809709Y7787101D01*
X1796072Y7782554D01*
X1727890Y7782554D01*
X1727890Y7682555D02*
G01*
X1823346Y7659829D01*
X1727890Y7637101D02*
G01*
X1823346Y7659829D01*
X1727890Y7637101D02*
G01*
X1823346Y7614373D01*
X1727890Y7591648D02*
G01*
X1823346Y7614373D01*
X1786981Y7561648D02*
G01*
X1786981Y7507102D01*
X1777890Y7507102D01*
X1768800Y7511648D01*
X1764253Y7516192D01*
X1759709Y7525283D01*
X1759709Y7538920D01*
X1764253Y7548011D01*
X1773346Y7557101D01*
X1786981Y7561648D01*
X1796072Y7561648D01*
X1809709Y7557101D01*
X1818800Y7548011D01*
X1823346Y7538920D01*
X1823346Y7525283D01*
X1818800Y7516192D01*
X1809709Y7507102D01*
X1759709Y7477102D02*
G01*
X1823346Y7477102D01*
X1777890Y7477102D02*
G01*
X1764253Y7463464D01*
X1759709Y7454374D01*
X1759709Y7440739D01*
X1764253Y7431648D01*
X1777890Y7427102D01*
X1823346Y7427102D01*
X1777890Y7427102D02*
G01*
X1764253Y7413464D01*
X1759709Y7404374D01*
X1759709Y7390739D01*
X1764253Y7381648D01*
X1777890Y7377102D01*
X1823346Y7377102D01*
X1759709Y7324374D02*
G01*
X1764253Y7333465D01*
X1773346Y7342555D01*
X1786981Y7347102D01*
X1796072Y7347102D01*
X1809709Y7342555D01*
X1818800Y7333465D01*
X1823346Y7324374D01*
X1823346Y7310739D01*
X1818800Y7301649D01*
X1809709Y7292555D01*
X1796072Y7288011D01*
X1786981Y7288011D01*
X1773346Y7292555D01*
X1764253Y7301649D01*
X1759709Y7310739D01*
X1759709Y7324374D01*
X1773346Y7208012D02*
G01*
X1764253Y7212556D01*
X1759709Y7226193D01*
X1759709Y7239830D01*
X1764253Y7253465D01*
X1773346Y7258011D01*
X1782437Y7253465D01*
X1786981Y7244374D01*
X1791528Y7221649D01*
X1796072Y7212556D01*
X1805162Y7208012D01*
X1809709Y7208012D01*
X1818800Y7212556D01*
X1823346Y7226193D01*
X1823346Y7239830D01*
X1818800Y7253465D01*
X1809709Y7258011D01*
X1727890Y7108012D02*
G01*
X1823346Y7108012D01*
X1727890Y7108012D02*
G01*
X1727890Y7076193D01*
X1732437Y7062556D01*
X1741528Y7053465D01*
X1750618Y7048921D01*
X1764253Y7044375D01*
X1786981Y7044375D01*
X1800618Y7048921D01*
X1809709Y7053465D01*
X1818800Y7062556D01*
X1823346Y7076193D01*
X1823346Y7108012D01*
X1746072Y7014375D02*
G01*
X1741528Y7005284D01*
X1727890Y6991649D01*
X1823346Y6991649D01*
X1727890Y6891649D02*
G01*
X1823346Y6891649D01*
X1727890Y6891649D02*
G01*
X1823346Y6855284D01*
X1727890Y6818922D02*
G01*
X1823346Y6855284D01*
X1727890Y6818922D02*
G01*
X1823346Y6818922D01*
X1727890Y6788922D02*
G01*
X1732437Y6784375D01*
X1727890Y6779831D01*
X1723346Y6784375D01*
X1727890Y6788922D01*
X1759709Y6784375D02*
G01*
X1823346Y6784375D01*
X1759709Y6749831D02*
G01*
X1823346Y6749831D01*
X1777890Y6749831D02*
G01*
X1764253Y6736194D01*
X1759709Y6727103D01*
X1759709Y6713466D01*
X1764253Y6704375D01*
X1777890Y6699831D01*
X1823346Y6699831D01*
X1727890Y6669831D02*
G01*
X1732437Y6665285D01*
X1727890Y6660741D01*
X1723346Y6665285D01*
X1727890Y6669831D01*
X1759709Y6665285D02*
G01*
X1823346Y6665285D01*
X1727890Y6560741D02*
G01*
X1823346Y6560741D01*
X1727890Y6560741D02*
G01*
X1727890Y6519832D01*
X1732437Y6506194D01*
X1736981Y6501650D01*
X1746072Y6497104D01*
X1755162Y6497104D01*
X1764253Y6501650D01*
X1768800Y6506194D01*
X1773346Y6519832D01*
X1773346Y6560741D02*
G01*
X1773346Y6519832D01*
X1777890Y6506194D01*
X1782437Y6501650D01*
X1791528Y6497104D01*
X1805162Y6497104D01*
X1814253Y6501650D01*
X1818800Y6506194D01*
X1823346Y6519832D01*
X1823346Y6560741D01*
X1759709Y6467104D02*
G01*
X1823346Y6467104D01*
X1786981Y6467104D02*
G01*
X1773346Y6462557D01*
X1764253Y6453466D01*
X1759709Y6444376D01*
X1759709Y6430741D01*
X1786981Y6400741D02*
G01*
X1786981Y6346195D01*
X1777890Y6346195D01*
X1768800Y6350741D01*
X1764253Y6355285D01*
X1759709Y6364376D01*
X1759709Y6378013D01*
X1764253Y6387104D01*
X1773346Y6396194D01*
X1786981Y6400741D01*
X1796072Y6400741D01*
X1809709Y6396194D01*
X1818800Y6387104D01*
X1823346Y6378013D01*
X1823346Y6364376D01*
X1818800Y6355285D01*
X1809709Y6346195D01*
X1759709Y6261651D02*
G01*
X1823346Y6261651D01*
X1773346Y6261651D02*
G01*
X1764253Y6270741D01*
X1759709Y6279832D01*
X1759709Y6293467D01*
X1764253Y6302557D01*
X1773346Y6311651D01*
X1786981Y6316195D01*
X1796072Y6316195D01*
X1809709Y6311651D01*
X1818800Y6302557D01*
X1823346Y6293467D01*
X1823346Y6279832D01*
X1818800Y6270741D01*
X1809709Y6261651D01*
X1727890Y6231651D02*
G01*
X1823346Y6231651D01*
X1759709Y6186195D02*
G01*
X1805162Y6231651D01*
X1786981Y6213467D02*
G01*
X1823346Y6181651D01*
X1759709Y6128923D02*
G01*
X1764253Y6138014D01*
X1773346Y6147104D01*
X1786981Y6151651D01*
X1796072Y6151651D01*
X1809709Y6147104D01*
X1818800Y6138014D01*
X1823346Y6128923D01*
X1823346Y6115286D01*
X1818800Y6106195D01*
X1809709Y6097104D01*
X1796072Y6092558D01*
X1786981Y6092558D01*
X1773346Y6097104D01*
X1764253Y6106195D01*
X1759709Y6115286D01*
X1759709Y6128923D01*
X1759709Y6062558D02*
G01*
X1805162Y6062558D01*
X1818800Y6058014D01*
X1823346Y6048923D01*
X1823346Y6035286D01*
X1818800Y6026195D01*
X1805162Y6012558D01*
X1759709Y6012558D02*
G01*
X1823346Y6012558D01*
X1727890Y5968923D02*
G01*
X1805162Y5968923D01*
X1818800Y5964377D01*
X1823346Y5955286D01*
X1823346Y5946195D01*
X1759709Y5982558D02*
G01*
X1759709Y5950742D01*
X1937509Y8305800D02*
G01*
X2001146Y8278528D01*
X1937509Y8251253D02*
G01*
X2001146Y8278528D01*
X1978418Y8216709D02*
G01*
X1982962Y8221253D01*
X1987509Y8216709D01*
X1982962Y8212162D01*
X1978418Y8216709D01*
X1923872Y8182162D02*
G01*
X1919328Y8173072D01*
X1905690Y8159437D01*
X2001146Y8159437D01*
X1978418Y8124891D02*
G01*
X1982962Y8129437D01*
X1987509Y8124891D01*
X1982962Y8120346D01*
X1978418Y8124891D01*
X1905690Y8063072D02*
G01*
X1910237Y8076709D01*
X1923872Y8085800D01*
X1946600Y8090347D01*
X1960237Y8090347D01*
X1982962Y8085800D01*
X1996600Y8076709D01*
X2001146Y8063072D01*
X2001146Y8053981D01*
X1996600Y8040347D01*
X1982962Y8031253D01*
X1960237Y8026709D01*
X1946600Y8026709D01*
X1923872Y8031253D01*
X1910237Y8040347D01*
X1905690Y8053981D01*
X1905690Y8063072D01*
X1887509Y7926710D02*
G01*
X2032962Y7926710D01*
X1951146Y7776710D02*
G01*
X1942053Y7781254D01*
X1937509Y7794891D01*
X1937509Y7808528D01*
X1942053Y7822163D01*
X1951146Y7826710D01*
X1960237Y7822163D01*
X1964781Y7813073D01*
X1969328Y7790347D01*
X1973872Y7781254D01*
X1982962Y7776710D01*
X1987509Y7776710D01*
X1996600Y7781254D01*
X2001146Y7794891D01*
X2001146Y7808528D01*
X1996600Y7822163D01*
X1987509Y7826710D01*
X1905690Y7746710D02*
G01*
X1910237Y7742163D01*
X1905690Y7737619D01*
X1901146Y7742163D01*
X1905690Y7746710D01*
X1937509Y7742163D02*
G01*
X2001146Y7742163D01*
X1937509Y7707619D02*
G01*
X2001146Y7707619D01*
X1955690Y7707619D02*
G01*
X1942053Y7693982D01*
X1937509Y7684891D01*
X1937509Y7671254D01*
X1942053Y7662163D01*
X1955690Y7657619D01*
X2001146Y7657619D01*
X1955690Y7657619D02*
G01*
X1942053Y7643982D01*
X1937509Y7634892D01*
X1937509Y7621254D01*
X1942053Y7612164D01*
X1955690Y7607620D01*
X2001146Y7607620D01*
X1937509Y7577620D02*
G01*
X2032962Y7577620D01*
X1951146Y7577620D02*
G01*
X1942053Y7568529D01*
X1937509Y7559438D01*
X1937509Y7545801D01*
X1942053Y7536710D01*
X1951146Y7527620D01*
X1964781Y7523073D01*
X1973872Y7523073D01*
X1987509Y7527620D01*
X1996600Y7536710D01*
X2001146Y7545801D01*
X2001146Y7559438D01*
X1996600Y7568529D01*
X1987509Y7577620D01*
X1905690Y7493073D02*
G01*
X2001146Y7493073D01*
X1964781Y7463073D02*
G01*
X1964781Y7408529D01*
X1955690Y7408529D01*
X1946600Y7413073D01*
X1942053Y7417620D01*
X1937509Y7426711D01*
X1937509Y7440348D01*
X1942053Y7449438D01*
X1951146Y7458529D01*
X1964781Y7463073D01*
X1973872Y7463073D01*
X1987509Y7458529D01*
X1996600Y7449438D01*
X2001146Y7440348D01*
X2001146Y7426711D01*
X1996600Y7417620D01*
X1987509Y7408529D01*
X1951146Y7328529D02*
G01*
X1942053Y7333073D01*
X1937509Y7346711D01*
X1937509Y7360348D01*
X1942053Y7373983D01*
X1951146Y7378529D01*
X1960237Y7373983D01*
X1964781Y7364892D01*
X1969328Y7342164D01*
X1973872Y7333073D01*
X1982962Y7328529D01*
X1987509Y7328529D01*
X1996600Y7333073D01*
X2001146Y7346711D01*
X2001146Y7360348D01*
X1996600Y7373983D01*
X1987509Y7378529D01*
X1905690Y7284892D02*
G01*
X1982962Y7284892D01*
X1996600Y7280348D01*
X2001146Y7271255D01*
X2001146Y7262164D01*
X1937509Y7298529D02*
G01*
X1937509Y7266711D01*
X1960237Y7232164D02*
G01*
X1960237Y7150348D01*
X1951146Y7065802D02*
G01*
X1942053Y7074893D01*
X1937509Y7083983D01*
X1937509Y7097621D01*
X1942053Y7106711D01*
X1951146Y7115802D01*
X1964781Y7120348D01*
X1973872Y7120348D01*
X1987509Y7115802D01*
X1996600Y7106711D01*
X2001146Y7097621D01*
X2001146Y7083983D01*
X1996600Y7074893D01*
X1987509Y7065802D01*
X1905690Y7035802D02*
G01*
X1910237Y7031255D01*
X1905690Y7026711D01*
X1901146Y7031255D01*
X1905690Y7035802D01*
X1937509Y7031255D02*
G01*
X2001146Y7031255D01*
X1937509Y6996711D02*
G01*
X2001146Y6996711D01*
X1964781Y6996711D02*
G01*
X1951146Y6992165D01*
X1942053Y6983074D01*
X1937509Y6973984D01*
X1937509Y6960349D01*
X1951146Y6875802D02*
G01*
X1942053Y6884893D01*
X1937509Y6893984D01*
X1937509Y6907621D01*
X1942053Y6916712D01*
X1951146Y6925802D01*
X1964781Y6930349D01*
X1973872Y6930349D01*
X1987509Y6925802D01*
X1996600Y6916712D01*
X2001146Y6907621D01*
X2001146Y6893984D01*
X1996600Y6884893D01*
X1987509Y6875802D01*
X1937509Y6845802D02*
G01*
X1982962Y6845802D01*
X1996600Y6841256D01*
X2001146Y6832165D01*
X2001146Y6818530D01*
X1996600Y6809440D01*
X1982962Y6795803D01*
X1937509Y6795803D02*
G01*
X2001146Y6795803D01*
X1905690Y6765803D02*
G01*
X1910237Y6761256D01*
X1905690Y6756712D01*
X1901146Y6761256D01*
X1905690Y6765803D01*
X1937509Y6761256D02*
G01*
X2001146Y6761256D01*
X1905690Y6713075D02*
G01*
X1982962Y6713075D01*
X1996600Y6708531D01*
X2001146Y6699440D01*
X2001146Y6690349D01*
X1937509Y6726712D02*
G01*
X1937509Y6694893D01*
X1951146Y6610350D02*
G01*
X1942053Y6614894D01*
X1937509Y6628531D01*
X1937509Y6642166D01*
X1942053Y6655803D01*
X1951146Y6660349D01*
X1960237Y6655803D01*
X1964781Y6646712D01*
X1969328Y6623984D01*
X1973872Y6614894D01*
X1982962Y6610350D01*
X1987509Y6610350D01*
X1996600Y6614894D01*
X2001146Y6628531D01*
X2001146Y6642166D01*
X1996600Y6655803D01*
X1987509Y6660349D01*
X1923872Y6510350D02*
G01*
X1919328Y6501256D01*
X1905690Y6487622D01*
X2001146Y6487622D01*
X1923872Y6457622D02*
G01*
X1919328Y6448531D01*
X1905690Y6434894D01*
X2001146Y6434894D01*
X1887509Y6323076D02*
G01*
X2032962Y6404894D01*
X1928418Y6288531D02*
G01*
X1923872Y6288531D01*
X1914781Y6283985D01*
X1910237Y6279441D01*
X1905690Y6270350D01*
X1905690Y6252166D01*
X1910237Y6243076D01*
X1914781Y6238532D01*
X1923872Y6233985D01*
X1932962Y6233985D01*
X1942053Y6238532D01*
X1955690Y6247622D01*
X2001146Y6293076D01*
X2001146Y6229441D01*
X1905690Y6172166D02*
G01*
X1910237Y6185804D01*
X1923872Y6194894D01*
X1946600Y6199441D01*
X1960237Y6199441D01*
X1982962Y6194894D01*
X1996600Y6185804D01*
X2001146Y6172166D01*
X2001146Y6163076D01*
X1996600Y6149441D01*
X1982962Y6140350D01*
X1960237Y6135804D01*
X1946600Y6135804D01*
X1923872Y6140350D01*
X1910237Y6149441D01*
X1905690Y6163076D01*
X1905690Y6172166D01*
X1928418Y6101257D02*
G01*
X1923872Y6101257D01*
X1914781Y6096713D01*
X1910237Y6092167D01*
X1905690Y6083076D01*
X1905690Y6064895D01*
X1910237Y6055804D01*
X1914781Y6051257D01*
X1923872Y6046713D01*
X1932962Y6046713D01*
X1942053Y6051257D01*
X1955690Y6060351D01*
X2001146Y6105804D01*
X2001146Y6042167D01*
X1928418Y6007623D02*
G01*
X1923872Y6007623D01*
X1914781Y6003076D01*
X1910237Y5998532D01*
X1905690Y5989441D01*
X1905690Y5971258D01*
X1910237Y5962167D01*
X1914781Y5957623D01*
X1923872Y5953076D01*
X1932962Y5953076D01*
X1942053Y5957623D01*
X1955690Y5966713D01*
X2001146Y6012167D01*
X2001146Y5948532D01*
M02*
